#N canvas 542 50 493 626 10;
#X obj 76 69 autotuned~;
#X msg 120 22 tune 1 \, mix 100;
#X floatatom 104 118 5 0 0 0 - - -;
#X floatatom 133 93 10 0 0 0 - - -;
#X text 198 93 frequency;
#X text 138 116 confidence;
#X obj 150 46 hsl 128 15 -12 12 0 1 empty empty shift 20 8 0 10 -262144
-260097 -1 3000 0;
#X floatatom 147 71 10 0 0 0 - - -;
#X obj 279 -54 bng 25 250 50 0 empty empty empty 17 7 0 10 -262144
-260097 -1;
#X text 270 -73 change phases;
#X obj 132 -161 vsl 15 100 0 1 0 1 empty empty 1 4 9 0 10 -262144 -260097
-1 4800 0;
#N canvas 31 280 573 414 test-signal-harmonics1234--- 0;
#X obj 88 226 osc~ 100;
#X obj 165 227 osc~ 200;
#X obj 243 226 osc~ 300;
#X obj 88 369 outlet~;
#X obj 165 191 * 2;
#X msg 45 103 344.531;
#X obj 45 77 loadbang;
#X obj 35 19 inlet;
#X obj 35 145 f;
#X obj 109 22 inlet;
#X text 76 19 freq;
#X text 433 22 random phases;
#X obj 229 368 block~ 1024;
#N canvas 0 22 359 215 random 0;
#X obj 29 33 inlet;
#X obj 105 72 random 100;
#X obj 190 71 random 100;
#X obj 105 119 / 100;
#X obj 190 117 / 100;
#X obj 29 72 random 100;
#X obj 29 119 / 100;
#X obj 29 159 outlet;
#X obj 105 157 outlet;
#X obj 190 155 outlet;
#X obj 266 71 random 100;
#X obj 266 117 / 100;
#X obj 266 155 outlet;
#X connect 0 0 5 0;
#X connect 0 0 1 0;
#X connect 0 0 2 0;
#X connect 0 0 10 0;
#X connect 1 0 3 0;
#X connect 2 0 4 0;
#X connect 3 0 8 0;
#X connect 4 0 9 0;
#X connect 5 0 6 0;
#X connect 6 0 7 0;
#X connect 10 0 11 0;
#X connect 11 0 12 0;
#X restore 396 69 pd random;
#X obj 186 20 inlet;
#X obj 264 20 inlet;
#X obj 349 22 inlet;
#X obj 165 266 *~ 1;
#X obj 243 268 *~ 1;
#X obj 88 267 *~ 1;
#X text 152 53 magnitudes;
#X obj 109 79 clip 0 1;
#X obj 186 80 clip 0 1;
#X obj 264 78 clip 0 1;
#X obj 243 189 * 3;
#X obj 328 268 *~ 1;
#X obj 396 21 inlet;
#X obj 328 233 osc~ 400;
#X obj 328 189 * 4;
#X obj 413 46 loadbang;
#X obj 88 311 *~ 0.25;
#X floatatom 415 199 5 0 0 0 - - -;
#X msg 415 171 0;
#X msg 477 172 0.25;
#X msg 443 171 0.125;
#X msg 478 104 0.625;
#X msg 471 141 0.375;
#X msg 521 103 0.875;
#X floatatom 387 108 5 0 0 0 - - -;
#X connect 0 0 19 0;
#X connect 1 0 17 0;
#X connect 2 0 18 0;
#X connect 4 0 1 0;
#X connect 5 0 8 0;
#X connect 6 0 5 0;
#X connect 7 0 8 0;
#X connect 8 0 0 0;
#X connect 8 0 4 0;
#X connect 8 0 24 0;
#X connect 8 0 28 0;
#X connect 9 0 21 0;
#X connect 13 0 0 1;
#X connect 13 0 38 0;
#X connect 13 1 1 1;
#X connect 13 2 2 1;
#X connect 13 3 27 1;
#X connect 14 0 22 0;
#X connect 15 0 23 0;
#X connect 16 0 25 1;
#X connect 17 0 30 0;
#X connect 18 0 30 0;
#X connect 19 0 30 0;
#X connect 21 0 19 1;
#X connect 22 0 17 1;
#X connect 23 0 18 1;
#X connect 24 0 2 0;
#X connect 25 0 30 0;
#X connect 26 0 13 0;
#X connect 27 0 25 0;
#X connect 28 0 27 0;
#X connect 29 0 13 0;
#X connect 30 0 3 0;
#X connect 31 0 0 1;
#X connect 31 0 1 1;
#X connect 31 0 2 1;
#X connect 31 0 27 1;
#X connect 32 0 31 0;
#X connect 33 0 31 0;
#X connect 34 0 31 0;
#X connect 35 0 31 0;
#X connect 36 0 31 0;
#X connect 37 0 31 0;
#X restore 96 -17 pd test-signal-harmonics1234---;
#X obj 169 -161 vsl 15 100 0 1 0 1 empty empty 2 4 9 0 10 -262144 -260097
-1 9900 0;
#X obj 205 -161 vsl 15 100 0 1 0 1 empty empty 3 4 9 0 10 -262144 -260097
-1 0 0;
#X obj 242 -161 vsl 15 100 0 1 0 1 empty empty 4 4 9 0 10 -262144 -260097
-1 0 0;
#X text 135 -115 harmonic components;
#X floatatom 139 -44 4 0 0 0 - - -;
#X floatatom 175 -44 4 0 0 0 - - -;
#X floatatom 213 -44 4 0 0 0 - - -;
#X floatatom 249 -44 4 0 0 0 - - -;
#N canvas 90 163 208 279 frequency 0;
#X obj 47 36 inlet;
#X obj 47 166 samplerate~;
#X obj 47 202 /;
#X obj 47 135 t b f;
#X obj 47 71 sel 0 1 2;
#X msg 47 104 256;
#X msg 81 104 128;
#X obj 47 236 outlet;
#X msg 116 105 64;
#X connect 0 0 4 0;
#X connect 1 0 2 0;
#X connect 2 0 7 0;
#X connect 3 0 1 0;
#X connect 3 1 2 1;
#X connect 4 0 5 0;
#X connect 4 1 6 0;
#X connect 4 2 8 0;
#X connect 5 0 3 0;
#X connect 6 0 3 0;
#X connect 8 0 3 0;
#X restore 96 -232 pd frequency;
#X obj 96 -257 hradio 15 1 0 3 empty empty empty 0 -8 0 10 -262144
-260097 -1 0;
#X floatatom 105 -209 10 0 0 0 - - -;
#X obj 115 -187 hsl 128 15 100 500 0 1 empty empty frequency 20 8 0
10 -262144 -260097 -1 5700 1;
#X floatatom 276 -172 10 0 0 0 - - -;
#X obj 62 -43 adc~;
#X obj 62 -17 +~;
#X obj 76 17 mux~;
#X text -48 -33 soundcard;
#X obj 11 -35 vradio 25 1 1 2 empty empty empty 0 -8 0 10 -262144 -260097
-1 1;
#X text -59 -8 test signal;
#X obj -87 162 statuscop;
#X obj -52 100 output~;
#X obj 120 3 loadbang;
#X obj 27 99 output~;
#X msg 245 15 -7;
#N canvas 0 22 209 232 samples 0;
#X obj 65 34 inlet;
#X obj 65 92 samplerate~;
#X obj 66 122 /;
#X obj 65 63 t b f;
#X obj 66 174 outlet;
#X connect 0 0 3 0;
#X connect 1 0 2 0;
#X connect 2 0 4 0;
#X connect 3 0 1 0;
#X connect 3 1 2 1;
#X restore 269 131 pd samples;
#X floatatom 269 155 4 0 0 0 - - -;
#X connect 0 0 34 0;
#X connect 0 0 34 1;
#X connect 0 0 31 0;
#X connect 0 1 2 0;
#X connect 0 2 3 0;
#X connect 0 2 36 0;
#X connect 1 0 0 0;
#X connect 6 0 0 4;
#X connect 6 0 7 0;
#X connect 8 0 11 5;
#X connect 10 0 11 1;
#X connect 10 0 16 0;
#X connect 11 0 27 1;
#X connect 12 0 11 2;
#X connect 12 0 17 0;
#X connect 13 0 11 3;
#X connect 13 0 18 0;
#X connect 14 0 11 4;
#X connect 14 0 19 0;
#X connect 20 0 22 0;
#X connect 20 0 11 0;
#X connect 21 0 20 0;
#X connect 23 0 11 0;
#X connect 23 0 24 0;
#X connect 25 0 26 0;
#X connect 25 1 26 1;
#X connect 26 0 27 0;
#X connect 27 0 0 0;
#X connect 27 0 32 0;
#X connect 27 0 32 1;
#X connect 29 0 27 0;
#X connect 33 0 1 0;
#X connect 35 0 0 4;
#X connect 36 0 37 0;
