#N canvas 177 161 288 476 10;
#X msg 169 319 \; pd dsp 1;
#X msg 169 362 \; pd dsp 0;
#X obj 169 284 loadbang;
#X floatatom 37 195 10 0 0 0 - - -;
#X msg 28 40 bias 0.01;
#X obj 15 -40 adc~;
#N canvas 0 22 263 214 filters 0;
#X obj 47 79 hip~ 80;
#X obj 47 41 inlet~;
#X obj 47 176 outlet~;
#X text 103 79 DC filter;
#X text 140 140 sibilant filter;
#X obj 47 140 lp6_cheb~ 1000;
#X obj 125 41 inlet;
#X text 165 40 freq;
#X connect 0 0 5 0;
#X connect 1 0 0 0;
#X connect 5 0 2 0;
#X connect 6 0 5 1;
#X restore 15 12 pd filters;
#X obj 72 -37 nbx 4 14 1000 3000 1 1 empty empty empty 0 -8 0 10 -262144
-1 -1 1000 256;
#X text 120 -38 lo pass filter freq;
#X obj 28 170 spigot;
#X obj 61 146 > 0.9;
#X obj 115 147 envrms~;
#X obj 15 -12 +~;
#X obj 28 347 output~;
#X obj 115 218 line~;
#X obj 28 307 *~;
#X obj 15 80 autotuned~;
#X obj 28 105 swap;
#X obj 28 217 square~;
#X obj 43 246 delay~ 1 1;
#X obj 28 271 +~;
#X msg 115 195 \$1 2;
#X connect 5 0 12 0;
#X connect 5 1 12 1;
#X connect 6 0 16 0;
#X connect 7 0 6 1;
#X connect 9 0 3 0;
#X connect 9 0 18 0;
#X connect 10 0 9 1;
#X connect 11 0 21 0;
#X connect 12 0 6 0;
#X connect 12 0 11 0;
#X connect 14 0 15 1;
#X connect 15 0 13 0;
#X connect 15 0 13 1;
#X connect 16 1 17 0;
#X connect 16 2 17 1;
#X connect 17 0 9 0;
#X connect 17 1 10 0;
#X connect 18 0 19 0;
#X connect 18 0 20 0;
#X connect 19 0 20 1;
#X connect 20 0 15 0;
#X connect 21 0 14 0;
