#N canvas 555 23 867 688 10;
#X msg 711 460 jeraman - 2015;
#X obj 149 455 dac~;
#X obj 308 92 readsf~;
#X msg 305 26 open \$1;
#X obj 301 -14 openpanel;
#X obj 303 -42 bng 15 250 50 0 empty empty empty 17 7 0 10 -262144
-1 -1;
#X msg 370 39 start;
#X msg 373 65 stop;
#X obj 262 80 print;
#X obj 49 317 *~ 0.5;
#X obj 193 328 *~ 0.5;
#X obj 275 293 vsl 30 50 0 1 0 0 empty empty empty 0 -9 0 10 -262144
-1 -1 0 1;
#X obj 98 273 vsl 30 50 0 1 0 0 empty empty empty 0 -9 0 10 -262144
-1 -1 0 1;
#X obj 136 409 freeverb~;
#X msg 212 367 wet 0.3;
#X msg 212 394 dry 0.9;
#X msg 478 -47 0 2 3 4 7 8 9 12 14 15 16 19;
#X text 638 -18 pentatonic blues;
#X floatatom 529 43 5 0 100 0 - - -;
#X text 592 177 mix;
#X floatatom 542 107 5 0 100 0 - - -;
#X text 604 236 shift;
#X floatatom 554 176 5 0 100 0 - - -;
#X floatatom 568 234 5 -12 12 0 - - -;
#X floatatom 580 274 5 -100 100 0 - - -;
#X text 615 275 tune;
#X text 576 108 glide;
#X text 567 43 correction amount;
#X obj 529 65 / 100;
#X obj 554 198 / 100;
#X obj 542 131 * 5;
#X obj 580 301 / 100;
#X obj 517 327 autotuned~;
#X obj 517 371 dac~;
#X obj 425 150 adc~;
#X obj 304 159 *~ 2;
#X msg 429 -89 0 3 5 12 15 18 24;
#X obj 278 208 s~ voice;
#X connect 2 0 35 0;
#X connect 3 0 2 0;
#X connect 3 0 8 0;
#X connect 4 0 3 0;
#X connect 5 0 4 0;
#X connect 6 0 2 0;
#X connect 7 0 2 0;
#X connect 9 0 13 0;
#X connect 10 0 13 0;
#X connect 11 0 10 1;
#X connect 12 0 9 1;
#X connect 13 0 1 0;
#X connect 13 1 1 1;
#X connect 14 0 13 0;
#X connect 15 0 13 0;
#X connect 16 0 32 0;
#X connect 18 0 28 0;
#X connect 20 0 30 0;
#X connect 22 0 29 0;
#X connect 23 0 32 4;
#X connect 24 0 31 0;
#X connect 28 0 32 1;
#X connect 29 0 32 3;
#X connect 30 0 32 2;
#X connect 31 0 32 5;
#X connect 32 0 33 0;
#X connect 32 0 33 1;
#X connect 34 1 32 0;
#X connect 35 0 37 0;
#X connect 36 0 32 0;
