#N canvas 390 236 797 470 10;
#X obj 151 82 bng 15 250 50 0 empty empty empty 17 7 0 10 -262144 -1
-1;
#X msg 178 111 stop;
#X msg 114 57 open trololo.wav \, 1;
#X obj 428 114 adc~;
#X obj 248 121 hsl 128 15 0 1 0 0 empty empty empty -2 -8 0 10 -262144
-1 -1 0 1;
#X obj 177 219 *~;
#X obj 388 224 *~;
#X obj 283 141 - 1;
#X floatatom 242 187 5 0 0 0 - - -;
#X floatatom 288 185 5 0 0 0 - - -;
#X obj 284 161 abs;
#X text 131 38 trololo audio;
#X text 419 90 original audio;
#X obj 288 -30 tgl 15 0 empty empty empty 17 7 0 10 -262144 -1 -1 0
1;
#X obj 296 57 line;
#X obj 289 -3 select 0 1;
#X obj 108 120 readsf~;
#X msg 273 31 0 1000;
#X floatatom 298 95 5 0 0 0 - - -;
#X msg 327 31 1 1000;
#X text 311 -55 TRUMP IT!;
#X obj 260 303 outlet~;
#X obj 288 -99 inlet;
#X obj 105 2 loadbang;
#X obj 222 -76 loadbang;
#X msg 220 -55 0;
#X obj 98 178 *~ 0.5;
#X connect 0 0 2 0;
#X connect 1 0 16 0;
#X connect 2 0 16 0;
#X connect 3 0 6 0;
#X connect 4 0 8 0;
#X connect 4 0 7 0;
#X connect 5 0 21 0;
#X connect 6 0 21 0;
#X connect 7 0 10 0;
#X connect 8 0 5 1;
#X connect 9 0 6 1;
#X connect 10 0 9 0;
#X connect 13 0 15 0;
#X connect 14 0 18 0;
#X connect 15 0 17 0;
#X connect 15 1 19 0;
#X connect 16 0 26 0;
#X connect 16 1 0 0;
#X connect 17 0 14 0;
#X connect 18 0 4 0;
#X connect 19 0 14 0;
#X connect 22 0 13 0;
#X connect 23 0 2 0;
#X connect 24 0 25 0;
#X connect 25 0 13 0;
#X connect 26 0 5 0;
