#N canvas 290 116 858 661 10;
#X obj 105 118 hradio 30 1 0 3 empty empty empty 0 -8 0 10 -262144
-1 -1 0;
#X text 108 148 a;
#X text 140 147 b;
#X text 162 148 impr.;
#X obj 463 122 inlet;
#N canvas 416 194 821 562 sectionA 0;
#X obj 280 47 inlet;
#X obj 273 200 mod 16;
#X obj 274 233 hradio 15 1 0 16 empty empty empty 0 -8 0 10 -262144
-1 -1 1;
#X obj 273 162 float;
#X obj 352 167 + 1;
#X floatatom 221 233 5 0 0 0 - - -;
#X obj 271 260 select 1 2 3 4 5 6 7 8 9 10 11 12 13 14 15;
#X msg 95 304 0;
#X msg 129 304 0;
#X msg 164 304 0;
#X msg 199 304 0;
#X floatatom 355 361 10 0 0 1 note - -;
#X obj 355 391 outlet;
#X msg 429 304 0;
#X msg 466 304 0;
#X msg 531 303 0;
#X obj 320 101 r bf-stop;
#X msg 320 131 1;
#X msg 262 304 1;
#X msg 297 304 2;
#X msg 334 304 3;
#X msg 367 304 5;
#X msg 604 304 1;
#X msg 640 304 2;
#X msg 675 304 3;
#X msg 707 303 5;
#X msg 500 304 3;
#X connect 0 0 3 0;
#X connect 1 0 2 0;
#X connect 1 0 5 0;
#X connect 2 0 6 0;
#X connect 3 0 4 0;
#X connect 3 0 1 0;
#X connect 4 0 3 1;
#X connect 6 0 7 0;
#X connect 6 1 8 0;
#X connect 6 2 9 0;
#X connect 6 3 10 0;
#X connect 6 4 18 0;
#X connect 6 5 19 0;
#X connect 6 6 20 0;
#X connect 6 7 21 0;
#X connect 6 8 13 0;
#X connect 6 9 14 0;
#X connect 6 10 26 0;
#X connect 6 11 15 0;
#X connect 6 12 22 0;
#X connect 6 13 23 0;
#X connect 6 14 24 0;
#X connect 6 15 25 0;
#X connect 7 0 11 0;
#X connect 8 0 11 0;
#X connect 9 0 11 0;
#X connect 10 0 11 0;
#X connect 11 0 12 0;
#X connect 13 0 11 0;
#X connect 14 0 11 0;
#X connect 15 0 11 0;
#X connect 16 0 17 0;
#X connect 17 0 3 1;
#X connect 18 0 11 0;
#X connect 19 0 11 0;
#X connect 20 0 11 0;
#X connect 21 0 11 0;
#X connect 22 0 11 0;
#X connect 23 0 11 0;
#X connect 24 0 11 0;
#X connect 25 0 11 0;
#X connect 26 0 11 0;
#X restore 470 263 pd sectionA;
#X obj 544 505 outlet;
#N canvas 553 163 802 573 sectionB 1;
#X obj 206 34 inlet;
#X obj 273 200 mod 16;
#X obj 274 232 hradio 15 1 0 16 empty empty empty 0 -8 0 10 -262144
-1 -1 1;
#X obj 273 162 float;
#X obj 352 167 + 1;
#X floatatom 221 233 5 0 0 0 - - -;
#X obj 271 260 select 1 2 3 4 5 6 7 8 9 10 11 12 13 14 15;
#X msg 706 304 4;
#X floatatom 355 361 10 0 0 1 note - -;
#X obj 355 391 outlet;
#X obj 320 101 r bf-stop;
#X msg 95 304 7;
#X msg 164 304 3;
#X msg 262 304 7;
#X msg 334 304 3;
#X msg 320 131 1;
#X msg 129 303 3;
#X msg 203 304 3;
#X msg 296 303 3;
#X msg 366 304 3;
#X msg 429 304 3;
#X msg 466 304 2;
#X msg 500 304 3;
#X msg 531 302 3;
#X msg 605 304 7;
#X msg 640 304 7;
#X msg 675 304 3;
#X connect 0 0 3 0;
#X connect 1 0 2 0;
#X connect 1 0 5 0;
#X connect 2 0 6 0;
#X connect 3 0 4 0;
#X connect 3 0 1 0;
#X connect 4 0 3 1;
#X connect 6 0 11 0;
#X connect 6 1 16 0;
#X connect 6 2 12 0;
#X connect 6 3 17 0;
#X connect 6 4 13 0;
#X connect 6 5 18 0;
#X connect 6 6 14 0;
#X connect 6 7 19 0;
#X connect 6 8 20 0;
#X connect 6 9 21 0;
#X connect 6 10 22 0;
#X connect 6 11 23 0;
#X connect 6 12 24 0;
#X connect 6 13 25 0;
#X connect 6 14 26 0;
#X connect 6 15 7 0;
#X connect 7 0 8 0;
#X connect 8 0 9 0;
#X connect 10 0 15 0;
#X connect 11 0 8 0;
#X connect 12 0 8 0;
#X connect 13 0 8 0;
#X connect 14 0 8 0;
#X connect 15 0 3 1;
#X connect 16 0 8 0;
#X connect 17 0 8 0;
#X connect 18 0 8 0;
#X connect 19 0 8 0;
#X connect 20 0 8 0;
#X connect 21 0 8 0;
#X connect 22 0 8 0;
#X connect 23 0 8 0;
#X connect 24 0 8 0;
#X connect 25 0 8 0;
#X connect 26 0 8 0;
#X restore 550 263 pd sectionB;
#X obj 359 135 inlet;
#X obj 361 263 float;
#X obj 101 254 select 0 1 2;
#X floatatom 176 204 5 0 0 0 - - -;
#X obj 458 352 spigot;
#X obj 555 352 spigot;
#X obj 350 353 spigot;
#X floatatom 385 325 5 0 0 0 - - -;
#X floatatom 594 324 5 0 0 0 - - -;
#X floatatom 500 330 5 0 0 0 - - -;
#X msg 98 296 1;
#X msg 96 316 0;
#X msg 134 289 1;
#X msg 132 309 0;
#X msg 169 288 1;
#X msg 167 308 0;
#X obj 342 501 outlet;
#X floatatom 581 433 5 0 0 0 - - -;
#X floatatom 510 408 5 0 0 0 - - -;
#X obj 103 52 r s-set-section;
#X obj 33 204 s s-get-section;
#N canvas 720 104 968 578 aut-sec-ctr 0;
#X obj 135 307 outlet;
#X obj 48 -112 inlet;
#X obj 93 -28 f;
#X obj 133 -30 + 1;
#X floatatom 102 1 5 0 0 0 - - -;
#X obj 103 86 f;
#X obj 143 84 + 1;
#X obj 102 29 mod 16;
#X obj 100 56 select 0;
#X floatatom 113 118 5 0 0 1 measure - -;
#X obj 77 93 bng 15 250 50 0 empty empty empty 17 7 0 10 -262144 -1
-1;
#X obj 113 -105 r bf-stop;
#X msg 113 -75 1;
#X obj 184 -103 loadbang;
#X msg 105 194 1;
#X msg 140 194 0;
#X msg 175 194 1;
#X msg 208 194 2;
#X obj 180 -57 - 1;
#X obj 180 -32 s s-set-section;
#X text 440 -81 defines the automatic transition between sections;
#X text 254 162 when the counter reache these numbers \, it change
section;
#X floatatom 113 138 5 0 0 1 section - -;
#X floatatom 136 262 5 0 0 0 - - -;
#X text 186 306 current section;
#X obj 109 165 select 4 6 10 12 15 16;
#X obj 277 292 outlet;
#X obj 281 264 tgl 15 0 empty empty empty 17 7 0 10 -262144 -1 -1 0
1;
#X msg 279 241 1;
#X msg 313 240 0;
#X text 330 291 is last measure?;
#X msg 243 193 0;
#X obj 354 241 s bf-reload;
#X connect 1 0 2 0;
#X connect 2 0 3 0;
#X connect 2 0 4 0;
#X connect 3 0 2 1;
#X connect 4 0 7 0;
#X connect 5 0 6 0;
#X connect 5 0 9 0;
#X connect 6 0 5 1;
#X connect 7 0 8 0;
#X connect 8 0 5 0;
#X connect 8 0 10 0;
#X connect 9 0 25 0;
#X connect 11 0 12 0;
#X connect 12 0 2 1;
#X connect 12 0 5 1;
#X connect 12 0 18 0;
#X connect 12 0 29 0;
#X connect 13 0 12 0;
#X connect 14 0 23 0;
#X connect 15 0 23 0;
#X connect 16 0 23 0;
#X connect 17 0 23 0;
#X connect 18 0 19 0;
#X connect 23 0 22 0;
#X connect 23 0 0 0;
#X connect 25 0 14 0;
#X connect 25 1 15 0;
#X connect 25 2 16 0;
#X connect 25 3 17 0;
#X connect 25 4 28 0;
#X connect 25 5 31 0;
#X connect 25 5 29 0;
#X connect 25 5 32 0;
#X connect 27 0 26 0;
#X connect 28 0 27 0;
#X connect 29 0 27 0;
#X connect 31 0 12 0;
#X connect 31 0 23 0;
#X coords 0 -1 1 1 90 60 1 100 100;
#X restore 669 158 pd aut-sec-ctr;
#X obj 669 235 s s-set-section;
#X obj 784 238 s last-measure-before-restart;
#X connect 0 0 11 0;
#X connect 0 0 10 0;
#X connect 0 0 28 0;
#X connect 4 0 7 0;
#X connect 4 0 5 0;
#X connect 4 0 29 0;
#X connect 5 0 12 0;
#X connect 7 0 13 0;
#X connect 8 0 9 0;
#X connect 9 0 14 0;
#X connect 10 0 18 0;
#X connect 10 0 19 0;
#X connect 10 1 20 0;
#X connect 10 1 21 0;
#X connect 10 2 22 0;
#X connect 10 2 23 0;
#X connect 12 0 6 0;
#X connect 12 0 26 0;
#X connect 13 0 6 0;
#X connect 13 0 25 0;
#X connect 14 0 24 0;
#X connect 15 0 14 1;
#X connect 16 0 13 1;
#X connect 17 0 12 1;
#X connect 18 0 17 0;
#X connect 19 0 16 0;
#X connect 19 0 15 0;
#X connect 20 0 16 0;
#X connect 21 0 17 0;
#X connect 21 0 15 0;
#X connect 22 0 15 0;
#X connect 23 0 17 0;
#X connect 23 0 16 0;
#X connect 27 0 0 0;
#X connect 29 0 30 0;
#X connect 29 1 31 0;
#X coords 0 -1 1 1 100 70 1 100 100;
