#N canvas 155 44 606 774 10;
#X declare -lib Gem;
#X obj 4 6 cnv 15 480 60 empty empty A/V_Combination_better 20 30 0
20 -262130 -99865 0;
#X obj 27 570 vline~;
#X obj 28 277 soundfiler;
#X obj 28 165 openpanel;
#X obj 28 145 bng 15 250 50 0 empty empty empty 17 7 0 10 -262144 -1
-1;
#X obj 28 298 t f f;
#N canvas 0 22 450 300 sample 0;
#N canvas 0 22 450 300 (subpatch) 0;
#X array \$0-soundfile 1.56989e+07 float 2;
#X coords 0 1 1.56989e+07 -1 200 140 1;
#X restore 17 27 graph;
#X restore 27 112 pd sample;
#X obj 293 155 gemwin;
#X msg 293 111 create \, 1;
#X msg 305 133 0 \, destroy;
#X obj 295 595 pix_film;
#X obj 295 663 pix_texture;
#X obj 295 346 gemhead;
#X obj 397 511 bng 15 250 50 0 empty empty empty 17 7 0 10 -262144
-1 -1;
#X obj 397 529 openpanel;
#X msg 397 548 open \$1;
#X obj 317 619 unpack f f f;
#X obj 27 461 *;
#X msg 27 483 \$1 50;
#X obj 30 420 hsl 128 15 0 1 0 0 empty empty empty -2 -8 0 10 -262144
-1 -1 0 1;
#X text 27 85 Audio;
#X text 291 87 Video;
#X text 30 400 Scratcher;
#X text 94 114 Storage for the sample;
#X text 382 128 Gem window;
#X text 48 144 loading the audio into the buffer;
#X text 414 511 opening the video file;
#X obj 322 484 *;
#X obj 322 398 snapshot~;
#X obj 295 367 t a b;
#X obj 322 442 /;
#X obj 322 531 int;
#X obj 322 553 change;
#X obj 28 188 t a b;
#X obj 28 231 pack s s;
#X msg 28 253 read -resize \$1 \$2;
#X obj 55 318 s \$0-samples;
#X obj 28 361 s \$0-miliseconds;
#X obj 42 438 r \$0-samples;
#X obj 337 462 r \$0-frames;
#X obj 337 419 r \$0-samples;
#X obj 317 641 s \$0-frames;
#N canvas 762 22 450 300 preset 0;
#X obj 18 167 outlet;
#X obj 18 70 pack f f;
#X obj 18 93 trigger list bang bang;
#X msg 147 130 set 1;
#X msg 82 130 addcomma;
#X msg 18 129 add \$2 \$1;
#X obj 18 20 r \$0-miliseconds;
#X obj 63 45 r \$0-samples;
#X connect 1 0 2 0;
#X connect 2 0 5 0;
#X connect 2 1 4 0;
#X connect 2 2 3 0;
#X connect 3 0 0 0;
#X connect 4 0 0 0;
#X connect 5 0 0 0;
#X connect 6 0 1 0;
#X connect 7 0 1 1;
#X restore 55 508 pd preset;
#X obj 270 107 cnv 15 20 20 empty empty 1 6 10 0 14 -261234 -66577
0;
#X obj 4 141 cnv 15 20 20 empty empty 2 6 10 0 14 -261234 -66577 0
;
#X obj 375 507 cnv 15 20 20 empty empty 3 6 10 0 14 -261234 -66577
0;
#X obj 4 417 cnv 15 20 20 empty empty 4 6 10 0 14 -261234 -66577 0
;
#X obj 33 531 cnv 15 20 20 empty empty 4 6 10 0 14 -261234 -66577 0
;
#N canvas 0 22 145 114 init 0;
#X obj -56 -11 declare -lib Gem;
#X obj -56 12 loadbang;
#X msg -57 35 \; pd dsp 1;
#X connect 1 0 2 0;
#X restore 448 81 pd init;
#X obj 327 506 + 0.5;
#X text 22 715 Max Neupert - Bauhaus-Universität Weimar 2009;
#X msg 55 533 1 \, 1.56989e+07 327061 \;;
#X obj 28 340 / 48;
#X floatatom 360 483 5 0 0 0 - - -;
#X obj 427 441 loadbang;
#X msg 427 470 21;
#X obj 296 685 rectangle 7 4;
#X obj 26 685 s~ voice;
#X obj 73 208 symbol \$0-soundfile;
#X obj 28 661 tabread4~ \$0-soundfile;
#X msg 353 163 dimen 850 480;
#X obj 199 230 inlet;
#X msg 190 321 0;
#X obj 199 277 select start stop;
#X obj 250 311 bng 15 250 50 0 empty empty empty 17 7 0 10 -262144
-1 -1;
#X obj 316 285 print;
#X obj 199 253 symbol;
#X msg 353 190 dimen 1280 720;
#X connect 1 0 28 0;
#X connect 1 0 59 0;
#X connect 2 0 5 0;
#X connect 3 0 33 0;
#X connect 4 0 3 0;
#X connect 5 0 52 0;
#X connect 5 1 36 0;
#X connect 8 0 7 0;
#X connect 9 0 7 0;
#X connect 10 0 11 0;
#X connect 10 1 16 0;
#X connect 11 0 56 0;
#X connect 12 0 29 0;
#X connect 13 0 14 0;
#X connect 14 0 15 0;
#X connect 15 0 10 0;
#X connect 16 0 41 0;
#X connect 17 0 18 0;
#X connect 18 0 1 0;
#X connect 19 0 17 0;
#X connect 27 0 49 0;
#X connect 28 0 30 0;
#X connect 29 0 10 0;
#X connect 29 1 28 0;
#X connect 30 0 27 0;
#X connect 31 0 32 0;
#X connect 32 0 10 1;
#X connect 33 0 34 0;
#X connect 33 1 58 0;
#X connect 34 0 35 0;
#X connect 35 0 2 0;
#X connect 38 0 17 1;
#X connect 39 0 27 1;
#X connect 40 0 30 1;
#X connect 42 0 51 0;
#X connect 49 0 31 0;
#X connect 51 0 1 0;
#X connect 52 0 37 0;
#X connect 53 0 49 1;
#X connect 54 0 55 0;
#X connect 55 0 53 0;
#X connect 58 0 34 1;
#X connect 59 0 57 0;
#X connect 60 0 7 0;
#X connect 61 0 66 0;
#X connect 62 0 19 0;
#X connect 63 0 51 0;
#X connect 63 1 62 0;
#X connect 63 2 64 0;
#X connect 66 0 63 0;
#X connect 67 0 7 0;
