#N canvas 634 263 671 530 10;
#X msg 500 369 jeraman - 2015;
#X floatatom 329 142 5 0 0 0 - - -;
#X floatatom 450 143 5 0 0 0 - - -;
#X text 487 141 velocity;
#X text 367 140 melody pitch;
#X obj 328 65 midi-melody-follower;
#X obj 225 248 vocoder~;
#X obj 200 416 dac~;
#X text 365 197 ajustando com o tom da voz da pessoa;
#X obj 136 164 readsf~;
#X msg 133 98 open \$1;
#X obj 129 58 openpanel;
#X obj 131 30 bng 15 250 50 0 empty empty empty 17 7 0 10 -262144 -1
-1;
#X msg 198 111 start;
#X msg 201 137 stop;
#X obj 90 152 print;
#X obj 296 176 - 24;
#X obj 100 278 *~ 0.5;
#X obj 244 289 *~ 0.5;
#X obj 326 254 vsl 30 50 0 1 0 0 empty empty empty 0 -9 0 10 -262144
-1 -1 3700 1;
#X obj 149 234 vsl 30 50 0 1 0 0 empty empty empty 0 -9 0 10 -262144
-1 -1 800 1;
#X obj 187 370 freeverb~;
#X msg 263 328 wet 0.3;
#X msg 263 355 dry 0.9;
#X connect 1 0 16 0;
#X connect 5 0 1 0;
#X connect 5 1 2 0;
#X connect 6 0 18 0;
#X connect 9 0 6 0;
#X connect 9 0 17 0;
#X connect 10 0 9 0;
#X connect 10 0 15 0;
#X connect 11 0 10 0;
#X connect 12 0 11 0;
#X connect 13 0 9 0;
#X connect 14 0 9 0;
#X connect 16 0 6 1;
#X connect 17 0 21 0;
#X connect 18 0 21 0;
#X connect 19 0 18 1;
#X connect 20 0 17 1;
#X connect 21 0 7 0;
#X connect 21 1 7 1;
#X connect 22 0 21 0;
#X connect 23 0 21 0;
