#N canvas 126 41 990 833 10;
#X obj 147 -177 readsf~;
#X msg 66 -273 open \$1;
#X obj 62 -313 openpanel;
#X obj 64 -341 bng 15 250 50 0 empty empty empty 17 7 0 10 -262144
-1 -1;
#X msg 146 -237 start;
#X msg 276 -198 stop;
#X obj 101 -189 print;
#X obj 631 169 bonk~;
#X obj 632 198 bng 15 250 50 0 empty empty empty 17 7 0 10 -262144
-1 -1;
#X msg 737 93 minvel \$1;
#X floatatom 743 48 5 0 0 0 - - -;
#X msg 645 28 mask 4 0.9;
#X obj 544 89 lop~ 10;
#X obj 634 223 tgl 15 0 empty empty empty 17 7 0 10 -262144 -1 -1 0
1;
#X msg 619 -8 thresh 5 15;
#X text 657 223 gives rhythm to the voice;
#X obj 239 -159 bng 15 250 50 0 empty empty empty 17 7 0 10 -262144
-1 -1;
#X msg 239 -137 0;
#X text 274 -141 stops voice when finished;
#X msg 740 -29 26;
#X text 783 49 threshhold for rhythm;
#X text 877 -55 base 2 e 3;
#X msg 763 11 17;
#X text 877 -15 base 1;
#X msg 279 -324 s ../audiodata/base3.wav;
#X msg 273 -375 s ../audiodata/base2.wav;
#X msg 278 -428 s ../audiodata/base1.wav;
#X msg 183 -287 open \$1;
#X obj 182 -262 t b a;
#X text 56 -374 carrega base customizada;
#X text 454 -429 carrega base 1;
#X text 445 -376 carrega base 2;
#X text 455 -327 carrega base 3;
#X text 335 -200 para a base;
#X obj 688 -273 outlet~;
#X obj 111 164 hradio 15 1 1 4 empty empty choose_base 0 -8 0 9 -262144
-1 -1 2;
#X obj 113 197 select 0 1 2 3;
#X obj 113 249 s bf-stop;
#X obj 178 251 s bf-load1;
#X obj 252 253 s bf-load2;
#X obj 325 251 s bf-load3;
#X obj 803 -14 r bf-load1;
#X obj 737 -58 r bf-load2;
#X obj 805 -57 r bf-load3;
#X obj 278 -453 r bf-load1;
#X obj 273 -398 r bf-load2;
#X obj 280 -347 r bf-load3;
#X obj 277 -223 r bf-stop;
#X obj 113 131 hsl 60 15 0 1 0 0 bf-volume empty volume -2 -8 0 9 -262144
-1 -1 2600 1;
#X obj 689 -329 *~;
#X obj 711 -357 r bf-volume;
#X obj 107 36 loadbang;
#X msg 106 59 1;
#X obj 803 -274 outlet;
#X text 602 -95 this part analysis the audio and finds onsets;
#X text 164 2 this is the GUI!;
#X text 684 -415 outlets for this object: audio and onsets;
#X obj 800 -325 r bf-onset;
#X obj 636 252 s bf-onset;
#X obj 240 -115 s bf-onset;
#X text 112 -477 loading the batidao from file and playing it;
#X obj 688 -386 r~ bf-base;
#X obj 147 -139 s~ bf-base;
#X obj 544 57 r~ bf-base;
#X connect 0 0 62 0;
#X connect 0 1 16 0;
#X connect 1 0 0 0;
#X connect 1 0 6 0;
#X connect 2 0 1 0;
#X connect 3 0 2 0;
#X connect 4 0 0 0;
#X connect 5 0 0 0;
#X connect 7 0 8 0;
#X connect 8 0 13 0;
#X connect 9 0 7 0;
#X connect 10 0 9 0;
#X connect 11 0 7 0;
#X connect 12 0 7 0;
#X connect 13 0 58 0;
#X connect 14 0 7 0;
#X connect 16 0 17 0;
#X connect 17 0 59 0;
#X connect 19 0 10 0;
#X connect 22 0 10 0;
#X connect 24 0 27 0;
#X connect 25 0 27 0;
#X connect 26 0 27 0;
#X connect 27 0 28 0;
#X connect 28 0 4 0;
#X connect 28 1 0 0;
#X connect 35 0 36 0;
#X connect 36 0 37 0;
#X connect 36 1 38 0;
#X connect 36 2 39 0;
#X connect 36 3 40 0;
#X connect 41 0 22 0;
#X connect 42 0 19 0;
#X connect 43 0 19 0;
#X connect 44 0 26 0;
#X connect 45 0 25 0;
#X connect 46 0 24 0;
#X connect 47 0 5 0;
#X connect 49 0 34 0;
#X connect 50 0 49 1;
#X connect 51 0 52 0;
#X connect 52 0 48 0;
#X connect 57 0 53 0;
#X connect 61 0 49 0;
#X connect 63 0 12 0;
#X coords 0 -1 1 1 80 85 1 100 100;
