#N canvas 815 23 667 841 10;
#X obj 264 387 autotune2~;
#X obj 252 724 dac~;
#X obj 172 2 base-funk;
#X obj 150 133 dac~;
#X obj 189 206 voice;
#X obj 389 241 scale-manager;
#N canvas 632 527 442 342 rvrb~ 0;
#X obj 10 257 freeverb~;
#X obj 115 42 loadbang;
#X obj -18 214 inlet~;
#X obj 106 130 vsl 17 40 0 1 0 0 empty empty dry 0 -9 0 9 -262144 -1
-1 3900 1;
#X obj 132 130 vsl 17 40 0 1 0 0 empty empty wet 0 -9 0 9 -262144 -1
-1 585 1;
#X msg 138 199 wet \$1;
#X msg 67 199 dry \$1;
#X obj 5 310 outlet~;
#X msg 149 86 0.15;
#X msg 66 86 0.9;
#X connect 0 0 7 0;
#X connect 1 0 8 0;
#X connect 1 0 9 0;
#X connect 2 0 0 0;
#X connect 3 0 6 0;
#X connect 4 0 5 0;
#X connect 5 0 0 0;
#X connect 6 0 0 0;
#X connect 8 0 4 0;
#X connect 9 0 3 0;
#X coords 0 -1 1 1 55 80 1 100 100;
#X restore 263 620 pd rvrb~;
#X floatatom 202 568 5 0 1 0 - - -;
#X obj 185 604 *~;
#X obj 201 520 loadbang;
#X msg 201 545 0.11;
#N canvas 171 64 1070 733 section 0;
#X obj 105 114 hradio 30 1 0 3 empty empty empty 0 -8 0 10 -262144
-1 -1 1;
#X text 108 144 a;
#X text 140 143 b;
#X text 162 144 impr.;
#X obj 463 122 inlet;
#N canvas 642 293 678 581 sectionA 0;
#X obj 280 47 inlet;
#X obj 273 200 mod 16;
#X obj 274 233 hradio 15 1 0 16 empty empty empty 0 -8 0 10 -262144
-1 -1 11;
#X obj 273 162 float;
#X obj 352 167 + 1;
#X msg 320 131 0;
#X floatatom 221 233 5 0 0 0 - - -;
#X obj 271 260 select 1 2 3 4 5 6 7 8 9 10 11 12 13 14 15;
#X msg 95 304 0;
#X msg 129 304 0;
#X msg 164 304 0;
#X msg 199 304 0;
#X msg 605 304 5;
#X msg 640 304 5;
#X msg 675 304 4;
#X msg 706 304 4;
#X floatatom 355 361 10 0 0 1 note - -;
#X obj 355 391 outlet;
#X msg 429 304 0;
#X msg 466 304 0;
#X msg 500 304 0;
#X msg 531 303 0;
#X obj 320 101 r bf-stop;
#X msg 332 304 0;
#X msg 366 304 0;
#X msg 262 304 0;
#X msg 296 304 0;
#X connect 0 0 3 0;
#X connect 1 0 2 0;
#X connect 1 0 6 0;
#X connect 2 0 7 0;
#X connect 3 0 4 0;
#X connect 3 0 1 0;
#X connect 4 0 3 1;
#X connect 5 0 3 1;
#X connect 7 0 8 0;
#X connect 7 1 9 0;
#X connect 7 2 10 0;
#X connect 7 3 11 0;
#X connect 7 4 25 0;
#X connect 7 5 26 0;
#X connect 7 6 23 0;
#X connect 7 7 24 0;
#X connect 7 8 18 0;
#X connect 7 9 19 0;
#X connect 7 10 20 0;
#X connect 7 11 21 0;
#X connect 7 12 12 0;
#X connect 7 13 13 0;
#X connect 7 14 14 0;
#X connect 7 15 15 0;
#X connect 8 0 16 0;
#X connect 9 0 16 0;
#X connect 10 0 16 0;
#X connect 11 0 16 0;
#X connect 12 0 16 0;
#X connect 13 0 16 0;
#X connect 14 0 16 0;
#X connect 15 0 16 0;
#X connect 16 0 17 0;
#X connect 18 0 16 0;
#X connect 19 0 16 0;
#X connect 20 0 16 0;
#X connect 21 0 16 0;
#X connect 22 0 5 0;
#X connect 23 0 16 0;
#X connect 24 0 16 0;
#X connect 25 0 16 0;
#X connect 26 0 16 0;
#X restore 470 263 pd sectionA;
#X obj 544 505 outlet;
#N canvas 188 120 802 573 sectionB 0;
#X obj 206 34 inlet;
#X obj 273 200 mod 16;
#X obj 274 232 hradio 15 1 0 16 empty empty empty 0 -8 0 10 -262144
-1 -1 11;
#X obj 273 162 float;
#X obj 352 167 + 1;
#X msg 320 131 0;
#X floatatom 221 233 5 0 0 0 - - -;
#X obj 271 260 select 1 2 3 4 5 6 7 8 9 10 11 12 13 14 15;
#X msg 640 304 5;
#X msg 675 304 4;
#X msg 706 304 4;
#X floatatom 355 361 10 0 0 1 note - -;
#X obj 355 391 outlet;
#X obj 320 101 r bf-stop;
#X msg 95 304 7;
#X obj 270 43 tgl 15 0 empty empty empty 17 7 0 10 -262144 -1 -1 1
1;
#X obj 275 93 bng 15 250 50 0 empty empty empty 17 7 0 10 -262144 -1
-1;
#X obj 271 64 metro 500;
#X msg 129 303 7;
#X msg 164 304 3;
#X msg 202 304 7;
#X msg 262 304 7;
#X msg 296 303 7;
#X msg 334 304 3;
#X msg 366 304 7;
#X msg 429 304 7;
#X msg 466 304 7;
#X msg 531 303 5;
#X msg 605 304 5;
#X msg 500 304 7;
#X connect 0 0 3 0;
#X connect 1 0 2 0;
#X connect 1 0 6 0;
#X connect 2 0 7 0;
#X connect 3 0 4 0;
#X connect 3 0 1 0;
#X connect 4 0 3 1;
#X connect 5 0 3 1;
#X connect 7 0 14 0;
#X connect 7 1 18 0;
#X connect 7 2 19 0;
#X connect 7 3 20 0;
#X connect 7 4 21 0;
#X connect 7 5 22 0;
#X connect 7 6 23 0;
#X connect 7 7 24 0;
#X connect 7 8 25 0;
#X connect 7 9 26 0;
#X connect 7 10 29 0;
#X connect 7 11 27 0;
#X connect 7 12 28 0;
#X connect 7 13 8 0;
#X connect 7 14 9 0;
#X connect 7 15 10 0;
#X connect 8 0 11 0;
#X connect 9 0 11 0;
#X connect 10 0 11 0;
#X connect 11 0 12 0;
#X connect 13 0 5 0;
#X connect 14 0 11 0;
#X connect 15 0 17 0;
#X connect 17 0 16 0;
#X connect 18 0 11 0;
#X connect 19 0 11 0;
#X connect 20 0 11 0;
#X connect 21 0 11 0;
#X connect 22 0 11 0;
#X connect 23 0 11 0;
#X connect 24 0 11 0;
#X connect 25 0 11 0;
#X connect 26 0 11 0;
#X connect 27 0 11 0;
#X connect 28 0 11 0;
#X connect 29 0 11 0;
#X restore 550 263 pd sectionB;
#X obj 359 135 inlet;
#X obj 361 263 float;
#X obj 101 254 select 0 1 2;
#X obj 793 196 hdial;
#X floatatom 176 204 5 0 0 0 - - -;
#X obj 458 352 spigot;
#X obj 555 352 spigot;
#X obj 350 353 spigot;
#X floatatom 385 325 5 0 0 0 - - -;
#X floatatom 594 324 5 0 0 0 - - -;
#X floatatom 500 330 5 0 0 0 - - -;
#X msg 98 296 1;
#X msg 96 316 0;
#X obj 98 211 s s-seciton;
#X msg 134 289 1;
#X msg 132 309 0;
#X msg 169 288 1;
#X msg 167 308 0;
#X obj 342 501 outlet;
#X floatatom 581 433 5 0 0 0 - - -;
#X floatatom 510 408 5 0 0 0 - - -;
#X connect 0 0 12 0;
#X connect 0 0 21 0;
#X connect 0 0 10 0;
#X connect 4 0 7 0;
#X connect 4 0 5 0;
#X connect 5 0 13 0;
#X connect 7 0 14 0;
#X connect 8 0 9 0;
#X connect 9 0 15 0;
#X connect 10 0 19 0;
#X connect 10 0 20 0;
#X connect 10 1 22 0;
#X connect 10 1 23 0;
#X connect 10 2 24 0;
#X connect 10 2 25 0;
#X connect 13 0 6 0;
#X connect 13 0 28 0;
#X connect 14 0 6 0;
#X connect 14 0 27 0;
#X connect 15 0 26 0;
#X connect 16 0 15 1;
#X connect 17 0 14 1;
#X connect 18 0 13 1;
#X connect 19 0 18 0;
#X connect 20 0 17 0;
#X connect 20 0 16 0;
#X connect 22 0 17 0;
#X connect 23 0 18 0;
#X connect 23 0 16 0;
#X connect 24 0 16 0;
#X connect 25 0 18 0;
#X connect 25 0 17 0;
#X coords 0 -1 1 1 100 60 1 100 100;
#X restore 391 128 pd section;
#X floatatom 403 153 5 0 0 0 - - -;
#X connect 0 0 6 0;
#X connect 2 0 3 0;
#X connect 2 0 3 1;
#X connect 2 1 11 0;
#X connect 2 1 4 0;
#X connect 2 2 11 1;
#X connect 4 0 0 0;
#X connect 4 0 8 0;
#X connect 5 0 0 1;
#X connect 6 0 1 0;
#X connect 6 0 1 1;
#X connect 7 0 8 1;
#X connect 8 0 6 0;
#X connect 9 0 10 0;
#X connect 10 0 7 0;
#X connect 11 0 5 0;
#X connect 11 1 5 1;
