#N canvas 289 32 1069 788 10;
#X obj 401 388 autotune2~;
#X obj 396 670 dac~;
#X obj 281 39 base-funk;
#X obj 353 167 tgl 15 0 empty empty empty 17 7 0 10 -262144 -1 -1 0
1;
#X obj 275 168 dac~;
#X obj 351 208 voice;
#X obj 543 213 scale-manager;
#X floatatom 545 290 5 0 0 0 - - -;
#N canvas 632 527 442 342 rvrb~ 0;
#X obj 10 257 freeverb~;
#X obj 115 42 loadbang;
#X obj -18 214 inlet~;
#X obj 106 130 vsl 17 40 0 1 0 0 empty empty dry 0 -9 0 9 -262144 -1
-1 3300 1;
#X obj 132 130 vsl 17 40 0 1 0 0 empty empty wet 0 -9 0 9 -262144 -1
-1 400 1;
#X msg 138 199 wet \$1;
#X msg 67 199 dry \$1;
#X obj 5 310 outlet~;
#X msg 149 86 0.15;
#X msg 66 86 0.9;
#X connect 0 0 7 0;
#X connect 1 0 8 0;
#X connect 1 0 9 0;
#X connect 2 0 0 0;
#X connect 3 0 6 0;
#X connect 4 0 5 0;
#X connect 5 0 0 0;
#X connect 6 0 0 0;
#X connect 8 0 4 0;
#X connect 9 0 3 0;
#X coords 0 -1 1 1 55 80 1 100 100;
#X restore 397 574 pd rvrb~;
#X text 590 297 what note the target is going to sing?;
#X connect 0 0 8 0;
#X connect 2 0 4 0;
#X connect 2 0 4 1;
#X connect 2 1 3 0;
#X connect 3 0 6 0;
#X connect 5 0 0 0;
#X connect 6 0 7 0;
#X connect 7 0 0 1;
#X connect 8 0 1 0;
#X connect 8 0 1 1;
