#N canvas 467 67 776 782 10;
#X obj 155 310 soundfiler;
#X floatatom 217 351 0 0 0 0 - - -;
#N canvas 324 218 549 309 (subpatch) 0;
#X array sf-array2 3.37935e+06 float 0;
#X coords 0 1 3.37935e+06 -1 60 30 2 0 0;
#X restore 116 178 graph;
#X obj 155 233 openpanel;
#X obj 112 120 bng 15 250 50 0 empty empty open_panel 17 7 0 9 -262144
-1 -1;
#X obj 162 406 expr 44100 / $f1;
#X obj 169 586 phasor~;
#X obj 169 629 *~;
#X obj 167 662 tabread4~ sf-array2;
#X msg 161 270 read -resize \$1 sf-array2;
#X floatatom 192 487 5 0 0 0 - - -;
#X text 232 487 readrate;
#X floatatom 62 518 10 0 0.05 0 - - -;
#X msg 400 247 play;
#X msg 404 325 stop;
#X msg 404 350 0;
#X obj 403 269 bng 15 250 50 0 empty empty empty 17 7 0 10 -262144
-1 -1;
#X obj 399 473 hsl 128 15 0 1 0 0 empty empty empty -2 -8 0 10 -262144
-1 -1 0 1;
#X obj 400 426 bng 15 250 50 0 empty empty empty 17 7 0 10 -262144
-1 -1;
#X obj 112 141 tgl 15 0 empty empty play/stop 17 7 0 9 -262144 -1 -1
1 1;
#X obj 390 212 metro 50;
#X text 423 186 togles and disables sound;
#X msg 406 448 0.55;
#X obj 638 316 outlet~;
#N canvas 572 23 807 838 check-end-of-words 0;
#X floatatom 186 -5641 0 0 0 0 - - -;
#X obj 101 -5681 fiddle~ 1024 1 20 3;
#X text 186 -5619 amplitude;
#X obj 96 -5747 inlet~;
#X msg 181 -5430 0;
#X obj 184 -5507 select 1;
#X obj 184 -5535 change;
#X text 226 -5578 here's the threshhold for the pause;
#X obj 258 -5498 bng 15 250 50 0 empty empty empty 17 7 0 10 -262144
-1 -1;
#X obj 186 -5578 < 50;
#X obj 195 -5474 s vc-speech-pause;
#X obj 177 -5400 s vc-readrate;
#X connect 0 0 9 0;
#X connect 1 3 0 0;
#X connect 3 0 1 0;
#X connect 4 0 11 0;
#X connect 5 0 4 0;
#X connect 5 0 10 0;
#X connect 6 0 5 0;
#X connect 8 0 10 0;
#X connect 9 0 6 0;
#X restore 512 678 pd check-end-of-words;
#X obj 158 74 inlet;
#X obj 165 694 s~ vc-voice;
#X obj 639 276 r~ vc-voice;
#X obj 402 289 s vc-original-spped;
#X obj 400 496 s vc-position;
#X obj 403 370 s vc-readrate;
#X obj 220 382 s vc-sampleSize;
#X obj 190 448 r vc-original-spped;
#X obj 63 482 r vc-readrate;
#X obj 192 510 s vc-readrate;
#X obj 214 550 r vc-position;
#X obj 239 590 r vc-sampleSize;
#X obj 512 646 r~ vc-voice;
#X text 282 114 a more advanced wave player with speed \, play/pause
\, and position control;
#X connect 0 0 1 0;
#X connect 0 0 5 0;
#X connect 1 0 31 0;
#X connect 3 0 9 0;
#X connect 4 0 3 0;
#X connect 5 0 6 0;
#X connect 5 0 10 0;
#X connect 6 0 7 0;
#X connect 7 0 8 0;
#X connect 8 0 26 0;
#X connect 9 0 0 0;
#X connect 10 0 34 0;
#X connect 12 0 6 0;
#X connect 13 0 16 0;
#X connect 14 0 15 0;
#X connect 15 0 30 0;
#X connect 16 0 28 0;
#X connect 17 0 29 0;
#X connect 18 0 22 0;
#X connect 19 0 20 0;
#X connect 20 0 13 0;
#X connect 22 0 29 0;
#X connect 25 0 19 0;
#X connect 27 0 23 0;
#X connect 32 0 10 0;
#X connect 33 0 12 0;
#X connect 35 0 6 1;
#X connect 36 0 7 1;
#X connect 37 0 24 0;
#X coords 0 -1 1 1 90 120 1 100 100;
