#N canvas 716 224 671 530 10;
#X msg 500 369 jeraman - 2015;
#X floatatom 329 142 5 0 0 0 - - -;
#X floatatom 450 143 5 0 0 0 - - -;
#X text 487 141 velocity;
#X text 367 140 melody pitch;
#X obj 328 65 midi-melody-follower;
#X obj 231 412 dac~;
#X text 365 197 ajustando com o tom da voz da pessoa;
#X obj 225 248 autotune2~;
#X obj 182 157 adc~;
#X floatatom 320 224 5 0 0 0 - - -;
#X obj 297 176 - 24;
#X connect 1 0 11 0;
#X connect 5 0 1 0;
#X connect 5 1 2 0;
#X connect 8 0 6 0;
#X connect 8 0 6 1;
#X connect 9 0 8 0;
#X connect 11 0 8 1;
#X connect 11 0 10 0;
