#N canvas 308 105 1014 870 10;
#X obj 170 251 bng 15 250 50 0 empty empty empty 17 7 0 10 -262144
-1 -1;
#X msg 171 271 read;
#X obj 337 333 seq;
#X obj 453 366 midiparse;
#X obj 544 469 unpack;
#X obj 544 500 stripnote;
#X msg 358 292 pause;
#X msg 399 292 stop;
#X obj 318 293 bng 15 250 50 0 empty empty empty 17 7 0 10 -262144
-1 -1;
#X obj 58 211 inlet;
#X obj 446 71 inlet;
#X text 54 184 load MIDI;
#X text 446 44 command (play/pause/stop);
#X msg 316 274 play;
#X obj 443 104 route play pause stop;
#X obj 103 126 bng 30 250 50 0 empty empty open 0 -5 0 9 -262144 -1
-1;
#X obj 138 124 bng 15 250 50 0 empty empty play 20 7 0 9 -262144 -1
-1;
#X obj 138 142 bng 15 250 50 0 empty empty stop 20 7 0 9 -262144 -1
-1;
#X msg 60 316 read \$1;
#X text 654 614 velocity;
#X obj 329 399 midiout;
#X text 467 614 MIDI note;
#X text 562 434 select channel 4;
#X obj 509 431 gate 5;
#X obj 533 614 outlet;
#X obj 613 614 outlet;
#X connect 0 0 1 0;
#X connect 1 0 2 0;
#X connect 2 0 20 0;
#X connect 2 0 3 0;
#X connect 3 0 23 1;
#X connect 3 6 23 0;
#X connect 4 0 5 0;
#X connect 4 1 5 1;
#X connect 5 0 24 0;
#X connect 5 1 25 0;
#X connect 6 0 2 0;
#X connect 7 0 2 0;
#X connect 8 0 2 0;
#X connect 9 0 18 0;
#X connect 10 0 14 0;
#X connect 13 0 8 0;
#X connect 14 0 13 0;
#X connect 14 1 6 0;
#X connect 14 2 7 0;
#X connect 14 3 2 0;
#X connect 15 0 0 0;
#X connect 16 0 13 0;
#X connect 17 0 7 0;
#X connect 18 0 2 0;
#X connect 23 3 4 0;
#X coords 0 -1 1 1 80 60 1 100 100;
