#N canvas 31 28 1394 783 10;
#X obj 147 -177 readsf~;
#X msg 66 -273 open \$1;
#X obj 62 -313 openpanel;
#X obj 64 -341 bng 15 250 50 0 empty empty empty 17 7 0 10 -262144
-1 -1;
#X msg 146 -237 start;
#X msg 276 -198 stop;
#X obj 101 -189 print;
#X obj 631 169 bonk~;
#X obj 632 198 bng 15 250 50 0 empty empty empty 17 7 0 10 -262144
-1 -1;
#X msg 737 93 minvel \$1;
#X msg 645 28 mask 4 0.9;
#X obj 544 89 lop~ 10;
#X obj 634 223 tgl 15 0 empty empty empty 17 7 0 10 -262144 -1 -1 1
1;
#X msg 619 -8 thresh 5 15;
#X text 657 223 gives rhythm to the voice;
#X msg 740 -29 26;
#X text 783 49 threshhold for rhythm;
#X text 877 -55 base 2 e 3;
#X msg 763 11 17;
#X text 877 -15 base 1;
#X msg 279 -324 s ../audiodata/base3.wav;
#X msg 273 -375 s ../audiodata/base2.wav;
#X msg 278 -428 s ../audiodata/base1.wav;
#X msg 183 -287 open \$1;
#X obj 182 -262 t b a;
#X text 56 -374 carrega base customizada;
#X text 454 -429 carrega base 1;
#X text 445 -376 carrega base 2;
#X text 455 -327 carrega base 3;
#X text 335 -200 para a base;
#X obj 688 -273 outlet~;
#X obj 111 164 hradio 15 1 1 4 empty empty choose_base 0 -8 0 9 -262144
-1 -1 1;
#X obj 113 197 select 0 1 2 3;
#X obj 113 249 s bf-stop;
#X obj 178 251 s bf-load1;
#X obj 252 253 s bf-load2;
#X obj 325 251 s bf-load3;
#X obj 803 -14 r bf-load1;
#X obj 737 -58 r bf-load2;
#X obj 805 -57 r bf-load3;
#X obj 278 -453 r bf-load1;
#X obj 273 -398 r bf-load2;
#X obj 280 -347 r bf-load3;
#X obj 277 -223 r bf-stop;
#X obj 113 131 hsl 60 15 0 1 0 0 bf-volume empty volume -2 -8 0 9 -262144
-1 -1 1550 1;
#X obj 689 -329 *~;
#X obj 711 -357 r bf-volume;
#X obj 107 36 loadbang;
#X obj 803 -274 outlet;
#X text 602 -95 this part analysis the audio and finds onsets;
#X text 164 2 this is the GUI!;
#X text 684 -415 outlets for this object: audio and onsets;
#X obj 800 -325 r bf-onset;
#X obj 636 252 s bf-onset;
#X text 112 -477 loading the batidao from file and playing it;
#X obj 688 -386 r~ bf-base;
#X obj 147 -139 s~ bf-base;
#X obj 544 57 r~ bf-base;
#X obj 1033 136 tgl 15 0 empty empty empty 17 7 0 10 -262144 -1 -1
1 1;
#X obj 1032 160 metro 1000;
#X obj 1090 35 / 60;
#X obj 1095 108 /;
#X msg 1079 88 1000;
#X obj 1092 66 t b f;
#X msg 1025 -22 127.97;
#X text 1030 -42 beat 1;
#X text 1099 -43 beat 2;
#X msg 1092 -21 130.04;
#X text 1156 -42 beat 3;
#X msg 1147 -21 130.5;
#X obj 929 -321 r bf-beat;
#X obj 933 -277 outlet;
#X obj 1036 210 s bf-beat;
#X text 1006 -105 base 1;
#X obj 1012 -84 r bf-load1;
#X obj 1156 -84 r bf-load3;
#X obj 1083 -86 r bf-load2;
#X text 977 20 para a base;
#X obj 982 41 r bf-stop;
#X msg 981 66 0;
#X obj 1027 92 delay 1;
#X msg 1032 111 1;
#X obj 169 74 bng 8 250 50 0 empty bf-beat bpm -6 12 0 8 -258113 -1
-1;
#X text 1099 -371 base 1;
#X obj 1105 -350 r bf-load1;
#X obj 1249 -350 r bf-load3;
#X obj 1176 -350 r bf-load2;
#X obj 1103 -302 s bf-loaded;
#X text 1077 -107 base 2;
#X text 1150 -105 base 3;
#X text 1173 -371 base 2;
#X text 1247 -371 base 3;
#X msg 106 59 0.5;
#X obj 180 32 r bf-set-volume;
#X text 1082 -403 sends message whenever there is a load;
#X obj 1123 193 s bf-measure-time;
#X obj 1117 165 * 8;
#X obj 211 154 bng 15 250 50 0 empty empty empty 17 7 0 10 -262144
-1 -1;
#X obj 279 -146 s bf-reload;
#X obj 211 119 r bf-reload;
#X obj 267 -169 bng 15 250 50 0 empty empty empty 17 7 0 10 -262144
-1 -1;
#X connect 0 0 56 0;
#X connect 0 1 98 0;
#X connect 1 0 0 0;
#X connect 1 0 6 0;
#X connect 2 0 1 0;
#X connect 3 0 2 0;
#X connect 4 0 0 0;
#X connect 5 0 0 0;
#X connect 7 0 8 0;
#X connect 8 0 12 0;
#X connect 9 0 7 0;
#X connect 10 0 7 0;
#X connect 11 0 7 0;
#X connect 12 0 53 0;
#X connect 13 0 7 0;
#X connect 15 0 9 0;
#X connect 18 0 9 0;
#X connect 20 0 23 0;
#X connect 21 0 23 0;
#X connect 22 0 23 0;
#X connect 23 0 24 0;
#X connect 24 0 4 0;
#X connect 24 1 0 0;
#X connect 31 0 32 0;
#X connect 32 0 33 0;
#X connect 32 1 34 0;
#X connect 32 2 35 0;
#X connect 32 3 36 0;
#X connect 37 0 18 0;
#X connect 38 0 15 0;
#X connect 39 0 15 0;
#X connect 40 0 22 0;
#X connect 41 0 21 0;
#X connect 42 0 20 0;
#X connect 43 0 5 0;
#X connect 45 0 30 0;
#X connect 46 0 45 1;
#X connect 47 0 92 0;
#X connect 52 0 48 0;
#X connect 55 0 45 0;
#X connect 57 0 11 0;
#X connect 58 0 59 0;
#X connect 59 0 72 0;
#X connect 60 0 63 0;
#X connect 61 0 59 1;
#X connect 61 0 96 0;
#X connect 62 0 61 0;
#X connect 63 0 62 0;
#X connect 63 0 80 0;
#X connect 63 1 61 1;
#X connect 64 0 60 0;
#X connect 67 0 60 0;
#X connect 69 0 60 0;
#X connect 70 0 71 0;
#X connect 74 0 64 0;
#X connect 75 0 69 0;
#X connect 76 0 67 0;
#X connect 78 0 79 0;
#X connect 79 0 58 0;
#X connect 80 0 81 0;
#X connect 81 0 58 0;
#X connect 84 0 87 0;
#X connect 85 0 87 0;
#X connect 86 0 87 0;
#X connect 92 0 44 0;
#X connect 93 0 44 0;
#X connect 96 0 95 0;
#X connect 97 0 31 0;
#X connect 99 0 97 0;
#X connect 100 0 98 0;
#X coords 0 -1 1 1 80 85 1 100 100;
