#N canvas 2350 98 608 753 10;
#X obj 168 404 autotune2~;
#X obj 147 696 dac~;
#X obj 316 34 base-funk;
#X obj 296 165 dac~;
#X obj 353 298 scale-manager;
#N canvas 632 527 442 342 rvrb~ 0;
#X obj 10 257 freeverb~;
#X obj 115 42 loadbang;
#X obj -18 214 inlet~;
#X obj 106 130 vsl 17 40 0 1 0 0 empty empty dry 0 -9 0 9 -262144 -1
-1 3900 1;
#X obj 132 130 vsl 17 40 0 1 0 0 empty empty wet 0 -9 0 9 -262144 -1
-1 585 1;
#X msg 138 199 wet \$1;
#X msg 67 199 dry \$1;
#X obj 5 310 outlet~;
#X msg 66 86 1;
#X obj 225 55 r rvrb-set-wet;
#X msg 149 86 0.09;
#X connect 0 0 7 0;
#X connect 1 0 10 0;
#X connect 1 0 8 0;
#X connect 2 0 0 0;
#X connect 3 0 6 0;
#X connect 4 0 5 0;
#X connect 5 0 0 0;
#X connect 6 0 0 0;
#X connect 8 0 3 0;
#X connect 9 0 4 0;
#X connect 10 0 4 0;
#X coords 0 -1 1 1 55 80 1 100 100;
#X restore 168 577 pd rvrb~;
#X floatatom 107 525 5 0 1 0 - - -;
#X obj 90 561 *~;
#X obj 106 477 loadbang;
#X obj 387 383 r last-measure-before-restart;
#N canvas 709 368 651 448 prep 0;
#X obj 89 47 inlet;
#X msg 93 136 0;
#X obj 96 195 s bf-set-volume;
#X obj 89 74 tgl 15 0 empty empty empty 17 7 0 10 -262144 -1 -1 0 1
;
#X obj 92 98 select 1 0;
#X msg 162 123 0.5;
#X floatatom 299 335 5 0 0 0 - - -;
#X obj 285 288 line 1000;
#X obj 344 129 r bf-measure-time;
#X obj 281 204 f;
#X obj 267 172 bng 15 250 50 0 empty empty empty 17 7 0 10 -262144
-1 -1;
#X obj 332 173 bng 15 250 50 0 empty empty empty 17 7 0 10 -262144
-1 -1;
#X obj 338 202 f;
#X obj 444 183 loadbang;
#X obj 507 185 r bf-stop;
#X msg 334 245 0.15 \$1;
#X obj 294 381 s rvrb-set-wet;
#X msg 447 226 0.15 0;
#X obj 48 215 bng 15 250 50 0 empty empty empty 17 7 0 10 -262144 -1
-1;
#X msg 283 245 0.8 \$1;
#X connect 0 0 3 0;
#X connect 1 0 10 0;
#X connect 3 0 4 0;
#X connect 4 0 1 0;
#X connect 4 1 5 0;
#X connect 5 0 11 0;
#X connect 5 0 2 0;
#X connect 6 0 16 0;
#X connect 7 0 6 0;
#X connect 8 0 9 1;
#X connect 8 0 12 1;
#X connect 9 0 19 0;
#X connect 10 0 9 0;
#X connect 11 0 12 0;
#X connect 12 0 15 0;
#X connect 13 0 17 0;
#X connect 14 0 17 0;
#X connect 15 0 7 0;
#X connect 17 0 7 0;
#X connect 19 0 7 0;
#X restore 387 417 pd prep;
#X text 454 614 PROJETO PROIBIDAO;
#X obj 122 668 *~ 0.2;
#X obj 317 137 *~ 0.2;
#X text 472 632 experimento#03;
#X obj 93 223 av-control;
#X obj 353 179 section;
#X msg 106 502 0.05;
#X text 349 649 Romero Juca sobre os audios vazados;
#X connect 0 0 5 0;
#X connect 2 0 3 0;
#X connect 2 0 13 0;
#X connect 2 1 16 0;
#X connect 2 1 15 0;
#X connect 2 2 16 1;
#X connect 4 0 0 1;
#X connect 5 0 1 1;
#X connect 5 0 12 0;
#X connect 6 0 7 1;
#X connect 7 0 5 0;
#X connect 8 0 17 0;
#X connect 9 0 10 0;
#X connect 12 0 1 0;
#X connect 13 0 3 1;
#X connect 15 0 0 0;
#X connect 15 0 7 0;
#X connect 16 0 4 0;
#X connect 16 1 4 1;
#X connect 17 0 6 0;
