#N canvas 606 23 799 819 10;
#X declare -lib iemlib;
#X declare -lib Gem;
#X obj 26 10 cnv 15 480 60 empty empty Abstraction 20 30 0 20 -262130
-99865 0;
#X obj 49 426 vline~;
#X obj 49 631 soundfiler;
#X obj 49 694 / 48;
#X obj 49 652 t f f;
#N canvas 0 22 450 300 sample 0;
#N canvas 0 22 450 300 (subpatch) 0;
#X array \$0-soundfile 1.86778e+06 float 2;
#X coords 0 1 1.86778e+06 -1 200 140 1;
#X restore 17 27 graph;
#X restore 53 141 pd sample;
#X obj 282 683 pix_texture;
#X obj 281 409 gemhead;
#X msg 448 447 open \$1;
#X obj 448 493 unpack f f f;
#X obj 308 544 *;
#X obj 308 456 snapshot~;
#X obj 281 431 t a b;
#X obj 308 500 /;
#X obj 308 583 int;
#X obj 308 605 change;
#X text 53 121 Audio;
#X text 285 123 Video;
#X text 114 143 Storage for the sample;
#X text 500 134 Storage for the video;
#X obj 521 521 cnv 15 45 110 empty empty empty 20 12 0 14 -261234 -66577
0;
#X obj 524 527 /;
#X obj 524 604 *;
#X obj 524 548 t b f;
#X msg 90 383 1 \, 1.86778e+06 38912 \;;
#N canvas 762 22 450 300 laden 0;
#X obj 20 166 outlet;
#X obj 20 69 pack f f;
#X obj 20 92 trigger list bang bang;
#X msg 149 129 set 1;
#X msg 84 129 addcomma;
#X msg 20 128 add \$2 \$1;
#X obj 20 19 r \$0-miliseconds;
#X obj 65 44 r \$0-samples;
#X connect 1 0 2 0;
#X connect 2 0 5 0;
#X connect 2 1 4 0;
#X connect 2 2 3 0;
#X connect 3 0 0 0;
#X connect 4 0 0 0;
#X connect 5 0 0 0;
#X connect 6 0 1 0;
#X connect 7 0 1 1;
#X restore 103 356 pd laden;
#X obj 76 674 s \$0-samples;
#X obj 49 714 s \$0-miliseconds;
#X obj 49 452 tabread4~ \$0-soundfile;
#X obj 448 470 pix_buffer_filmopen \$0-speicher;
#X obj 282 632 pix_buffer_read \$0-speicher;
#X obj 323 477 r \$0-samples;
#X obj 323 522 r \$0-frames;
#X obj 49 546 t a b;
#X obj 76 566 symbol \$0-soundfile;
#X obj 49 589 pack s s;
#X msg 49 610 read -resize \$1 \$2;
#X text 501 147 maximum 800 frames in this case;
#X obj 448 527 s \$0-frames;
#X text 447 379 loading the video into the buffer;
#X obj 52 295 splitfilename .;
#X obj 448 425 makefilename %s.mov;
#X text 154 295 this is part of the iemlib external;
#X text 566 547 this adjusts the rectangle;
#X text 578 560 dimensions to fit to the;
#X text 572 573 aspect ratio of the video;
#X obj 448 403 r \$0-filename;
#X obj 49 504 r \$0-filename;
#X obj 52 316 s \$0-filename;
#N canvas 0 22 177 189 init 0;
#X obj -67 -41 declare -lib iemlib;
#X obj -66 -21 declare -lib Gem;
#X obj -66 2 loadbang;
#X msg -66 24 \; pd dsp 1;
#X connect 2 0 3 0;
#X restore 518 25 pd init;
#X obj 63 245 loadbang;
#X obj 52 269 symbol \$1;
#X obj 53 168 inlet;
#X obj 49 476 outlet~;
#X obj 159 713 outlet;
#X text 45 82 this patch is used by 07b-abstraction.pd;
#X obj 53 191 route open bang;
#X obj 308 563 + 0.5;
#X obj 282 657 translateXYZ \$2 \$3 \$4;
#X text 49 743 Max Neupert - Bauhaus-Universität Weimar 2012;
#X obj 49 525 makefilename %s.wav;
#X msg 281 360 1;
#X obj 281 382 tgl 15 0 empty empty empty 17 7 0 10 -262144 -1 -1 1
1;
#X obj 281 334 loadbang;
#X msg 524 570 3;
#X obj 282 709 rectangle 4 3;
#X obj 287 144 pix_buffer \$0-speicher 800;
#X connect 1 0 11 0;
#X connect 1 0 28 0;
#X connect 2 0 4 0;
#X connect 3 0 27 0;
#X connect 4 0 3 0;
#X connect 4 1 26 0;
#X connect 4 1 54 0;
#X connect 6 0 65 0;
#X connect 7 0 12 0;
#X connect 8 0 29 0;
#X connect 9 0 38 0;
#X connect 9 1 21 0;
#X connect 9 2 21 1;
#X connect 10 0 57 0;
#X connect 11 0 13 0;
#X connect 12 0 30 0;
#X connect 12 1 11 0;
#X connect 13 0 10 0;
#X connect 14 0 15 0;
#X connect 15 0 30 1;
#X connect 21 0 23 0;
#X connect 22 0 65 1;
#X connect 23 0 64 0;
#X connect 23 1 22 1;
#X connect 24 0 1 0;
#X connect 25 0 24 0;
#X connect 28 0 53 0;
#X connect 29 0 9 0;
#X connect 30 0 58 0;
#X connect 31 0 13 1;
#X connect 32 0 10 1;
#X connect 33 0 35 0;
#X connect 33 1 34 0;
#X connect 34 0 35 1;
#X connect 35 0 36 0;
#X connect 36 0 2 0;
#X connect 40 0 48 0;
#X connect 41 0 8 0;
#X connect 46 0 41 0;
#X connect 47 0 60 0;
#X connect 50 0 51 0;
#X connect 51 0 40 0;
#X connect 52 0 56 0;
#X connect 56 0 51 0;
#X connect 56 1 24 0;
#X connect 56 2 1 0;
#X connect 57 0 14 0;
#X connect 58 0 6 0;
#X connect 60 0 33 0;
#X connect 61 0 62 0;
#X connect 62 0 7 0;
#X connect 63 0 61 0;
#X connect 64 0 22 0;
#X connect 64 0 65 2;
