#N canvas 949 113 358 436 10;
#X obj 35 236 dac~;
#X obj 35 179 adc~;
#X obj 108 77 gemhead;
#X obj 111 330 pix_texture;
#X obj 116 268 pix_video;
#X msg 182 133 device 1;
#N canvas 162 133 570 420 serin 0;
#X obj 205 60 cnv 20 20 20 empty \$0-open-canvas 1 4 10 0 16 -233017
-1 0;
#X obj 60 61 hradio 18 1 1 8 empty empty empty 0 -6 0 8 -225271 -1
-1 1;
#X obj 60 13 inlet;
#X msg 200 202 label \$1;
#X obj 200 180 makefilename %d;
#X obj 59 108 int;
#X obj 59 337 outlet;
#X msg 201 306 set \$1 \$2;
#X obj 59 266 trigger bang anything;
#X obj 201 286 list;
#X obj 200 225 send \$0-open-canvas;
#X msg 60 210 device \$1;
#X connect 1 0 5 0;
#X connect 2 0 1 0;
#X connect 3 0 10 0;
#X connect 4 0 3 0;
#X connect 5 0 4 0;
#X connect 5 0 11 0;
#X connect 7 0 6 0;
#X connect 8 0 6 0;
#X connect 8 1 9 0;
#X connect 9 0 7 0;
#X connect 11 0 8 0;
#X coords 0 -1 1 1 165 20 1 60 60;
#X restore 182 109 pd serin;
#N canvas 638 199 682 322 gemwin 0;
#X obj 102 122 tgl 15 0 \$0-gemstart \$0-gemstart empty 17 7 0 10 -262144
-1 -1 1 1;
#X obj 102 161 r \$0-gemstart;
#X obj 102 182 select 1 0;
#X msg 102 214 create \, 1;
#X msg 177 215 destroy;
#X obj 102 239 t a;
#X obj 80 43 inlet;
#X obj 318 255 gemwin;
#X obj 318 100 t a a;
#X obj 318 287 outlet;
#X obj 350 128 route create destroy;
#X obj 350 150 t b;
#X msg 350 172 1;
#X obj 390 150 t b;
#X msg 390 172 0;
#X obj 350 195 t f;
#X msg 350 219 set \$1;
#X text 118 122 rendering;
#X msg 240 217 fullscreen \$1;
#X obj 103 141 tgl 15 0 empty empty empty 17 7 0 10 -262144 -1 -1 0
1;
#X text 119 141 fullscreen;
#X obj 125 -11 key;
#X msg 215 127 dimen 850 480;
#X obj 165 103 bng 15 250 50 0 empty empty empty 17 7 0 10 -262144
-1 -1;
#X obj 148 38 delay 10;
#X msg 148 58 1;
#X obj 153 79 s esc-start;
#X obj 251 21 loadbang;
#X obj 124 12 select 32;
#X connect 1 0 2 0;
#X connect 2 0 3 0;
#X connect 2 1 4 0;
#X connect 3 0 5 0;
#X connect 4 0 5 0;
#X connect 5 0 8 0;
#X connect 6 0 0 0;
#X connect 7 0 9 0;
#X connect 8 0 7 0;
#X connect 8 1 10 0;
#X connect 10 0 11 0;
#X connect 10 1 13 0;
#X connect 11 0 12 0;
#X connect 12 0 15 0;
#X connect 13 0 14 0;
#X connect 14 0 15 0;
#X connect 15 0 16 0;
#X connect 16 0 0 0;
#X connect 18 0 7 0;
#X connect 19 0 18 0;
#X connect 21 0 28 0;
#X connect 22 0 7 0;
#X connect 23 0 22 0;
#X connect 24 0 25 0;
#X connect 25 0 26 0;
#X connect 27 0 22 0;
#X coords 0 -1 1 1 85 60 1 100 100;
#X restore 576 104 pd gemwin;
#X obj 197 76 r esc-start;
#X obj 116 361 rectangle 7 4;
#X floatatom 195 284 5 0 0 0 - - -;
#X obj 185 239 loadbang;
#X obj 422 -32 loadbang;
#X obj 422 -7 delay 100;
#X msg 285 32 \; pd dsp 1 \;;
#X msg 313 78 1;
#X obj 386 61 delay 100;
#X obj 449 42 s \$0-gemstart;
#X obj 423 14 t b b;
#X obj 111 300 pix_delay;
#X msg 189 261 18;
#X obj 441 324 color 0 0 0;
#X obj 580 205 loadbang;
#X msg 642 318 font font.ttf;
#X obj 442 361 text2d;
#X floatatom 643 368 5 0 0 0 - - -;
#X obj 581 227 t b b b b;
#X floatatom 378 174 5 0 0 0 - - -;
#X obj 251 192 spigot;
#X obj 282 165 tgl 15 0 empty empty empty 17 7 0 10 -262144 -1 -1 0
1;
#X obj 267 307 color 0.93 0.956 0.92;
#X msg 639 260 text CLINTON: "IT'S TOO MUCH. I QUIT.";
#X msg 644 287 justify right;
#X floatatom 479 223 5 0 0 0 - - -;
#X msg 482 257 \$1 0.5 0;
#X msg 645 346 38;
#X obj 266 342 rectangle 5.7 0.54;
#X obj 269 240 translate 0.1 -7.3 -26.9 0;
#X msg 381 208 \$1 -26.9 0;
#X obj 436 296 translate 0.1 34 0.5 0;
#X connect 1 0 0 0;
#X connect 1 1 0 1;
#X connect 2 0 4 0;
#X connect 2 0 28 0;
#X connect 3 0 9 0;
#X connect 4 0 19 0;
#X connect 5 0 4 0;
#X connect 6 0 5 0;
#X connect 8 0 6 0;
#X connect 10 0 19 1;
#X connect 11 0 20 0;
#X connect 12 0 13 0;
#X connect 13 0 18 0;
#X connect 15 0 6 0;
#X connect 16 0 15 0;
#X connect 18 0 14 0;
#X connect 18 1 17 0;
#X connect 18 1 16 0;
#X connect 19 0 3 0;
#X connect 20 0 10 0;
#X connect 21 0 24 0;
#X connect 22 0 26 0;
#X connect 23 0 24 0;
#X connect 25 0 24 1;
#X connect 26 0 35 0;
#X connect 26 1 23 0;
#X connect 26 2 32 0;
#X connect 26 3 31 0;
#X connect 27 0 38 0;
#X connect 28 0 37 0;
#X connect 29 0 28 1;
#X connect 30 0 36 0;
#X connect 31 0 24 0;
#X connect 32 0 24 0;
#X connect 33 0 34 0;
#X connect 34 0 39 2;
#X connect 35 0 25 0;
#X connect 37 0 30 0;
#X connect 37 0 39 0;
#X connect 38 0 37 2;
#X connect 39 0 21 0;
