#N canvas 555 23 796 509 10;
#X obj 203 124 readsf~;
#X msg 159 73 open \$1;
#X obj 159 41 openpanel;
#X obj 157 5 bng 15 250 50 0 empty empty empty 17 7 0 10 -262144 -1
-1;
#X msg 265 71 start;
#X msg 268 97 stop;
#X obj 151 133 print;
#X obj 206 172 *~ 2;
#X obj 199 258 s~ voice;
#X obj 409 173 autotune2~;
#X obj 410 133 r~ voice;
#X floatatom 477 142 5 0 0 0 - - -;
#X obj 472 79 loadbang;
#X msg 477 112 30;
#X msg 512 111 54;
#X obj 409 393 dac~;
#X obj 396 347 freeverb~;
#X msg 472 305 wet 0.15;
#X msg 472 331 dry 0.9;
#X obj 464 276 loadbang;
#X connect 0 0 7 0;
#X connect 1 0 0 0;
#X connect 1 0 6 0;
#X connect 2 0 1 0;
#X connect 3 0 2 0;
#X connect 4 0 0 0;
#X connect 5 0 0 0;
#X connect 7 0 8 0;
#X connect 9 0 16 0;
#X connect 10 0 9 0;
#X connect 11 0 9 1;
#X connect 12 0 13 0;
#X connect 13 0 11 0;
#X connect 14 0 11 0;
#X connect 16 0 15 0;
#X connect 16 0 15 1;
#X connect 17 0 16 0;
#X connect 18 0 16 0;
#X connect 19 0 17 0;
#X connect 19 0 18 0;
