#N canvas 76 65 658 793 10;
#X obj 278 352 autotune2~;
#X obj 266 689 dac~;
#X obj 172 2 base-funk;
#X obj 150 133 dac~;
#X obj 203 171 voice;
#X obj 392 207 scale-manager;
#N canvas 632 527 442 342 rvrb~ 0;
#X obj 10 257 freeverb~;
#X obj 115 42 loadbang;
#X obj -18 214 inlet~;
#X obj 106 130 vsl 17 40 0 1 0 0 empty empty dry 0 -9 0 9 -262144 -1
-1 3900 1;
#X obj 132 130 vsl 17 40 0 1 0 0 empty empty wet 0 -9 0 9 -262144 -1
-1 585 1;
#X msg 138 199 wet \$1;
#X msg 67 199 dry \$1;
#X obj 5 310 outlet~;
#X msg 149 86 0.15;
#X msg 66 86 0.9;
#X connect 0 0 7 0;
#X connect 1 0 8 0;
#X connect 1 0 9 0;
#X connect 2 0 0 0;
#X connect 3 0 6 0;
#X connect 4 0 5 0;
#X connect 5 0 0 0;
#X connect 6 0 0 0;
#X connect 8 0 4 0;
#X connect 9 0 3 0;
#X coords 0 -1 1 1 55 80 1 100 100;
#X restore 277 585 pd rvrb~;
#X floatatom 216 533 5 0 1 0 - - -;
#X obj 199 569 *~;
#X obj 215 485 loadbang;
#X msg 215 510 0.11;
#N canvas 257 293 1070 733 section 1;
#X obj 105 114 hradio 30 1 0 3 empty empty empty 0 -8 0 10 -262144
-1 -1 0;
#X text 108 144 a;
#X text 140 143 b;
#X text 162 144 impr.;
#X obj 463 122 inlet;
#N canvas 31 192 678 581 sectionA 0;
#X obj 280 47 inlet;
#X obj 273 200 mod 16;
#X obj 274 233 hradio 15 1 0 16 empty empty empty 0 -8 0 10 -262144
-1 -1 12;
#X obj 273 162 float;
#X obj 352 167 + 1;
#X floatatom 221 233 5 0 0 0 - - -;
#X obj 271 260 select 1 2 3 4 5 6 7 8 9 10 11 12 13 14 15;
#X msg 95 304 0;
#X msg 129 304 0;
#X msg 164 304 0;
#X msg 199 304 0;
#X msg 605 304 5;
#X msg 640 304 5;
#X msg 675 304 4;
#X msg 706 304 4;
#X floatatom 355 361 10 0 0 1 note - -;
#X obj 355 391 outlet;
#X msg 429 304 0;
#X msg 466 304 0;
#X msg 500 304 0;
#X msg 531 303 0;
#X obj 320 101 r bf-stop;
#X msg 332 304 0;
#X msg 366 304 0;
#X msg 262 304 0;
#X msg 296 304 0;
#X msg 320 131 1;
#X connect 0 0 3 0;
#X connect 1 0 2 0;
#X connect 1 0 5 0;
#X connect 2 0 6 0;
#X connect 3 0 4 0;
#X connect 3 0 1 0;
#X connect 4 0 3 1;
#X connect 6 0 7 0;
#X connect 6 1 8 0;
#X connect 6 2 9 0;
#X connect 6 3 10 0;
#X connect 6 4 24 0;
#X connect 6 5 25 0;
#X connect 6 6 22 0;
#X connect 6 7 23 0;
#X connect 6 8 17 0;
#X connect 6 9 18 0;
#X connect 6 10 19 0;
#X connect 6 11 20 0;
#X connect 6 12 11 0;
#X connect 6 13 12 0;
#X connect 6 14 13 0;
#X connect 6 15 14 0;
#X connect 7 0 15 0;
#X connect 8 0 15 0;
#X connect 9 0 15 0;
#X connect 10 0 15 0;
#X connect 11 0 15 0;
#X connect 12 0 15 0;
#X connect 13 0 15 0;
#X connect 14 0 15 0;
#X connect 15 0 16 0;
#X connect 17 0 15 0;
#X connect 18 0 15 0;
#X connect 19 0 15 0;
#X connect 20 0 15 0;
#X connect 21 0 26 0;
#X connect 22 0 15 0;
#X connect 23 0 15 0;
#X connect 24 0 15 0;
#X connect 25 0 15 0;
#X connect 26 0 3 1;
#X restore 470 263 pd sectionA;
#X obj 544 505 outlet;
#N canvas 553 163 802 573 sectionB 0;
#X obj 206 34 inlet;
#X obj 273 200 mod 16;
#X obj 274 232 hradio 15 1 0 16 empty empty empty 0 -8 0 10 -262144
-1 -1 12;
#X obj 273 162 float;
#X obj 352 167 + 1;
#X floatatom 221 233 5 0 0 0 - - -;
#X obj 271 260 select 1 2 3 4 5 6 7 8 9 10 11 12 13 14 15;
#X msg 640 304 5;
#X msg 675 304 4;
#X msg 706 304 4;
#X floatatom 355 361 10 0 0 1 note - -;
#X obj 355 391 outlet;
#X obj 320 101 r bf-stop;
#X msg 95 304 7;
#X msg 129 303 7;
#X msg 164 304 3;
#X msg 202 304 7;
#X msg 262 304 7;
#X msg 296 303 7;
#X msg 334 304 3;
#X msg 366 304 7;
#X msg 429 304 7;
#X msg 466 304 7;
#X msg 531 303 5;
#X msg 605 304 5;
#X msg 500 304 7;
#X msg 320 131 1;
#X connect 0 0 3 0;
#X connect 1 0 2 0;
#X connect 1 0 5 0;
#X connect 2 0 6 0;
#X connect 3 0 4 0;
#X connect 3 0 1 0;
#X connect 4 0 3 1;
#X connect 6 0 13 0;
#X connect 6 1 14 0;
#X connect 6 2 15 0;
#X connect 6 3 16 0;
#X connect 6 4 17 0;
#X connect 6 5 18 0;
#X connect 6 6 19 0;
#X connect 6 7 20 0;
#X connect 6 8 21 0;
#X connect 6 9 22 0;
#X connect 6 10 25 0;
#X connect 6 11 23 0;
#X connect 6 12 24 0;
#X connect 6 13 7 0;
#X connect 6 14 8 0;
#X connect 6 15 9 0;
#X connect 7 0 10 0;
#X connect 8 0 10 0;
#X connect 9 0 10 0;
#X connect 10 0 11 0;
#X connect 12 0 26 0;
#X connect 13 0 10 0;
#X connect 14 0 10 0;
#X connect 15 0 10 0;
#X connect 16 0 10 0;
#X connect 17 0 10 0;
#X connect 18 0 10 0;
#X connect 19 0 10 0;
#X connect 20 0 10 0;
#X connect 21 0 10 0;
#X connect 22 0 10 0;
#X connect 23 0 10 0;
#X connect 24 0 10 0;
#X connect 25 0 10 0;
#X connect 26 0 3 1;
#X restore 550 263 pd sectionB;
#X obj 359 135 inlet;
#X obj 361 263 float;
#X obj 101 254 select 0 1 2;
#X floatatom 176 204 5 0 0 0 - - -;
#X obj 458 352 spigot;
#X obj 555 352 spigot;
#X obj 350 353 spigot;
#X floatatom 385 325 5 0 0 0 - - -;
#X floatatom 594 324 5 0 0 0 - - -;
#X floatatom 500 330 5 0 0 0 - - -;
#X msg 98 296 1;
#X msg 96 316 0;
#X msg 134 289 1;
#X msg 132 309 0;
#X msg 169 288 1;
#X msg 167 308 0;
#X obj 342 501 outlet;
#X floatatom 581 433 5 0 0 0 - - -;
#X floatatom 510 408 5 0 0 0 - - -;
#X obj 672 154 f;
#X obj 712 152 + 1;
#X floatatom 681 183 5 0 0 0 - - -;
#X obj 682 268 f;
#X obj 722 266 + 1;
#X obj 681 211 mod 16;
#X obj 679 238 select 0;
#X floatatom 684 291 5 0 0 0 - - -;
#X obj 656 275 bng 15 250 50 0 empty empty empty 17 7 0 10 -262144
-1 -1;
#X obj 692 77 r bf-stop;
#X msg 692 107 1;
#X obj 763 79 loadbang;
#X obj 103 52 r s-set-section;
#X obj 33 204 s s-get-section;
#X obj 683 386 s s-set-section;
#X msg 684 352 1;
#X msg 719 352 0;
#X msg 754 352 1;
#X msg 787 352 2;
#X obj 684 317 select 4 6 10 12 16;
#X msg 822 351 1;
#X obj 759 125 - 1;
#X obj 759 150 s s-set-section;
#X connect 0 0 11 0;
#X connect 0 0 10 0;
#X connect 0 0 40 0;
#X connect 4 0 7 0;
#X connect 4 0 5 0;
#X connect 4 0 27 0;
#X connect 5 0 12 0;
#X connect 7 0 13 0;
#X connect 8 0 9 0;
#X connect 9 0 14 0;
#X connect 10 0 18 0;
#X connect 10 0 19 0;
#X connect 10 1 20 0;
#X connect 10 1 21 0;
#X connect 10 2 22 0;
#X connect 10 2 23 0;
#X connect 12 0 6 0;
#X connect 12 0 26 0;
#X connect 13 0 6 0;
#X connect 13 0 25 0;
#X connect 14 0 24 0;
#X connect 15 0 14 1;
#X connect 16 0 13 1;
#X connect 17 0 12 1;
#X connect 18 0 17 0;
#X connect 19 0 16 0;
#X connect 19 0 15 0;
#X connect 20 0 16 0;
#X connect 21 0 17 0;
#X connect 21 0 15 0;
#X connect 22 0 15 0;
#X connect 23 0 17 0;
#X connect 23 0 16 0;
#X connect 27 0 28 0;
#X connect 27 0 29 0;
#X connect 28 0 27 1;
#X connect 29 0 32 0;
#X connect 30 0 31 0;
#X connect 30 0 34 0;
#X connect 31 0 30 1;
#X connect 32 0 33 0;
#X connect 33 0 30 0;
#X connect 33 0 35 0;
#X connect 34 0 46 0;
#X connect 36 0 37 0;
#X connect 37 0 27 1;
#X connect 37 0 30 1;
#X connect 37 0 48 0;
#X connect 38 0 37 0;
#X connect 39 0 0 0;
#X connect 42 0 41 0;
#X connect 43 0 41 0;
#X connect 44 0 41 0;
#X connect 45 0 41 0;
#X connect 46 0 42 0;
#X connect 46 1 43 0;
#X connect 46 2 44 0;
#X connect 46 3 45 0;
#X connect 46 4 47 0;
#X connect 47 0 37 0;
#X connect 48 0 49 0;
#X coords 0 -1 1 1 100 60 1 100 100;
#X restore 391 128 pd section;
#X connect 0 0 6 0;
#X connect 2 0 3 0;
#X connect 2 0 3 1;
#X connect 2 1 11 0;
#X connect 2 2 11 1;
#X connect 4 0 0 0;
#X connect 4 0 8 0;
#X connect 5 0 0 1;
#X connect 6 0 1 0;
#X connect 6 0 1 1;
#X connect 7 0 8 1;
#X connect 8 0 6 0;
#X connect 9 0 10 0;
#X connect 10 0 7 0;
#X connect 11 0 5 0;
#X connect 11 1 5 1;
