#N canvas 693 23 821 692 10;
#X floatatom 423 383 5 0 0 0 - - -;
#X obj 423 357 expr $f3 -(($f3/($f2 - $f1)) * $f4);
#X floatatom 431 263 5 0 0 0 - - -;
#X floatatom 374 263 5 0 0 0 - - -;
#X obj 266 303 line;
#X floatatom 630 320 5 0 0 0 - - -;
#X obj 374 230 unpack f f;
#X text 447 232 wasn't sure how to extract the 0 with the comma in
the way;
#X msg 218 340 0;
#X obj 266 127 bng 30 250 50 0 empty empty empty 17 7 0 10 -262144
-1 -1;
#X obj 133 188 bng 30 250 50 0 empty empty empty 17 7 0 10 -262144
-1 -1;
#X msg 172 256 stop;
#X msg 373 545;
#X obj 72 188 bng 30 250 50 0 empty empty empty 17 7 0 10 -262144 -1
-1;
#X text 253 107 start/reset;
#X text 120 167 stop/pause;
#X text 66 167 resume;
#X obj 373 487 pack f f f;
#X obj 423 406 t b b f;
#X msg 131 527 set;
#X obj 72 232 t b b;
#N canvas 61 165 698 306 set_new 0;
#X obj 178 29 inlet;
#X obj 181 252 outlet;
#X obj 178 56 unpack f f f;
#X msg 142 95 set add2 \$1;
#X msg 142 121 add2 1;
#X msg 388 193 set add2 \$1;
#X msg 388 219 add2 0;
#X obj 325 25 inlet;
#X obj 325 52 del 1;
#X obj 326 79 t b b b;
#X obj 256 219 add2_comma;
#X msg 282 170 1;
#X msg 282 141 set \$1;
#X connect 0 0 2 0;
#X connect 2 0 3 0;
#X connect 2 1 12 0;
#X connect 2 2 5 0;
#X connect 3 0 4 0;
#X connect 4 0 1 0;
#X connect 5 0 6 0;
#X connect 6 0 1 0;
#X connect 7 0 8 0;
#X connect 8 0 9 0;
#X connect 9 0 6 0;
#X connect 9 1 11 0;
#X connect 9 2 4 0;
#X connect 10 0 1 0;
#X connect 11 0 10 0;
#X connect 12 0 11 0;
#X restore 373 514 pd set_new;
#X obj 133 232 t b b b;
#X obj 458 130 hsl 200 15 0 1 0 0 empty empty empty -2 -8 0 10 -262144
-1 -1 19900 1;
#X obj 270 196 list;
#X obj 360 78 inlet;
#X obj 118 18 inlet;
#X text 165 20 gets the message;
#X text 158 589 created by Katz \, available at: http://forum.pdpatchrepo.info/topic/4902/pause-line-object/3
;
#X text 411 80 stores the initial position \, final number \, and speed
;
#X obj 506 156 outlet;
#X text 561 154 outputs the current position;
#X obj 46 77 print;
#X obj 119 77 route resume stop start;
#X text 307 196 handles the input vector;
#X obj 455 154 sel 1;
#X obj 423 16 list;
#X obj 419 40 print;
#X msg 415 -11 1 2 3;
#X obj 463 -5 bng 15 250 50 0 empty empty empty 17 7 0 10 -262144 -1
-1;
#X connect 0 0 18 0;
#X connect 1 0 0 0;
#X connect 2 0 1 2;
#X connect 3 0 1 1;
#X connect 3 0 17 1;
#X connect 4 0 5 0;
#X connect 5 0 1 3;
#X connect 5 0 17 0;
#X connect 5 0 23 0;
#X connect 6 0 3 0;
#X connect 6 1 2 0;
#X connect 8 0 1 0;
#X connect 9 0 19 0;
#X connect 9 0 24 0;
#X connect 10 0 22 0;
#X connect 11 0 4 0;
#X connect 12 0 4 0;
#X connect 13 0 20 0;
#X connect 17 0 21 0;
#X connect 18 0 21 1;
#X connect 18 1 17 0;
#X connect 18 2 17 2;
#X connect 19 0 12 0;
#X connect 20 0 19 0;
#X connect 20 1 12 0;
#X connect 21 0 12 0;
#X connect 22 0 8 0;
#X connect 22 1 19 0;
#X connect 22 2 11 0;
#X connect 23 0 35 0;
#X connect 23 0 30 0;
#X connect 24 0 4 0;
#X connect 24 0 6 0;
#X connect 25 0 24 1;
#X connect 26 0 32 0;
#X connect 26 0 33 0;
#X connect 33 0 13 0;
#X connect 33 1 10 0;
#X connect 33 2 9 0;
#X connect 35 0 9 0;
#X connect 36 0 37 0;
#X connect 38 0 36 1;
#X connect 39 0 36 0;
