#N canvas 2339 23 590 700 10;
#X obj 250 154 soundfiler;
#X floatatom 308 187 0 0 0 0 - - -;
#X obj 257 250 expr 44100 / $f1;
#X obj 264 430 phasor~;
#X obj 264 503 *~;
#X obj 263 535 tabread4~ sf-array2;
#X msg 256 114 read -resize \$1 sf-array2;
#X floatatom 287 331 5 0 0 0 - - -;
#X text 327 331 readrate;
#X floatatom 162 362 10 0 0.05 0 - - -;
#X obj 260 568 s~ vc-voice;
#X obj 315 227 s vc-sampleSize;
#X obj 285 292 r vc-original-spped;
#X obj 163 326 r vc-readrate;
#X obj 287 354 s vc-readrate;
#X obj 334 464 r vc-sampleSize;
#X obj 187 580 dac~;
#X obj 131 543 s~ vc-to-snapshot;
#X obj 257 62 r vc-filename;
#X obj 257 88 makefilename %s.wav;
#X obj 202 117 print;
#X obj 99 444 snapshot~;
#X floatatom 99 465 5 0 0 0 - - -;
#X obj 98 401 bng 15 250 50 0 empty empty empty 17 7 0 10 -262144 -1
-1;
#X obj 309 394 r vc-set-position;
#X obj 99 485 s vc-get-position;
#X obj 98 380 loadbang;
#X obj 99 421 metro 1000;
#X connect 0 0 1 0;
#X connect 0 0 2 0;
#X connect 1 0 11 0;
#X connect 2 0 3 0;
#X connect 2 0 7 0;
#X connect 3 0 4 0;
#X connect 3 0 21 0;
#X connect 4 0 5 0;
#X connect 4 0 17 0;
#X connect 5 0 10 0;
#X connect 5 0 16 0;
#X connect 5 0 16 1;
#X connect 6 0 0 0;
#X connect 7 0 14 0;
#X connect 9 0 3 0;
#X connect 12 0 7 0;
#X connect 13 0 9 0;
#X connect 15 0 4 1;
#X connect 18 0 19 0;
#X connect 19 0 6 0;
#X connect 19 0 20 0;
#X connect 21 0 22 0;
#X connect 22 0 25 0;
#X connect 23 0 27 0;
#X connect 24 0 3 1;
#X connect 26 0 23 0;
#X connect 27 0 21 0;
