#N canvas 2229 140 831 584 10;
#X obj 231 333 pix_film;
#X obj 231 401 pix_texture;
#X obj 231 41 gemhead;
#X msg 335 286 open \$1;
#X obj 253 357 unpack f f f;
#X text 331 206 opening the video file;
#X obj 258 179 *;
#X obj 258 93 snapshot~;
#X obj 231 62 t a b;
#X obj 258 137 /;
#X obj 258 226 int;
#X obj 258 248 change;
#X obj 273 157 r \$0-frames;
#X obj 253 379 s \$0-frames;
#X obj 263 201 + 0.5;
#X floatatom 296 178 5 0 0 0 - - -;
#X obj 363 136 loadbang;
#X obj 232 423 rectangle 7 4;
#X msg 363 165 16;
#X obj 320 50 r~ vc-to-snapshot;
#X obj 553 187 gemwin;
#X msg 552 116 create \, 1;
#X msg 581 139 0 \, destroy;
#X text 549 211 Gem window;
#X msg 669 137 dimen 850 480;
#X msg 669 164 dimen 1280 720;
#X obj 273 114 r vc-sampleSize;
#X obj 336 255 makefilename %s.mov;
#X obj 336 231 r vc-filename;
#X obj 405 285 print;
#X obj 552 53 tgl 15 0 empty empty empty 17 7 0 10 -262144 -1 -1 0
1;
#X obj 552 84 select 1 0;
#X obj 553 27 r vc-video;
#X text 574 495 Handing video;
#X obj 668 112 loadbang;
#X connect 0 0 1 0;
#X connect 0 1 4 0;
#X connect 1 0 17 0;
#X connect 2 0 8 0;
#X connect 3 0 0 0;
#X connect 4 0 13 0;
#X connect 6 0 14 0;
#X connect 7 0 9 0;
#X connect 8 0 0 0;
#X connect 8 1 7 0;
#X connect 9 0 6 0;
#X connect 10 0 11 0;
#X connect 11 0 0 1;
#X connect 12 0 6 1;
#X connect 14 0 10 0;
#X connect 15 0 14 1;
#X connect 16 0 18 0;
#X connect 18 0 15 0;
#X connect 19 0 7 0;
#X connect 21 0 20 0;
#X connect 22 0 20 0;
#X connect 24 0 20 0;
#X connect 25 0 20 0;
#X connect 26 0 9 1;
#X connect 27 0 3 0;
#X connect 27 0 29 0;
#X connect 28 0 27 0;
#X connect 30 0 31 0;
#X connect 31 0 21 0;
#X connect 31 1 22 0;
#X connect 32 0 30 0;
#X connect 34 0 24 0;
