#N canvas 2229 140 812 600 10;
#X obj 241 349 pix_film;
#X obj 241 417 pix_texture;
#X obj 241 100 gemhead;
#X obj 343 265 bng 15 250 50 0 empty empty empty 17 7 0 10 -262144
-1 -1;
#X obj 343 283 openpanel;
#X msg 343 302 open \$1;
#X obj 263 373 unpack f f f;
#X text 360 265 opening the video file;
#X obj 268 238 *;
#X obj 268 152 snapshot~;
#X obj 241 121 t a b;
#X obj 268 196 /;
#X obj 268 285 int;
#X obj 268 307 change;
#X obj 283 216 r \$0-frames;
#X obj 263 395 s \$0-frames;
#X obj 273 260 + 0.5;
#X floatatom 306 237 5 0 0 0 - - -;
#X obj 373 195 loadbang;
#X obj 242 439 rectangle 7 4;
#X msg 373 224 16;
#X obj 330 109 r~ vc-to-snapshot;
#X obj 544 208 gemwin;
#X msg 581 116 create \, 1;
#X msg 593 138 0 \, destroy;
#X text 560 94 Video;
#X text 670 133 Gem window;
#X msg 641 168 dimen 850 480;
#X msg 641 195 dimen 1280 720;
#X obj 283 173 r vc-sampleSize;
#X connect 0 0 1 0;
#X connect 0 1 6 0;
#X connect 1 0 19 0;
#X connect 2 0 10 0;
#X connect 3 0 4 0;
#X connect 4 0 5 0;
#X connect 5 0 0 0;
#X connect 6 0 15 0;
#X connect 8 0 16 0;
#X connect 9 0 11 0;
#X connect 10 0 0 0;
#X connect 10 1 9 0;
#X connect 11 0 8 0;
#X connect 12 0 13 0;
#X connect 13 0 0 1;
#X connect 14 0 8 1;
#X connect 16 0 12 0;
#X connect 17 0 16 1;
#X connect 18 0 20 0;
#X connect 20 0 17 0;
#X connect 21 0 9 0;
#X connect 23 0 22 0;
#X connect 24 0 22 0;
#X connect 27 0 22 0;
#X connect 28 0 22 0;
#X connect 29 0 11 1;
