#N canvas 1799 181 1025 634 10;
#X obj 777 152 soundfiler;
#X floatatom 835 185 0 0 0 0 - - -;
#N canvas 324 218 549 309 (subpatch) 0;
#X array sf-array2 1.56989e+07 float 0;
#X coords 0 1 1.56989e+07 -1 60 30 2 0 0;
#X restore 111 197 graph;
#X obj 160 240 openpanel;
#X obj 112 120 bng 15 250 50 0 empty empty open_panel 17 7 0 9 -262144
-1 -1;
#X obj 784 248 expr 44100 / $f1;
#X obj 791 428 phasor~;
#X obj 791 471 *~;
#X obj 789 504 tabread4~ sf-array2;
#X msg 783 112 read -resize \$1 sf-array2;
#X floatatom 814 329 5 0 0 0 - - -;
#X text 854 329 readrate;
#X floatatom 684 360 10 0 0.05 0 - - -;
#X msg 371 244 play;
#X msg 375 322 stop;
#X msg 375 347 0;
#X obj 374 266 bng 15 250 50 0 empty empty empty 17 7 0 10 -262144
-1 -1;
#X obj 112 141 tgl 15 0 empty empty play/stop 17 7 0 9 -262144 -1 -1
0 1;
#X obj 361 209 metro 50;
#X text 394 183 togles and disables sound;
#X obj 371 455 outlet~;
#N canvas 572 23 807 838 check-end-of-words 0;
#X floatatom 186 -5641 0 0 0 0 - - -;
#X obj 101 -5681 fiddle~ 1024 1 20 3;
#X text 186 -5619 amplitude;
#X obj 96 -5747 inlet~;
#X msg 181 -5430 0;
#X obj 184 -5507 select 1;
#X obj 184 -5535 change;
#X text 226 -5578 here's the threshhold for the pause;
#X obj 258 -5498 bng 15 250 50 0 empty empty empty 17 7 0 10 -262144
-1 -1;
#X obj 186 -5578 < 50;
#X obj 195 -5474 s vc-speech-pause;
#X obj 177 -5400 s vc-readrate;
#X connect 0 0 9 0;
#X connect 1 3 0 0;
#X connect 3 0 1 0;
#X connect 4 0 11 0;
#X connect 5 0 4 0;
#X connect 5 0 10 0;
#X connect 6 0 5 0;
#X connect 8 0 10 0;
#X connect 9 0 6 0;
#X restore 79 554 pd check-end-of-words;
#X obj 158 74 inlet;
#X obj 787 536 s~ vc-voice;
#X obj 372 415 r~ vc-voice;
#X obj 373 286 s vc-original-spped;
#X obj 374 367 s vc-readrate;
#X obj 842 225 s vc-sampleSize;
#X obj 812 290 r vc-original-spped;
#X obj 685 324 r vc-readrate;
#X obj 814 352 s vc-readrate;
#X obj 836 392 r vc-position;
#X obj 861 432 r vc-sampleSize;
#X obj 79 522 r~ vc-voice;
#X text 282 114 a more advanced wave player with speed \, play/pause
\, and position control;
#X obj 32 103 r bf-stop;
#X msg 32 130 0;
#X obj 32 160 s vc-position;
#X obj 228 33 r bf-loaded;
#X msg 225 57 1;
#X obj 66 413 hsl 128 15 0 1 0 0 empty empty empty -2 -8 0 10 -262144
-1 -1 6985 1;
#X obj 67 366 bng 15 250 50 0 empty empty empty 17 7 0 10 -262144 -1
-1;
#X msg 73 388 0.55;
#X obj 67 436 s vc-position;
#X msg 119 386 0.2;
#X msg 159 385 0.8;
#X msg 188 389 0.7;
#X obj 714 548 dac~;
#N canvas 127 278 716 431 track-time 0;
#X obj 294 134 r vc-sampleSize;
#X floatatom 225 192 5 0 0 0 - - -;
#X obj 225 114 arraysize sf-array2;
#X obj 225 86 bng 15 250 50 0 empty empty empty 17 7 0 10 -262144 -1
-1;
#X text 288 179 get the duration time;
#X obj 225 164 / 44.1;
#X obj 407 131 r sf-current-state;
#X msg 225 218 0 \, 1 \$1;
#X obj 173 253 line_pause;
#X obj 176 288 outlet;
#X msg 136 156 start;
#X msg 109 185 stop;
#X msg 77 210 resume;
#X obj 250 295 vsl 15 50 0 1 0 0 empty empty empty 0 -9 0 15 -262144
-1 -1 0 1;
#X obj 266 250 print;
#X floatatom 138 290 5 0 0 0 - - -;
#X connect 0 0 5 0;
#X connect 1 0 7 0;
#X connect 2 0 5 0;
#X connect 3 0 2 0;
#X connect 5 0 1 0;
#X connect 7 0 8 1;
#X connect 7 0 14 0;
#X connect 8 0 9 0;
#X connect 8 0 13 0;
#X connect 8 0 15 0;
#X connect 10 0 8 0;
#X connect 11 0 8 0;
#X connect 12 0 8 0;
#X restore 370 536 pd track-time;
#X obj 29 243 s sf-current-state;
#X obj 658 511 s~ vc-to-snapshot;
#X obj 368 510 video;
#X obj 161 263 splitfilename .;
#X obj 160 287 s vc-filename;
#X obj 784 60 r vc-filename;
#X obj 784 86 makefilename %s.wav;
#X obj 729 115 print;
#X obj 112 164 tgl 15 0 empty empty video 17 7 0 9 -262144 -1 -1 0
1;
#X obj -8 205 s vc-video;
#X connect 0 0 1 0;
#X connect 0 0 5 0;
#X connect 1 0 27 0;
#X connect 3 0 52 0;
#X connect 4 0 3 0;
#X connect 5 0 6 0;
#X connect 5 0 10 0;
#X connect 6 0 7 0;
#X connect 7 0 8 0;
#X connect 7 0 50 0;
#X connect 8 0 23 0;
#X connect 8 0 47 0;
#X connect 8 0 47 1;
#X connect 9 0 0 0;
#X connect 10 0 30 0;
#X connect 12 0 6 0;
#X connect 13 0 16 0;
#X connect 14 0 15 0;
#X connect 15 0 26 0;
#X connect 16 0 25 0;
#X connect 17 0 18 0;
#X connect 17 0 49 0;
#X connect 18 0 13 0;
#X connect 22 0 17 0;
#X connect 24 0 20 0;
#X connect 28 0 10 0;
#X connect 29 0 12 0;
#X connect 31 0 6 1;
#X connect 32 0 7 1;
#X connect 33 0 21 0;
#X connect 35 0 36 0;
#X connect 36 0 17 0;
#X connect 36 0 37 0;
#X connect 38 0 39 0;
#X connect 39 0 17 0;
#X connect 40 0 43 0;
#X connect 41 0 42 0;
#X connect 42 0 43 0;
#X connect 42 0 40 0;
#X connect 44 0 40 0;
#X connect 45 0 40 0;
#X connect 46 0 40 0;
#X connect 52 0 53 0;
#X connect 54 0 55 0;
#X connect 55 0 9 0;
#X connect 55 0 56 0;
#X connect 57 0 58 0;
#X coords 0 -1 1 1 90 140 1 100 100;
