#N canvas 1694 181 643 740 10;
#N canvas 324 218 549 309 (subpatch) 0;
#X array sf-array2 1.56989e+07 float 0;
#X coords 0 1 1.56989e+07 -1 60 30 2 0 0;
#X restore 111 197 graph;
#X obj 160 240 openpanel;
#X obj 112 120 bng 15 250 50 0 empty empty open_panel 17 7 0 9 -262144
-1 -1;
#X msg 416 243 play;
#X msg 420 321 stop;
#X msg 420 346 0;
#X obj 418 262 bng 15 250 50 0 empty empty empty 17 7 0 10 -262144
-1 -1;
#X obj 112 141 tgl 15 0 empty empty play/stop 17 7 0 9 -262144 -1 -1
1 1;
#X obj 406 208 metro 50;
#X text 439 182 togles and disables sound;
#X obj 416 454 outlet~;
#X obj 231 299 inlet;
#X obj 417 414 r~ vc-voice;
#X obj 418 285 s vc-original-spped;
#X obj 419 366 s vc-readrate;
#X text 282 114 a more advanced wave player with speed \, play/pause
\, and position control;
#X obj 9 4 r bf-stop;
#X obj 228 33 r bf-loaded;
#X msg 225 57 1;
#X obj 29 243 s sf-current-state;
#X obj 365 511 video;
#X obj 161 263 splitfilename .;
#X obj 160 287 s vc-filename;
#X obj 112 164 tgl 15 0 empty empty video 17 7 0 9 -262144 -1 -1 1
1;
#X obj -8 205 s vc-video;
#X obj 366 539 sound;
#X text 406 510 handling video;
#X text 404 541 handling sound;
#X obj 173 395 bng 15 250 50 0 empty empty empty 17 7 0 10 -262144
-1 -1;
#X obj 172 167 bng 10 250 50 0 empty empty replay -17 -6 0 8 -262144
-1 -1;
#X obj 9 65 s vc-set-position;
#X msg 9 31 0;
#N canvas 572 23 807 838 check-end-of-words 0;
#X floatatom 186 -5641 0 0 0 0 - - -;
#X obj 101 -5681 fiddle~ 1024 1 20 3;
#X text 186 -5619 amplitude;
#X obj 96 -5747 inlet~;
#X msg 181 -5430 0;
#X obj 184 -5507 select 1;
#X obj 184 -5535 change;
#X text 226 -5578 here's the threshhold for the pause;
#X obj 258 -5498 bng 15 250 50 0 empty empty empty 17 7 0 10 -262144
-1 -1;
#X obj 186 -5578 < 50;
#X obj 195 -5474 s vc-speech-pause;
#X obj 177 -5400 s vc-readrate;
#X obj 138 -5475 bng 15 250 50 0 empty empty empty 17 7 0 10 -262144
-1 -1;
#X connect 0 0 9 0;
#X connect 1 3 0 0;
#X connect 3 0 1 0;
#X connect 4 0 11 0;
#X connect 5 0 4 0;
#X connect 5 0 10 0;
#X connect 5 0 12 0;
#X connect 6 0 5 0;
#X connect 8 0 10 0;
#X connect 9 0 6 0;
#X restore 62 687 pd check-end-of-words;
#X obj 62 655 r~ vc-voice;
#X obj 43 598 hsl 128 15 0 1 0 0 empty empty empty -2 -8 0 10 -262144
-1 -1 1867 1;
#X msg 5 448 0.55;
#X msg 51 446 0.2;
#X msg 91 445 0.8;
#X msg 122 445 0.7;
#X obj 39 624 s vc-set-position;
#X obj 199 510 r vc-get-position;
#X obj 174 563 f;
#X floatatom 43 561 5 0 0 0 - - -;
#N canvas 2059 528 450 300 echo 0;
#X obj 126 25 inlet;
#X obj 121 209 outlet;
#X obj 142 88 delay;
#X obj 173 40 r bf-measure-time;
#X obj 148 112 delay;
#X obj 157 133 delay;
#X obj 173 64 / 8;
#X obj 164 155 delay;
#X connect 0 0 2 0;
#X connect 2 0 4 0;
#X connect 2 0 1 0;
#X connect 3 0 6 0;
#X connect 4 0 5 0;
#X connect 4 0 1 0;
#X connect 5 0 1 0;
#X connect 5 0 7 0;
#X connect 6 0 2 1;
#X connect 6 0 4 1;
#X connect 6 0 5 1;
#X connect 6 0 7 1;
#X connect 7 0 1 0;
#X restore 195 449 pd echo;
#X obj 224 537 r bf-stop;
#X msg 224 558 0;
#X obj 172 181 tgl 10 0 empty empty empty 17 7 0 10 -262144 -1 -1 1
1;
#X obj 187 333 spigot;
#X connect 1 0 21 0;
#X connect 2 0 1 0;
#X connect 3 0 6 0;
#X connect 4 0 5 0;
#X connect 5 0 14 0;
#X connect 6 0 13 0;
#X connect 7 0 8 0;
#X connect 7 0 19 0;
#X connect 8 0 3 0;
#X connect 11 0 47 0;
#X connect 12 0 10 0;
#X connect 16 0 31 0;
#X connect 17 0 18 0;
#X connect 18 0 7 0;
#X connect 21 0 22 0;
#X connect 23 0 24 0;
#X connect 28 0 41 0;
#X connect 28 0 43 0;
#X connect 29 0 47 0;
#X connect 31 0 7 0;
#X connect 31 0 30 0;
#X connect 33 0 32 0;
#X connect 34 0 39 0;
#X connect 35 0 42 0;
#X connect 36 0 42 0;
#X connect 37 0 42 0;
#X connect 38 0 42 0;
#X connect 40 0 41 1;
#X connect 41 0 34 0;
#X connect 42 0 34 0;
#X connect 43 0 41 0;
#X connect 44 0 45 0;
#X connect 45 0 41 1;
#X connect 46 0 47 1;
#X connect 47 0 28 0;
#X coords 0 -1 1 1 90 140 1 100 100;
