#N canvas 65 54 1301 714 10;
#X obj 147 -177 readsf~;
#X msg 66 -273 open \$1;
#X obj 62 -313 openpanel;
#X obj 64 -341 bng 15 250 50 0 empty empty empty 17 7 0 10 -262144
-1 -1;
#X msg 146 -237 start;
#X msg 276 -198 stop;
#X obj 101 -189 print;
#X obj 239 -159 bng 15 250 50 0 empty empty empty 17 7 0 10 -262144
-1 -1;
#X msg 183 -287 open \$1;
#X obj 182 -262 t b a;
#X text 56 -374 carrega base customizada;
#X text 454 -429 carrega base 1;
#X text 445 -376 carrega base 2;
#X text 455 -327 carrega base 3;
#X text 335 -200 para a base;
#X obj 688 -273 outlet~;
#X obj 111 164 hradio 15 1 1 4 empty empty choose_base 0 -8 0 9 -262144
-1 -1 1;
#X obj 113 197 select 0 1 2 3;
#X obj 113 249 s bf-stop;
#X obj 178 251 s bf-load1;
#X obj 252 253 s bf-load2;
#X obj 325 251 s bf-load3;
#X obj 278 -453 r bf-load1;
#X obj 273 -398 r bf-load2;
#X obj 280 -347 r bf-load3;
#X obj 277 -223 r bf-stop;
#X obj 113 131 hsl 60 15 0 1 0 0 bf-volume empty volume -2 -8 0 9 -262144
-1 -1 2360 1;
#X obj 689 -329 *~;
#X obj 711 -357 r bf-volume;
#X obj 107 36 loadbang;
#X text 164 2 this is the GUI!;
#X text 684 -415 outlets for this object: audio and onsets;
#X text 112 -477 loading the batidao from file and playing it;
#X obj 688 -386 r~ bf-base;
#X obj 147 -139 s~ bf-base;
#X obj 740 143 tgl 15 0 empty empty empty 17 7 0 10 -262144 -1 -1 1
1;
#X obj 739 167 metro 1000;
#X obj 797 42 / 60;
#X floatatom 797 16 5 0 0 0 - - -;
#X floatatom 816 140 5 0 0 0 - - -;
#X obj 802 115 /;
#X msg 786 95 1000;
#X obj 799 73 t b f;
#X msg 732 -15 127.97;
#X text 737 -35 beat 1;
#X text 806 -36 beat 2;
#X msg 799 -14 130.04;
#X text 863 -35 beat 3;
#X msg 854 -14 130.5;
#X obj 929 -321 r bf-beat;
#X obj 933 -277 outlet;
#X obj 739 218 s bf-beat;
#X text 713 -98 base 1;
#X obj 719 -77 r bf-load1;
#X obj 863 -77 r bf-load3;
#X obj 790 -79 r bf-load2;
#X text 684 27 para a base;
#X obj 689 48 r bf-stop;
#X msg 688 73 0;
#X obj 734 99 delay 1;
#X msg 739 118 1;
#X obj 167 106 bng 8 250 50 0 empty bf-beat bpm -6 12 0 8 -258113 -1
-1;
#X text 1099 -371 base 1;
#X obj 1105 -350 r bf-load1;
#X obj 1249 -350 r bf-load3;
#X obj 1176 -350 r bf-load2;
#X obj 1103 -302 s bf-loaded;
#X text 784 -100 base 2;
#X text 857 -98 base 3;
#X text 1173 -371 base 2;
#X text 1247 -371 base 3;
#X obj 180 32 r bf-set-volume;
#X text 1082 -403 sends message whenever there is a load;
#X obj 830 200 s bf-measure-time;
#X obj 824 172 * 8;
#X obj 211 154 bng 15 250 50 0 empty empty empty 17 7 0 10 -262144
-1 -1;
#X obj 279 -146 s bf-reload;
#X obj 211 119 r bf-reload;
#X msg 278 -428 s ../../audiodata/base1.wav;
#X msg 274 -375 s ../../audiodata/base2.wav;
#X msg 279 -324 s ../../audiodata/base3.wav;
#X msg 106 59 0.4;
#X obj 222 -456 loadbang;
#X connect 0 0 34 0;
#X connect 0 1 7 0;
#X connect 1 0 0 0;
#X connect 1 0 6 0;
#X connect 2 0 1 0;
#X connect 3 0 2 0;
#X connect 4 0 0 0;
#X connect 5 0 0 0;
#X connect 7 0 76 0;
#X connect 8 0 9 0;
#X connect 9 0 4 0;
#X connect 9 1 0 0;
#X connect 16 0 17 0;
#X connect 17 0 18 0;
#X connect 17 1 19 0;
#X connect 17 2 20 0;
#X connect 17 3 21 0;
#X connect 22 0 78 0;
#X connect 23 0 79 0;
#X connect 24 0 80 0;
#X connect 25 0 5 0;
#X connect 27 0 15 0;
#X connect 28 0 27 1;
#X connect 29 0 81 0;
#X connect 33 0 27 0;
#X connect 35 0 36 0;
#X connect 36 0 51 0;
#X connect 37 0 42 0;
#X connect 38 0 37 0;
#X connect 39 0 36 1;
#X connect 39 0 74 0;
#X connect 40 0 39 0;
#X connect 41 0 40 0;
#X connect 42 0 41 0;
#X connect 42 0 59 0;
#X connect 42 1 40 1;
#X connect 43 0 38 0;
#X connect 46 0 38 0;
#X connect 48 0 38 0;
#X connect 49 0 50 0;
#X connect 53 0 43 0;
#X connect 54 0 48 0;
#X connect 55 0 46 0;
#X connect 57 0 58 0;
#X connect 58 0 35 0;
#X connect 59 0 60 0;
#X connect 60 0 35 0;
#X connect 63 0 66 0;
#X connect 64 0 66 0;
#X connect 65 0 66 0;
#X connect 71 0 26 0;
#X connect 74 0 73 0;
#X connect 75 0 16 0;
#X connect 77 0 75 0;
#X connect 78 0 8 0;
#X connect 79 0 8 0;
#X connect 80 0 8 0;
#X connect 81 0 26 0;
#X connect 82 0 78 0;
#X coords 0 -1 1 1 80 85 1 100 100;
