#N canvas 621 102 545 686 10;
#X obj 177 454 autotune2~;
#X obj 156 872 dac~;
#X obj 326 147 base-funk;
#X obj 304 297 dac~;
#X obj 362 381 scale-manager;
#N canvas 632 527 442 342 rvrb~ 0;
#X obj 10 257 freeverb~;
#X obj 115 42 loadbang;
#X obj -18 214 inlet~;
#X obj 106 130 vsl 17 40 0 1 0 0 empty empty dry 0 -9 0 9 -262144 -1
-1 3900 1;
#X obj 132 130 vsl 17 40 0 1 0 0 empty empty wet 0 -9 0 9 -262144 -1
-1 351 1;
#X msg 138 199 wet \$1;
#X msg 67 199 dry \$1;
#X obj 5 310 outlet~;
#X msg 66 86 1;
#X obj 225 55 r rvrb-set-wet;
#X msg 149 86 0.09;
#X connect 0 0 7 0;
#X connect 1 0 10 0;
#X connect 1 0 8 0;
#X connect 2 0 0 0;
#X connect 3 0 6 0;
#X connect 4 0 5 0;
#X connect 5 0 0 0;
#X connect 6 0 0 0;
#X connect 8 0 3 0;
#X connect 9 0 4 0;
#X connect 10 0 4 0;
#X coords 0 -1 1 1 55 80 1 100 100;
#X restore 178 673 pd rvrb~;
#X floatatom 116 608 5 0 1 0 - - -;
#X obj 99 644 *~;
#X obj 115 560 loadbang;
#X text 410 822 PROJETO PROIBIDAO;
#X obj 363 292 section;
#X text 428 840 experimento#04;
#X text 404 858 realtime autotuner;
#N canvas 144 263 1130 502 webcam 1;
#X obj 249 157 gemhead;
#X obj 247 329 pix_texture;
#X obj 247 293 pix_video;
#X msg 316 242 dialog;
#N canvas 162 133 570 420 serin 0;
#X obj 205 60 cnv 20 20 20 empty \$0-open-canvas 1 4 10 0 16 -233017
-1 0;
#X obj 60 61 hradio 18 1 1 8 empty empty empty 0 -6 0 8 -225271 -1
-1 1;
#X obj 60 13 inlet;
#X msg 200 202 label \$1;
#X obj 200 180 makefilename %d;
#X obj 59 108 int;
#X obj 59 337 outlet;
#X msg 201 306 set \$1 \$2;
#X obj 59 266 trigger bang anything;
#X obj 201 286 list;
#X obj 200 225 send \$0-open-canvas;
#X msg 60 210 device \$1;
#X connect 1 0 5 0;
#X connect 2 0 1 0;
#X connect 3 0 10 0;
#X connect 4 0 3 0;
#X connect 5 0 4 0;
#X connect 5 0 11 0;
#X connect 7 0 6 0;
#X connect 8 0 6 0;
#X connect 8 1 9 0;
#X connect 9 0 7 0;
#X connect 11 0 8 0;
#X coords 0 -1 1 1 165 20 1 60 60;
#X restore 290 179 pd serin;
#X text 450 441 based on the example provided by GEM;
#X obj 123 124 tgl 10 0 empty \$0-audiovisual-start init! 15 5 0 9
-262144 -1 -1 1 1;
#X text 367 141 select the proper webcam;
#X obj 336 92 t b b;
#X msg 289 207 device 1;
#X obj 247 363 rectangle 7 4;
#N canvas 66 392 450 300 config-gem-window 0;
#X obj 106 53 inlet;
#X obj 107 117 select 1 0;
#X msg 107 149 create \, 1;
#X msg 182 150 destroy;
#X obj 107 174 gemwin;
#X obj 108 96 tgl 15 0 empty empty empty 17 7 0 10 -262144 -1 -1 1
1;
#X text 132 95 rendering;
#X msg 258 119 dimen 850 480;
#X msg 258 146 dimen 1280 720;
#X obj 257 94 loadbang;
#X connect 0 0 5 0;
#X connect 1 0 2 0;
#X connect 1 1 3 0;
#X connect 2 0 4 0;
#X connect 3 0 4 0;
#X connect 5 0 1 0;
#X connect 7 0 4 0;
#X connect 8 0 4 0;
#X connect 9 0 7 0;
#X restore 406 116 pd config-gem-window;
#X obj 660 261 outlet~;
#X obj 615 121 adc~;
#X obj 619 160 spigot~;
#X text 327 35 VIDEO;
#X text 365 243 webcam config;
#X text 628 40 AUDIO;
#X text 116 32 INTERFACE;
#X obj 663 134 tgl 15 0 empty empty empty 17 7 0 10 -262144 -1 -1 1
1;
#X obj 660 218 *~ 1;
#X obj 692 181 hsl 50 15 1 3 0 0 empty empty empty -2 -8 0 10 -262144
-1 -1 0 1;
#X obj 123 168 s \$0-init;
#X obj 335 69 r \$0-init;
#X obj 661 103 r \$0-init;
#X msg 335 140 1;
#X obj 334 119 delay 2000;
#X connect 0 0 2 0;
#X connect 1 0 10 0;
#X connect 2 0 1 0;
#X connect 3 0 2 0;
#X connect 4 0 9 0;
#X connect 6 0 22 0;
#X connect 8 0 26 0;
#X connect 8 1 11 0;
#X connect 9 0 2 0;
#X connect 13 0 14 0;
#X connect 14 1 20 0;
#X connect 19 0 14 1;
#X connect 20 0 12 0;
#X connect 21 0 20 1;
#X connect 23 0 8 0;
#X connect 24 0 19 0;
#X connect 25 0 4 0;
#X connect 26 0 25 0;
#X coords 0 -1 1 1 85 60 1 100 100;
#X restore 64 141 pd webcam;
#X msg 115 585 0.02;
#X obj 64 211 s~ voice;
#X obj 177 425 r~ voice;
#X obj 98 528 r~ voice;
#X obj 51 731 r~ voice;
#X obj 51 788 spigot~;
#X obj 89 764 r play-pure;
#X obj 178 800 spigot~;
#X obj 216 776 r play-effect;
#X obj 57 -16 cnv 15 450 100 empty empty empty 20 12 0 14 -233017 -66577
0;
#X obj 78 -2 tgl 60 0 start empty GO!!!! 80 27 0 50 -262144 -1 -1 0
1;
#N canvas 913 131 450 300 config-start-effect 0;
#X obj 49 42 r start;
#X obj 49 64 select 0 1;
#X msg 48 87 1;
#X msg 118 111 1;
#X obj 127 86 tgl 15 0 empty empty empty 17 7 0 10 -262144 -1 -1 0
1;
#X msg 80 88 0;
#X obj 161 114 tgl 15 0 empty empty empty 17 7 0 10 -262144 -1 -1 1
1;
#X msg 84 112 0;
#X obj 174 85 s play-pure;
#X obj 183 113 s play-effect;
#X obj 46 190 r start;
#X obj 46 213 select 0 1;
#X obj 46 242 s bf-stop;
#X obj 115 242 s bf-reload;
#X text 38 166 stop and play funk sample;
#X text 44 17 stop and play autotune;
#X connect 0 0 1 0;
#X connect 1 0 2 0;
#X connect 1 0 5 0;
#X connect 1 1 7 0;
#X connect 1 1 3 0;
#X connect 2 0 4 0;
#X connect 3 0 6 0;
#X connect 4 0 8 0;
#X connect 5 0 6 0;
#X connect 6 0 9 0;
#X connect 7 0 4 0;
#X connect 10 0 11 0;
#X connect 11 0 12 0;
#X connect 11 1 13 0;
#X restore 361 61 pd config-start-effect;
#N canvas 568 422 450 300 loadbang 0;
#X obj 268 3 loadbang;
#X obj 268 28 delay 100;
#X msg 222 124 \; pd dsp 1 \;;
#X obj 269 49 t b b;
#X obj 322 78 s \$0-audiovisual-start;
#X obj 227 88 delay 300;
#X obj 234 8 bng 15 250 50 0 empty empty empty 17 7 0 10 -262144 -1
-1;
#X obj 294 99 delay 100;
#X obj 299 164 s start;
#X obj 313 139 tgl 15 0 empty empty empty 17 7 0 10 -262144 -1 -1 1
1;
#X connect 0 0 1 0;
#X connect 1 0 3 0;
#X connect 3 0 5 0;
#X connect 3 1 4 0;
#X connect 3 1 7 0;
#X connect 5 0 2 0;
#X connect 6 0 1 0;
#X connect 7 0 9 0;
#X connect 9 0 8 0;
#X restore 63 109 pd loadbang;
#X connect 0 0 5 0;
#X connect 2 0 3 0;
#X connect 2 0 3 1;
#X connect 2 1 10 0;
#X connect 2 2 10 1;
#X connect 4 0 0 1;
#X connect 5 0 21 0;
#X connect 6 0 7 1;
#X connect 7 0 5 0;
#X connect 8 0 14 0;
#X connect 10 0 4 0;
#X connect 10 1 4 1;
#X connect 13 0 15 0;
#X connect 14 0 6 0;
#X connect 16 0 0 0;
#X connect 17 0 7 0;
#X connect 18 0 19 0;
#X connect 19 1 1 0;
#X connect 19 1 1 1;
#X connect 20 0 19 1;
#X connect 21 1 1 1;
#X connect 21 1 1 0;
#X connect 22 0 21 1;
