#N canvas 0 23 619 325 10;
#X obj 130 57 inlet;
#X obj 149 251 outlet;
#X obj 186 147 expr $f1 + $f2 + $f3 + $f4;
#X floatatom 186 168 5 0 0 0 - - -;
#X msg 187 191 seed \$1;
#X obj 153 217 random 10;
#X obj 193 64 loadbang;
#X text 258 63 randomize the seed using the hour at start time;
#X obj 122 195 bng 15 250 50 0 empty empty empty 17 7 0 10 -262144
-1 -1;
#X obj 218 88 bng 15 250 50 0 empty empty empty 17 7 0 10 -262144 -1
-1;
#X text 144 284 sets a pseudoranom seed \, and generate a random number
between 0 and 9;
#X obj 129 131 delay 20;
#X obj 192 108 time;
#X connect 0 0 11 0;
#X connect 2 0 3 0;
#X connect 3 0 4 0;
#X connect 4 0 5 0;
#X connect 5 0 1 0;
#X connect 6 0 12 0;
#X connect 8 0 5 0;
#X connect 9 0 12 0;
#X connect 11 0 5 0;
#X connect 12 0 2 0;
#X connect 12 1 2 1;
#X connect 12 2 2 2;
#X connect 12 3 2 3;
