#N canvas 152 195 565 488 10;
#X obj 35 236 dac~;
#X obj 35 179 adc~;
#X obj 139 72 gemhead;
#X obj 134 285 pix_texture;
#X obj 139 223 pix_video;
#X msg 182 133 device 1;
#N canvas 162 133 570 420 serin 0;
#X obj 205 60 cnv 20 20 20 empty \$0-open-canvas 1 4 10 0 16 -233017
-1 0;
#X obj 60 61 hradio 18 1 1 8 empty empty empty 0 -6 0 8 -225271 -1
-1 1;
#X obj 60 13 inlet;
#X msg 200 202 label \$1;
#X obj 200 180 makefilename %d;
#X obj 59 108 int;
#X obj 59 337 outlet;
#X msg 201 306 set \$1 \$2;
#X obj 59 266 trigger bang anything;
#X obj 201 286 list;
#X obj 200 225 send \$0-open-canvas;
#X msg 60 210 device \$1;
#X connect 1 0 5 0;
#X connect 2 0 1 0;
#X connect 3 0 10 0;
#X connect 4 0 3 0;
#X connect 5 0 4 0;
#X connect 5 0 11 0;
#X connect 7 0 6 0;
#X connect 8 0 6 0;
#X connect 8 1 9 0;
#X connect 9 0 7 0;
#X connect 11 0 8 0;
#X coords 0 -1 1 1 165 20 1 60 60;
#X restore 182 109 pd serin;
#N canvas 641 194 682 322 gemwin 1;
#X obj 102 122 tgl 15 0 \$0-gemstart \$0-gemstart empty 17 7 0 10 -262144
-1 -1 1 1;
#X obj 102 161 r \$0-gemstart;
#X obj 102 182 select 1 0;
#X msg 102 214 create \, 1;
#X msg 177 215 destroy;
#X obj 102 239 t a;
#X obj 80 43 inlet;
#X obj 318 255 gemwin;
#X obj 318 100 t a a;
#X obj 318 287 outlet;
#X obj 350 128 route create destroy;
#X obj 350 150 t b;
#X msg 350 172 1;
#X obj 390 150 t b;
#X msg 390 172 0;
#X obj 350 195 t f;
#X msg 350 219 set \$1;
#X text 118 122 rendering;
#X msg 240 217 fullscreen \$1;
#X obj 103 141 tgl 15 0 empty empty empty 17 7 0 10 -262144 -1 -1 0
1;
#X text 119 141 fullscreen;
#X obj 125 -11 key;
#X msg 215 127 dimen 850 480;
#X obj 165 103 bng 15 250 50 0 empty empty empty 17 7 0 10 -262144
-1 -1;
#X obj 148 38 delay 10;
#X msg 148 58 1;
#X obj 153 79 s esc-start;
#X obj 251 21 loadbang;
#X obj 124 12 select 32;
#X connect 1 0 2 0;
#X connect 2 0 3 0;
#X connect 2 1 4 0;
#X connect 3 0 5 0;
#X connect 4 0 5 0;
#X connect 5 0 8 0;
#X connect 6 0 0 0;
#X connect 7 0 9 0;
#X connect 8 0 7 0;
#X connect 8 1 10 0;
#X connect 10 0 11 0;
#X connect 10 1 13 0;
#X connect 11 0 12 0;
#X connect 12 0 15 0;
#X connect 13 0 14 0;
#X connect 14 0 15 0;
#X connect 15 0 16 0;
#X connect 16 0 0 0;
#X connect 18 0 7 0;
#X connect 19 0 18 0;
#X connect 21 0 28 0;
#X connect 22 0 7 0;
#X connect 23 0 22 0;
#X connect 24 0 25 0;
#X connect 25 0 26 0;
#X connect 27 0 22 0;
#X coords 0 -1 1 1 85 60 1 100 100;
#X restore 453 116 pd gemwin;
#X obj 197 76 r esc-start;
#X obj 139 316 rectangle 7 4;
#N canvas 348 82 450 584 text 0;
#X floatatom 138 460 0 0 0 0 - - -;
#X msg -252 431 justify right top;
#X msg -253 404 justify center center;
#X text 144 478 size;
#X obj -132 189 inlet;
#X obj -28 415 loadbang;
#X msg -33 444 font font.ttf;
#X obj -53 325 translateXYZ;
#X floatatom -31 277 5 0 0 0 - - -;
#X floatatom 16 296 5 0 0 0 - - -;
#X msg 12 233 0.57;
#X obj 72 282 snapshot~;
#X floatatom 70 307 5 0 0 0 - - -;
#X obj 113 133 tgl 15 0 empty empty fuck!!! 17 7 0 10 -262144 -1 -1
1 1;
#X obj 67 252 osc~ 0.5;
#X obj 118 254 metro 20;
#X obj 70 334 * 2;
#X obj -54 380 spigot;
#X obj 73 180 s go;
#X obj -18 349 r go;
#X obj -49 478 text3d fora temer!!!;
#X floatatom 116 390 5 0 0 0 - - -;
#X obj 111 362 / 100;
#X obj 116 341 random 400;
#X msg -33 232 0.5;
#X obj -32 201 loadbang;
#X obj 110 64 loadbang;
#X obj 39 33 key;
#X obj 43 61 select 32;
#X connect 0 0 20 1;
#X connect 1 0 20 0;
#X connect 2 0 20 0;
#X connect 4 0 7 0;
#X connect 5 0 6 0;
#X connect 6 0 20 0;
#X connect 7 0 17 0;
#X connect 8 0 7 2;
#X connect 9 0 7 3;
#X connect 10 0 9 0;
#X connect 11 0 12 0;
#X connect 13 0 15 0;
#X connect 13 0 18 0;
#X connect 14 0 11 0;
#X connect 15 0 23 0;
#X connect 16 0 7 3;
#X connect 17 0 20 0;
#X connect 19 0 17 1;
#X connect 21 0 7 3;
#X connect 22 0 21 0;
#X connect 23 0 22 0;
#X connect 24 0 8 0;
#X connect 25 0 24 0;
#X connect 26 0 13 0;
#X connect 27 0 28 0;
#X connect 28 0 13 0;
#X coords 0 -1 1 1 85 60 1 100 100;
#X restore 302 299 pd text;
#X floatatom 218 239 5 0 0 0 - - -;
#X obj 208 194 loadbang;
#X obj 422 -32 loadbang;
#X obj 422 -7 delay 100;
#X msg 285 32 \; pd dsp 1 \;;
#X msg 313 78 1;
#X obj 386 61 delay 100;
#X obj 449 42 s \$0-gemstart;
#X obj 423 14 t b b;
#X obj 134 255 pix_delay;
#X msg 212 216 18;
#X connect 1 0 0 0;
#X connect 1 1 0 1;
#X connect 2 0 4 0;
#X connect 2 0 10 0;
#X connect 3 0 9 0;
#X connect 4 0 20 0;
#X connect 5 0 4 0;
#X connect 6 0 5 0;
#X connect 8 0 6 0;
#X connect 11 0 20 1;
#X connect 12 0 21 0;
#X connect 13 0 14 0;
#X connect 14 0 19 0;
#X connect 16 0 6 0;
#X connect 17 0 16 0;
#X connect 19 0 15 0;
#X connect 19 1 18 0;
#X connect 19 1 17 0;
#X connect 20 0 3 0;
#X connect 21 0 11 0;
