#N canvas 272 274 638 408 10;
#X msg 309 352 jeraman - 2015;
#X floatatom 329 142 5 0 0 0 - - -;
#X floatatom 450 143 5 0 0 0 - - -;
#X text 487 141 velocity;
#X text 367 140 melody pitch;
#X obj 329 65 midi-melody-follower;
#X obj 250 223 vocoder~;
#X obj 243 286 dac~;
#X obj 249 75 adc~;
#X obj 327 194 - 24;
#X text 365 197 ajustando com o tom da voz da pessoa;
#X connect 1 0 9 0;
#X connect 5 0 1 0;
#X connect 5 1 2 0;
#X connect 6 0 7 0;
#X connect 6 0 7 1;
#X connect 8 0 6 0;
#X connect 9 0 6 1;
