#N canvas 370 129 887 733 10;
#X obj 44 503 catch~ sum;
#N canvas 0 22 470 320 bandvocoder 0;
#N canvas 114 82 474 324 bandanalysis 0;
#X obj 198 130 bp~;
#X obj 197 168 bp~;
#X obj 155 92 inlet~;
#X obj 217 74 inlet;
#X obj 199 192 env~ 1024;
#X obj 198 245 line~;
#X obj 197 272 outlet~;
#X obj 234 109 r q;
#X msg 198 220 \$1 23;
#X connect 0 0 1 0;
#X connect 1 0 4 0;
#X connect 2 0 0 0;
#X connect 3 0 0 1;
#X connect 3 0 1 1;
#X connect 4 0 8 0;
#X connect 5 0 6 0;
#X connect 7 0 0 2;
#X connect 7 0 1 2;
#X connect 8 0 5 0;
#X restore 55 67 pd bandanalysis;
#N canvas 350 116 466 316 bandprocessing 0;
#X obj 144 82 bp~;
#X obj 143 119 bp~;
#X obj 126 22 inlet~;
#X obj 184 22 inlet;
#X obj 145 165 outlet~;
#X obj 204 52 r q;
#X connect 0 0 1 0;
#X connect 1 0 4 0;
#X connect 2 0 0 0;
#X connect 3 0 0 1;
#X connect 3 0 1 1;
#X connect 5 0 0 2;
#X connect 5 0 1 2;
#X restore 184 83 pd bandprocessing;
#X obj 141 175 throw~ sum;
#X obj 139 143 *~;
#X obj 72 118 dbtorms~;
#X obj 55 43 r~ soundfile;
#X obj 183 59 r~ synth;
#X obj 161 36 mtof;
#X obj 161 13 inlet;
#X connect 0 0 4 0;
#X connect 1 0 3 1;
#X connect 3 0 2 0;
#X connect 4 0 3 0;
#X connect 5 0 0 0;
#X connect 6 0 1 0;
#X connect 7 0 0 1;
#X connect 7 0 1 1;
#X connect 8 0 7 0;
#X restore 239 214 pd bandvocoder;
#X obj 706 187 s~ synth;
#X msg 239 195 24;
#X obj 239 176 loadbang;
#N canvas 0 22 466 316 bandvocoder 0;
#N canvas 0 22 470 320 bandanalysis 0;
#X obj 198 130 bp~;
#X obj 197 168 bp~;
#X obj 155 92 inlet~;
#X obj 217 74 inlet;
#X obj 199 192 env~ 1024;
#X obj 198 245 line~;
#X obj 197 272 outlet~;
#X obj 234 109 r q;
#X msg 198 220 \$1 23;
#X connect 0 0 1 0;
#X connect 1 0 4 0;
#X connect 2 0 0 0;
#X connect 3 0 0 1;
#X connect 3 0 1 1;
#X connect 4 0 8 0;
#X connect 5 0 6 0;
#X connect 7 0 0 2;
#X connect 7 0 1 2;
#X connect 8 0 5 0;
#X restore 55 67 pd bandanalysis;
#N canvas 350 116 462 312 bandprocessing 0;
#X obj 144 82 bp~;
#X obj 143 119 bp~;
#X obj 126 22 inlet~;
#X obj 184 22 inlet;
#X obj 145 165 outlet~;
#X obj 204 52 r q;
#X connect 0 0 1 0;
#X connect 1 0 4 0;
#X connect 2 0 0 0;
#X connect 3 0 0 1;
#X connect 3 0 1 1;
#X connect 5 0 0 2;
#X connect 5 0 1 2;
#X restore 184 83 pd bandprocessing;
#X obj 141 175 throw~ sum;
#X obj 139 143 *~;
#X obj 72 118 dbtorms~;
#X obj 55 43 r~ soundfile;
#X obj 183 59 r~ synth;
#X obj 161 36 mtof;
#X obj 161 13 inlet;
#X connect 0 0 4 0;
#X connect 1 0 3 1;
#X connect 3 0 2 0;
#X connect 4 0 3 0;
#X connect 5 0 0 0;
#X connect 6 0 1 0;
#X connect 7 0 0 1;
#X connect 7 0 1 1;
#X connect 8 0 7 0;
#X restore 343 214 pd bandvocoder;
#X obj 343 176 loadbang;
#N canvas 0 22 466 316 bandvocoder 0;
#N canvas 0 22 470 320 bandanalysis 0;
#X obj 198 130 bp~;
#X obj 197 168 bp~;
#X obj 155 92 inlet~;
#X obj 217 74 inlet;
#X obj 199 192 env~ 1024;
#X obj 198 245 line~;
#X obj 197 272 outlet~;
#X obj 234 109 r q;
#X msg 198 220 \$1 23;
#X connect 0 0 1 0;
#X connect 1 0 4 0;
#X connect 2 0 0 0;
#X connect 3 0 0 1;
#X connect 3 0 1 1;
#X connect 4 0 8 0;
#X connect 5 0 6 0;
#X connect 7 0 0 2;
#X connect 7 0 1 2;
#X connect 8 0 5 0;
#X restore 55 67 pd bandanalysis;
#N canvas 350 116 462 312 bandprocessing 0;
#X obj 144 82 bp~;
#X obj 143 119 bp~;
#X obj 126 22 inlet~;
#X obj 184 22 inlet;
#X obj 145 165 outlet~;
#X obj 204 52 r q;
#X connect 0 0 1 0;
#X connect 1 0 4 0;
#X connect 2 0 0 0;
#X connect 3 0 0 1;
#X connect 3 0 1 1;
#X connect 5 0 0 2;
#X connect 5 0 1 2;
#X restore 184 83 pd bandprocessing;
#X obj 141 175 throw~ sum;
#X obj 139 143 *~;
#X obj 72 118 dbtorms~;
#X obj 55 43 r~ soundfile;
#X obj 183 59 r~ synth;
#X obj 161 36 mtof;
#X obj 161 13 inlet;
#X connect 0 0 4 0;
#X connect 1 0 3 1;
#X connect 3 0 2 0;
#X connect 4 0 3 0;
#X connect 5 0 0 0;
#X connect 6 0 1 0;
#X connect 7 0 0 1;
#X connect 7 0 1 1;
#X connect 8 0 7 0;
#X restore 446 214 pd bandvocoder;
#X obj 446 176 loadbang;
#N canvas 0 22 466 316 bandvocoder 0;
#N canvas 0 22 470 320 bandanalysis 0;
#X obj 198 130 bp~;
#X obj 197 168 bp~;
#X obj 155 92 inlet~;
#X obj 217 74 inlet;
#X obj 199 192 env~ 1024;
#X obj 198 245 line~;
#X obj 197 272 outlet~;
#X obj 234 109 r q;
#X msg 198 220 \$1 23;
#X connect 0 0 1 0;
#X connect 1 0 4 0;
#X connect 2 0 0 0;
#X connect 3 0 0 1;
#X connect 3 0 1 1;
#X connect 4 0 8 0;
#X connect 5 0 6 0;
#X connect 7 0 0 2;
#X connect 7 0 1 2;
#X connect 8 0 5 0;
#X restore 55 67 pd bandanalysis;
#N canvas 350 116 462 312 bandprocessing 0;
#X obj 144 82 bp~;
#X obj 143 119 bp~;
#X obj 126 22 inlet~;
#X obj 184 22 inlet;
#X obj 145 165 outlet~;
#X obj 204 52 r q;
#X connect 0 0 1 0;
#X connect 1 0 4 0;
#X connect 2 0 0 0;
#X connect 3 0 0 1;
#X connect 3 0 1 1;
#X connect 5 0 0 2;
#X connect 5 0 1 2;
#X restore 184 83 pd bandprocessing;
#X obj 141 175 throw~ sum;
#X obj 139 143 *~;
#X obj 72 118 dbtorms~;
#X obj 55 43 r~ soundfile;
#X obj 183 59 r~ synth;
#X obj 161 36 mtof;
#X obj 161 13 inlet;
#X connect 0 0 4 0;
#X connect 1 0 3 1;
#X connect 3 0 2 0;
#X connect 4 0 3 0;
#X connect 5 0 0 0;
#X connect 6 0 1 0;
#X connect 7 0 0 1;
#X connect 7 0 1 1;
#X connect 8 0 7 0;
#X restore 550 214 pd bandvocoder;
#X obj 550 176 loadbang;
#N canvas 0 22 466 316 bandvocoder 0;
#N canvas 0 22 470 320 bandanalysis 0;
#X obj 198 130 bp~;
#X obj 197 168 bp~;
#X obj 155 92 inlet~;
#X obj 217 74 inlet;
#X obj 199 192 env~ 1024;
#X obj 198 245 line~;
#X obj 197 272 outlet~;
#X obj 234 109 r q;
#X msg 198 220 \$1 23;
#X connect 0 0 1 0;
#X connect 1 0 4 0;
#X connect 2 0 0 0;
#X connect 3 0 0 1;
#X connect 3 0 1 1;
#X connect 4 0 8 0;
#X connect 5 0 6 0;
#X connect 7 0 0 2;
#X connect 7 0 1 2;
#X connect 8 0 5 0;
#X restore 55 67 pd bandanalysis;
#N canvas 350 116 462 312 bandprocessing 0;
#X obj 144 82 bp~;
#X obj 143 119 bp~;
#X obj 126 22 inlet~;
#X obj 184 22 inlet;
#X obj 145 165 outlet~;
#X obj 204 52 r q;
#X connect 0 0 1 0;
#X connect 1 0 4 0;
#X connect 2 0 0 0;
#X connect 3 0 0 1;
#X connect 3 0 1 1;
#X connect 5 0 0 2;
#X connect 5 0 1 2;
#X restore 184 83 pd bandprocessing;
#X obj 141 175 throw~ sum;
#X obj 139 143 *~;
#X obj 72 118 dbtorms~;
#X obj 55 43 r~ soundfile;
#X obj 183 59 r~ synth;
#X obj 161 36 mtof;
#X obj 161 13 inlet;
#X connect 0 0 4 0;
#X connect 1 0 3 1;
#X connect 3 0 2 0;
#X connect 4 0 3 0;
#X connect 5 0 0 0;
#X connect 6 0 1 0;
#X connect 7 0 0 1;
#X connect 7 0 1 1;
#X connect 8 0 7 0;
#X restore 238 274 pd bandvocoder;
#X obj 238 236 loadbang;
#N canvas 0 22 466 316 bandvocoder 0;
#N canvas 0 22 470 320 bandanalysis 0;
#X obj 198 130 bp~;
#X obj 197 168 bp~;
#X obj 155 92 inlet~;
#X obj 217 74 inlet;
#X obj 199 192 env~ 1024;
#X obj 198 245 line~;
#X obj 197 272 outlet~;
#X obj 234 109 r q;
#X msg 198 220 \$1 23;
#X connect 0 0 1 0;
#X connect 1 0 4 0;
#X connect 2 0 0 0;
#X connect 3 0 0 1;
#X connect 3 0 1 1;
#X connect 4 0 8 0;
#X connect 5 0 6 0;
#X connect 7 0 0 2;
#X connect 7 0 1 2;
#X connect 8 0 5 0;
#X restore 55 67 pd bandanalysis;
#N canvas 350 116 462 312 bandprocessing 0;
#X obj 144 82 bp~;
#X obj 143 119 bp~;
#X obj 126 22 inlet~;
#X obj 184 22 inlet;
#X obj 145 165 outlet~;
#X obj 204 52 r q;
#X connect 0 0 1 0;
#X connect 1 0 4 0;
#X connect 2 0 0 0;
#X connect 3 0 0 1;
#X connect 3 0 1 1;
#X connect 5 0 0 2;
#X connect 5 0 1 2;
#X restore 184 83 pd bandprocessing;
#X obj 141 175 throw~ sum;
#X obj 139 143 *~;
#X obj 72 118 dbtorms~;
#X obj 55 43 r~ soundfile;
#X obj 183 59 r~ synth;
#X obj 161 36 mtof;
#X obj 161 13 inlet;
#X connect 0 0 4 0;
#X connect 1 0 3 1;
#X connect 3 0 2 0;
#X connect 4 0 3 0;
#X connect 5 0 0 0;
#X connect 6 0 1 0;
#X connect 7 0 0 1;
#X connect 7 0 1 1;
#X connect 8 0 7 0;
#X restore 342 274 pd bandvocoder;
#X obj 342 236 loadbang;
#N canvas 0 22 466 316 bandvocoder 0;
#N canvas 0 22 470 320 bandanalysis 0;
#X obj 198 130 bp~;
#X obj 197 168 bp~;
#X obj 155 92 inlet~;
#X obj 217 74 inlet;
#X obj 199 192 env~ 1024;
#X obj 198 245 line~;
#X obj 197 272 outlet~;
#X obj 234 109 r q;
#X msg 198 220 \$1 23;
#X connect 0 0 1 0;
#X connect 1 0 4 0;
#X connect 2 0 0 0;
#X connect 3 0 0 1;
#X connect 3 0 1 1;
#X connect 4 0 8 0;
#X connect 5 0 6 0;
#X connect 7 0 0 2;
#X connect 7 0 1 2;
#X connect 8 0 5 0;
#X restore 55 67 pd bandanalysis;
#N canvas 350 116 462 312 bandprocessing 0;
#X obj 144 82 bp~;
#X obj 143 119 bp~;
#X obj 126 22 inlet~;
#X obj 184 22 inlet;
#X obj 145 165 outlet~;
#X obj 204 52 r q;
#X connect 0 0 1 0;
#X connect 1 0 4 0;
#X connect 2 0 0 0;
#X connect 3 0 0 1;
#X connect 3 0 1 1;
#X connect 5 0 0 2;
#X connect 5 0 1 2;
#X restore 184 83 pd bandprocessing;
#X obj 141 175 throw~ sum;
#X obj 139 143 *~;
#X obj 72 118 dbtorms~;
#X obj 55 43 r~ soundfile;
#X obj 183 59 r~ synth;
#X obj 161 36 mtof;
#X obj 161 13 inlet;
#X connect 0 0 4 0;
#X connect 1 0 3 1;
#X connect 3 0 2 0;
#X connect 4 0 3 0;
#X connect 5 0 0 0;
#X connect 6 0 1 0;
#X connect 7 0 0 1;
#X connect 7 0 1 1;
#X connect 8 0 7 0;
#X restore 445 274 pd bandvocoder;
#X obj 445 236 loadbang;
#N canvas 0 22 466 316 bandvocoder 0;
#N canvas 0 22 470 320 bandanalysis 0;
#X obj 198 130 bp~;
#X obj 197 168 bp~;
#X obj 155 92 inlet~;
#X obj 217 74 inlet;
#X obj 199 192 env~ 1024;
#X obj 198 245 line~;
#X obj 197 272 outlet~;
#X obj 234 109 r q;
#X msg 198 220 \$1 23;
#X connect 0 0 1 0;
#X connect 1 0 4 0;
#X connect 2 0 0 0;
#X connect 3 0 0 1;
#X connect 3 0 1 1;
#X connect 4 0 8 0;
#X connect 5 0 6 0;
#X connect 7 0 0 2;
#X connect 7 0 1 2;
#X connect 8 0 5 0;
#X restore 55 67 pd bandanalysis;
#N canvas 350 116 462 312 bandprocessing 0;
#X obj 144 82 bp~;
#X obj 143 119 bp~;
#X obj 126 22 inlet~;
#X obj 184 22 inlet;
#X obj 145 165 outlet~;
#X obj 204 52 r q;
#X connect 0 0 1 0;
#X connect 1 0 4 0;
#X connect 2 0 0 0;
#X connect 3 0 0 1;
#X connect 3 0 1 1;
#X connect 5 0 0 2;
#X connect 5 0 1 2;
#X restore 184 83 pd bandprocessing;
#X obj 141 175 throw~ sum;
#X obj 139 143 *~;
#X obj 72 118 dbtorms~;
#X obj 55 43 r~ soundfile;
#X obj 183 59 r~ synth;
#X obj 161 36 mtof;
#X obj 161 13 inlet;
#X connect 0 0 4 0;
#X connect 1 0 3 1;
#X connect 3 0 2 0;
#X connect 4 0 3 0;
#X connect 5 0 0 0;
#X connect 6 0 1 0;
#X connect 7 0 0 1;
#X connect 7 0 1 1;
#X connect 8 0 7 0;
#X restore 549 274 pd bandvocoder;
#X obj 549 236 loadbang;
#N canvas 0 22 466 316 bandvocoder 0;
#N canvas 0 22 470 320 bandanalysis 0;
#X obj 198 130 bp~;
#X obj 197 168 bp~;
#X obj 155 92 inlet~;
#X obj 217 74 inlet;
#X obj 199 192 env~ 1024;
#X obj 198 245 line~;
#X obj 197 272 outlet~;
#X obj 234 109 r q;
#X msg 198 220 \$1 23;
#X connect 0 0 1 0;
#X connect 1 0 4 0;
#X connect 2 0 0 0;
#X connect 3 0 0 1;
#X connect 3 0 1 1;
#X connect 4 0 8 0;
#X connect 5 0 6 0;
#X connect 7 0 0 2;
#X connect 7 0 1 2;
#X connect 8 0 5 0;
#X restore 55 67 pd bandanalysis;
#N canvas 350 116 462 312 bandprocessing 0;
#X obj 144 82 bp~;
#X obj 143 119 bp~;
#X obj 126 22 inlet~;
#X obj 184 22 inlet;
#X obj 145 165 outlet~;
#X obj 204 52 r q;
#X connect 0 0 1 0;
#X connect 1 0 4 0;
#X connect 2 0 0 0;
#X connect 3 0 0 1;
#X connect 3 0 1 1;
#X connect 5 0 0 2;
#X connect 5 0 1 2;
#X restore 184 83 pd bandprocessing;
#X obj 141 175 throw~ sum;
#X obj 139 143 *~;
#X obj 72 118 dbtorms~;
#X obj 55 43 r~ soundfile;
#X obj 183 59 r~ synth;
#X obj 161 36 mtof;
#X obj 161 13 inlet;
#X connect 0 0 4 0;
#X connect 1 0 3 1;
#X connect 3 0 2 0;
#X connect 4 0 3 0;
#X connect 5 0 0 0;
#X connect 6 0 1 0;
#X connect 7 0 0 1;
#X connect 7 0 1 1;
#X connect 8 0 7 0;
#X restore 237 334 pd bandvocoder;
#X obj 237 296 loadbang;
#N canvas 0 22 466 316 bandvocoder 0;
#N canvas 0 22 470 320 bandanalysis 0;
#X obj 198 130 bp~;
#X obj 197 168 bp~;
#X obj 155 92 inlet~;
#X obj 217 74 inlet;
#X obj 199 192 env~ 1024;
#X obj 198 245 line~;
#X obj 197 272 outlet~;
#X obj 234 109 r q;
#X msg 198 220 \$1 23;
#X connect 0 0 1 0;
#X connect 1 0 4 0;
#X connect 2 0 0 0;
#X connect 3 0 0 1;
#X connect 3 0 1 1;
#X connect 4 0 8 0;
#X connect 5 0 6 0;
#X connect 7 0 0 2;
#X connect 7 0 1 2;
#X connect 8 0 5 0;
#X restore 55 67 pd bandanalysis;
#N canvas 350 116 462 312 bandprocessing 0;
#X obj 144 82 bp~;
#X obj 143 119 bp~;
#X obj 126 22 inlet~;
#X obj 184 22 inlet;
#X obj 145 165 outlet~;
#X obj 204 52 r q;
#X connect 0 0 1 0;
#X connect 1 0 4 0;
#X connect 2 0 0 0;
#X connect 3 0 0 1;
#X connect 3 0 1 1;
#X connect 5 0 0 2;
#X connect 5 0 1 2;
#X restore 184 83 pd bandprocessing;
#X obj 141 175 throw~ sum;
#X obj 139 143 *~;
#X obj 72 118 dbtorms~;
#X obj 55 43 r~ soundfile;
#X obj 183 59 r~ synth;
#X obj 161 36 mtof;
#X obj 161 13 inlet;
#X connect 0 0 4 0;
#X connect 1 0 3 1;
#X connect 3 0 2 0;
#X connect 4 0 3 0;
#X connect 5 0 0 0;
#X connect 6 0 1 0;
#X connect 7 0 0 1;
#X connect 7 0 1 1;
#X connect 8 0 7 0;
#X restore 341 334 pd bandvocoder;
#X obj 341 296 loadbang;
#N canvas 0 22 466 316 bandvocoder 0;
#N canvas 0 22 470 320 bandanalysis 0;
#X obj 198 130 bp~;
#X obj 197 168 bp~;
#X obj 155 92 inlet~;
#X obj 217 74 inlet;
#X obj 199 192 env~ 1024;
#X obj 198 245 line~;
#X obj 197 272 outlet~;
#X obj 234 109 r q;
#X msg 198 220 \$1 23;
#X connect 0 0 1 0;
#X connect 1 0 4 0;
#X connect 2 0 0 0;
#X connect 3 0 0 1;
#X connect 3 0 1 1;
#X connect 4 0 8 0;
#X connect 5 0 6 0;
#X connect 7 0 0 2;
#X connect 7 0 1 2;
#X connect 8 0 5 0;
#X restore 55 67 pd bandanalysis;
#N canvas 350 116 462 312 bandprocessing 0;
#X obj 144 82 bp~;
#X obj 143 119 bp~;
#X obj 126 22 inlet~;
#X obj 184 22 inlet;
#X obj 145 165 outlet~;
#X obj 204 52 r q;
#X connect 0 0 1 0;
#X connect 1 0 4 0;
#X connect 2 0 0 0;
#X connect 3 0 0 1;
#X connect 3 0 1 1;
#X connect 5 0 0 2;
#X connect 5 0 1 2;
#X restore 184 83 pd bandprocessing;
#X obj 141 175 throw~ sum;
#X obj 139 143 *~;
#X obj 72 118 dbtorms~;
#X obj 55 43 r~ soundfile;
#X obj 183 59 r~ synth;
#X obj 161 36 mtof;
#X obj 161 13 inlet;
#X connect 0 0 4 0;
#X connect 1 0 3 1;
#X connect 3 0 2 0;
#X connect 4 0 3 0;
#X connect 5 0 0 0;
#X connect 6 0 1 0;
#X connect 7 0 0 1;
#X connect 7 0 1 1;
#X connect 8 0 7 0;
#X restore 444 334 pd bandvocoder;
#X obj 444 296 loadbang;
#N canvas 0 22 466 316 bandvocoder 0;
#N canvas 0 22 470 320 bandanalysis 0;
#X obj 198 130 bp~;
#X obj 197 168 bp~;
#X obj 155 92 inlet~;
#X obj 217 74 inlet;
#X obj 199 192 env~ 1024;
#X obj 198 245 line~;
#X obj 197 272 outlet~;
#X obj 234 109 r q;
#X msg 198 220 \$1 23;
#X connect 0 0 1 0;
#X connect 1 0 4 0;
#X connect 2 0 0 0;
#X connect 3 0 0 1;
#X connect 3 0 1 1;
#X connect 4 0 8 0;
#X connect 5 0 6 0;
#X connect 7 0 0 2;
#X connect 7 0 1 2;
#X connect 8 0 5 0;
#X restore 55 67 pd bandanalysis;
#N canvas 350 116 462 312 bandprocessing 0;
#X obj 144 82 bp~;
#X obj 143 119 bp~;
#X obj 126 22 inlet~;
#X obj 184 22 inlet;
#X obj 145 165 outlet~;
#X obj 204 52 r q;
#X connect 0 0 1 0;
#X connect 1 0 4 0;
#X connect 2 0 0 0;
#X connect 3 0 0 1;
#X connect 3 0 1 1;
#X connect 5 0 0 2;
#X connect 5 0 1 2;
#X restore 184 83 pd bandprocessing;
#X obj 141 175 throw~ sum;
#X obj 139 143 *~;
#X obj 72 118 dbtorms~;
#X obj 55 43 r~ soundfile;
#X obj 183 59 r~ synth;
#X obj 161 36 mtof;
#X obj 161 13 inlet;
#X connect 0 0 4 0;
#X connect 1 0 3 1;
#X connect 3 0 2 0;
#X connect 4 0 3 0;
#X connect 5 0 0 0;
#X connect 6 0 1 0;
#X connect 7 0 0 1;
#X connect 7 0 1 1;
#X connect 8 0 7 0;
#X restore 548 334 pd bandvocoder;
#X obj 548 296 loadbang;
#N canvas 0 22 466 316 bandvocoder 0;
#N canvas 0 22 470 320 bandanalysis 0;
#X obj 198 130 bp~;
#X obj 197 168 bp~;
#X obj 155 92 inlet~;
#X obj 217 74 inlet;
#X obj 199 192 env~ 1024;
#X obj 198 245 line~;
#X obj 197 272 outlet~;
#X obj 234 109 r q;
#X msg 198 220 \$1 23;
#X connect 0 0 1 0;
#X connect 1 0 4 0;
#X connect 2 0 0 0;
#X connect 3 0 0 1;
#X connect 3 0 1 1;
#X connect 4 0 8 0;
#X connect 5 0 6 0;
#X connect 7 0 0 2;
#X connect 7 0 1 2;
#X connect 8 0 5 0;
#X restore 55 67 pd bandanalysis;
#N canvas 350 116 462 312 bandprocessing 0;
#X obj 144 82 bp~;
#X obj 143 119 bp~;
#X obj 126 22 inlet~;
#X obj 184 22 inlet;
#X obj 145 165 outlet~;
#X obj 204 52 r q;
#X connect 0 0 1 0;
#X connect 1 0 4 0;
#X connect 2 0 0 0;
#X connect 3 0 0 1;
#X connect 3 0 1 1;
#X connect 5 0 0 2;
#X connect 5 0 1 2;
#X restore 184 83 pd bandprocessing;
#X obj 141 175 throw~ sum;
#X obj 139 143 *~;
#X obj 72 118 dbtorms~;
#X obj 55 43 r~ soundfile;
#X obj 183 59 r~ synth;
#X obj 161 36 mtof;
#X obj 161 13 inlet;
#X connect 0 0 4 0;
#X connect 1 0 3 1;
#X connect 3 0 2 0;
#X connect 4 0 3 0;
#X connect 5 0 0 0;
#X connect 6 0 1 0;
#X connect 7 0 0 1;
#X connect 7 0 1 1;
#X connect 8 0 7 0;
#X restore 236 394 pd bandvocoder;
#X obj 236 356 loadbang;
#N canvas 0 22 466 316 bandvocoder 0;
#N canvas 0 22 470 320 bandanalysis 0;
#X obj 198 130 bp~;
#X obj 197 168 bp~;
#X obj 155 92 inlet~;
#X obj 217 74 inlet;
#X obj 199 192 env~ 1024;
#X obj 198 245 line~;
#X obj 197 272 outlet~;
#X obj 234 109 r q;
#X msg 198 220 \$1 23;
#X connect 0 0 1 0;
#X connect 1 0 4 0;
#X connect 2 0 0 0;
#X connect 3 0 0 1;
#X connect 3 0 1 1;
#X connect 4 0 8 0;
#X connect 5 0 6 0;
#X connect 7 0 0 2;
#X connect 7 0 1 2;
#X connect 8 0 5 0;
#X restore 55 67 pd bandanalysis;
#N canvas 350 116 462 312 bandprocessing 0;
#X obj 144 82 bp~;
#X obj 143 119 bp~;
#X obj 126 22 inlet~;
#X obj 184 22 inlet;
#X obj 145 165 outlet~;
#X obj 204 52 r q;
#X connect 0 0 1 0;
#X connect 1 0 4 0;
#X connect 2 0 0 0;
#X connect 3 0 0 1;
#X connect 3 0 1 1;
#X connect 5 0 0 2;
#X connect 5 0 1 2;
#X restore 184 83 pd bandprocessing;
#X obj 141 175 throw~ sum;
#X obj 139 143 *~;
#X obj 72 118 dbtorms~;
#X obj 55 43 r~ soundfile;
#X obj 183 59 r~ synth;
#X obj 161 36 mtof;
#X obj 161 13 inlet;
#X connect 0 0 4 0;
#X connect 1 0 3 1;
#X connect 3 0 2 0;
#X connect 4 0 3 0;
#X connect 5 0 0 0;
#X connect 6 0 1 0;
#X connect 7 0 0 1;
#X connect 7 0 1 1;
#X connect 8 0 7 0;
#X restore 340 394 pd bandvocoder;
#X obj 340 356 loadbang;
#N canvas 0 22 466 316 bandvocoder 0;
#N canvas 0 22 470 320 bandanalysis 0;
#X obj 198 130 bp~;
#X obj 197 168 bp~;
#X obj 155 92 inlet~;
#X obj 217 74 inlet;
#X obj 199 192 env~ 1024;
#X obj 198 245 line~;
#X obj 197 272 outlet~;
#X obj 234 109 r q;
#X msg 198 220 \$1 23;
#X connect 0 0 1 0;
#X connect 1 0 4 0;
#X connect 2 0 0 0;
#X connect 3 0 0 1;
#X connect 3 0 1 1;
#X connect 4 0 8 0;
#X connect 5 0 6 0;
#X connect 7 0 0 2;
#X connect 7 0 1 2;
#X connect 8 0 5 0;
#X restore 55 67 pd bandanalysis;
#N canvas 350 116 462 312 bandprocessing 0;
#X obj 144 82 bp~;
#X obj 143 119 bp~;
#X obj 126 22 inlet~;
#X obj 184 22 inlet;
#X obj 145 165 outlet~;
#X obj 204 52 r q;
#X connect 0 0 1 0;
#X connect 1 0 4 0;
#X connect 2 0 0 0;
#X connect 3 0 0 1;
#X connect 3 0 1 1;
#X connect 5 0 0 2;
#X connect 5 0 1 2;
#X restore 184 83 pd bandprocessing;
#X obj 141 175 throw~ sum;
#X obj 139 143 *~;
#X obj 72 118 dbtorms~;
#X obj 55 43 r~ soundfile;
#X obj 183 59 r~ synth;
#X obj 161 36 mtof;
#X obj 161 13 inlet;
#X connect 0 0 4 0;
#X connect 1 0 3 1;
#X connect 3 0 2 0;
#X connect 4 0 3 0;
#X connect 5 0 0 0;
#X connect 6 0 1 0;
#X connect 7 0 0 1;
#X connect 7 0 1 1;
#X connect 8 0 7 0;
#X restore 443 394 pd bandvocoder;
#X obj 443 356 loadbang;
#N canvas 0 22 466 316 bandvocoder 0;
#N canvas 0 22 470 320 bandanalysis 0;
#X obj 198 130 bp~;
#X obj 197 168 bp~;
#X obj 155 92 inlet~;
#X obj 217 74 inlet;
#X obj 199 192 env~ 1024;
#X obj 198 245 line~;
#X obj 197 272 outlet~;
#X obj 234 109 r q;
#X msg 198 220 \$1 23;
#X connect 0 0 1 0;
#X connect 1 0 4 0;
#X connect 2 0 0 0;
#X connect 3 0 0 1;
#X connect 3 0 1 1;
#X connect 4 0 8 0;
#X connect 5 0 6 0;
#X connect 7 0 0 2;
#X connect 7 0 1 2;
#X connect 8 0 5 0;
#X restore 55 67 pd bandanalysis;
#N canvas 350 116 462 312 bandprocessing 0;
#X obj 144 82 bp~;
#X obj 143 119 bp~;
#X obj 126 22 inlet~;
#X obj 184 22 inlet;
#X obj 145 165 outlet~;
#X obj 204 52 r q;
#X connect 0 0 1 0;
#X connect 1 0 4 0;
#X connect 2 0 0 0;
#X connect 3 0 0 1;
#X connect 3 0 1 1;
#X connect 5 0 0 2;
#X connect 5 0 1 2;
#X restore 184 83 pd bandprocessing;
#X obj 141 175 throw~ sum;
#X obj 139 143 *~;
#X obj 72 118 dbtorms~;
#X obj 55 43 r~ soundfile;
#X obj 183 59 r~ synth;
#X obj 161 36 mtof;
#X obj 161 13 inlet;
#X connect 0 0 4 0;
#X connect 1 0 3 1;
#X connect 3 0 2 0;
#X connect 4 0 3 0;
#X connect 5 0 0 0;
#X connect 6 0 1 0;
#X connect 7 0 0 1;
#X connect 7 0 1 1;
#X connect 8 0 7 0;
#X restore 547 394 pd bandvocoder;
#X obj 547 356 loadbang;
#N canvas 0 22 466 316 bandvocoder 0;
#N canvas 0 22 470 320 bandanalysis 0;
#X obj 198 130 bp~;
#X obj 197 168 bp~;
#X obj 155 92 inlet~;
#X obj 217 74 inlet;
#X obj 199 192 env~ 1024;
#X obj 198 245 line~;
#X obj 197 272 outlet~;
#X obj 234 109 r q;
#X msg 198 220 \$1 23;
#X connect 0 0 1 0;
#X connect 1 0 4 0;
#X connect 2 0 0 0;
#X connect 3 0 0 1;
#X connect 3 0 1 1;
#X connect 4 0 8 0;
#X connect 5 0 6 0;
#X connect 7 0 0 2;
#X connect 7 0 1 2;
#X connect 8 0 5 0;
#X restore 55 67 pd bandanalysis;
#N canvas 350 116 462 312 bandprocessing 0;
#X obj 144 82 bp~;
#X obj 143 119 bp~;
#X obj 126 22 inlet~;
#X obj 184 22 inlet;
#X obj 145 165 outlet~;
#X obj 204 52 r q;
#X connect 0 0 1 0;
#X connect 1 0 4 0;
#X connect 2 0 0 0;
#X connect 3 0 0 1;
#X connect 3 0 1 1;
#X connect 5 0 0 2;
#X connect 5 0 1 2;
#X restore 184 83 pd bandprocessing;
#X obj 141 175 throw~ sum;
#X obj 139 143 *~;
#X obj 72 118 dbtorms~;
#X obj 55 43 r~ soundfile;
#X obj 183 59 r~ synth;
#X obj 161 36 mtof;
#X obj 161 13 inlet;
#X connect 0 0 4 0;
#X connect 1 0 3 1;
#X connect 3 0 2 0;
#X connect 4 0 3 0;
#X connect 5 0 0 0;
#X connect 6 0 1 0;
#X connect 7 0 0 1;
#X connect 7 0 1 1;
#X connect 8 0 7 0;
#X restore 237 452 pd bandvocoder;
#X obj 237 414 loadbang;
#N canvas 0 22 466 316 bandvocoder 0;
#N canvas 0 22 470 320 bandanalysis 0;
#X obj 198 130 bp~;
#X obj 197 168 bp~;
#X obj 155 92 inlet~;
#X obj 217 74 inlet;
#X obj 199 192 env~ 1024;
#X obj 198 245 line~;
#X obj 197 272 outlet~;
#X obj 234 109 r q;
#X msg 198 220 \$1 23;
#X connect 0 0 1 0;
#X connect 1 0 4 0;
#X connect 2 0 0 0;
#X connect 3 0 0 1;
#X connect 3 0 1 1;
#X connect 4 0 8 0;
#X connect 5 0 6 0;
#X connect 7 0 0 2;
#X connect 7 0 1 2;
#X connect 8 0 5 0;
#X restore 55 67 pd bandanalysis;
#N canvas 350 116 462 312 bandprocessing 0;
#X obj 144 82 bp~;
#X obj 143 119 bp~;
#X obj 126 22 inlet~;
#X obj 184 22 inlet;
#X obj 145 165 outlet~;
#X obj 204 52 r q;
#X connect 0 0 1 0;
#X connect 1 0 4 0;
#X connect 2 0 0 0;
#X connect 3 0 0 1;
#X connect 3 0 1 1;
#X connect 5 0 0 2;
#X connect 5 0 1 2;
#X restore 184 83 pd bandprocessing;
#X obj 141 175 throw~ sum;
#X obj 139 143 *~;
#X obj 72 118 dbtorms~;
#X obj 55 43 r~ soundfile;
#X obj 183 59 r~ synth;
#X obj 161 36 mtof;
#X obj 161 13 inlet;
#X connect 0 0 4 0;
#X connect 1 0 3 1;
#X connect 3 0 2 0;
#X connect 4 0 3 0;
#X connect 5 0 0 0;
#X connect 6 0 1 0;
#X connect 7 0 0 1;
#X connect 7 0 1 1;
#X connect 8 0 7 0;
#X restore 341 452 pd bandvocoder;
#X obj 341 414 loadbang;
#N canvas 0 22 466 316 bandvocoder 0;
#N canvas 0 22 470 320 bandanalysis 0;
#X obj 198 130 bp~;
#X obj 197 168 bp~;
#X obj 155 92 inlet~;
#X obj 217 74 inlet;
#X obj 199 192 env~ 1024;
#X obj 198 245 line~;
#X obj 197 272 outlet~;
#X obj 234 109 r q;
#X msg 198 220 \$1 23;
#X connect 0 0 1 0;
#X connect 1 0 4 0;
#X connect 2 0 0 0;
#X connect 3 0 0 1;
#X connect 3 0 1 1;
#X connect 4 0 8 0;
#X connect 5 0 6 0;
#X connect 7 0 0 2;
#X connect 7 0 1 2;
#X connect 8 0 5 0;
#X restore 55 67 pd bandanalysis;
#N canvas 350 116 462 312 bandprocessing 0;
#X obj 144 82 bp~;
#X obj 143 119 bp~;
#X obj 126 22 inlet~;
#X obj 184 22 inlet;
#X obj 145 165 outlet~;
#X obj 204 52 r q;
#X connect 0 0 1 0;
#X connect 1 0 4 0;
#X connect 2 0 0 0;
#X connect 3 0 0 1;
#X connect 3 0 1 1;
#X connect 5 0 0 2;
#X connect 5 0 1 2;
#X restore 184 83 pd bandprocessing;
#X obj 141 175 throw~ sum;
#X obj 139 143 *~;
#X obj 72 118 dbtorms~;
#X obj 55 43 r~ soundfile;
#X obj 183 59 r~ synth;
#X obj 161 36 mtof;
#X obj 161 13 inlet;
#X connect 0 0 4 0;
#X connect 1 0 3 1;
#X connect 3 0 2 0;
#X connect 4 0 3 0;
#X connect 5 0 0 0;
#X connect 6 0 1 0;
#X connect 7 0 0 1;
#X connect 7 0 1 1;
#X connect 8 0 7 0;
#X restore 444 452 pd bandvocoder;
#X obj 444 414 loadbang;
#N canvas 0 22 466 316 bandvocoder 0;
#N canvas 0 22 470 320 bandanalysis 0;
#X obj 198 130 bp~;
#X obj 197 168 bp~;
#X obj 155 92 inlet~;
#X obj 217 74 inlet;
#X obj 199 192 env~ 1024;
#X obj 198 245 line~;
#X obj 197 272 outlet~;
#X obj 234 109 r q;
#X msg 198 220 \$1 23;
#X connect 0 0 1 0;
#X connect 1 0 4 0;
#X connect 2 0 0 0;
#X connect 3 0 0 1;
#X connect 3 0 1 1;
#X connect 4 0 8 0;
#X connect 5 0 6 0;
#X connect 7 0 0 2;
#X connect 7 0 1 2;
#X connect 8 0 5 0;
#X restore 55 67 pd bandanalysis;
#N canvas 350 116 462 312 bandprocessing 0;
#X obj 144 82 bp~;
#X obj 143 119 bp~;
#X obj 126 22 inlet~;
#X obj 184 22 inlet;
#X obj 145 165 outlet~;
#X obj 204 52 r q;
#X connect 0 0 1 0;
#X connect 1 0 4 0;
#X connect 2 0 0 0;
#X connect 3 0 0 1;
#X connect 3 0 1 1;
#X connect 5 0 0 2;
#X connect 5 0 1 2;
#X restore 184 83 pd bandprocessing;
#X obj 141 175 throw~ sum;
#X obj 139 143 *~;
#X obj 72 118 dbtorms~;
#X obj 55 43 r~ soundfile;
#X obj 183 59 r~ synth;
#X obj 161 36 mtof;
#X obj 161 13 inlet;
#X connect 0 0 4 0;
#X connect 1 0 3 1;
#X connect 3 0 2 0;
#X connect 4 0 3 0;
#X connect 5 0 0 0;
#X connect 6 0 1 0;
#X connect 7 0 0 1;
#X connect 7 0 1 1;
#X connect 8 0 7 0;
#X restore 548 452 pd bandvocoder;
#X obj 548 414 loadbang;
#N canvas 0 22 466 316 bandvocoder 0;
#N canvas 0 22 470 320 bandanalysis 0;
#X obj 198 130 bp~;
#X obj 197 168 bp~;
#X obj 155 92 inlet~;
#X obj 217 74 inlet;
#X obj 199 192 env~ 1024;
#X obj 198 245 line~;
#X obj 197 272 outlet~;
#X obj 234 109 r q;
#X msg 198 220 \$1 23;
#X connect 0 0 1 0;
#X connect 1 0 4 0;
#X connect 2 0 0 0;
#X connect 3 0 0 1;
#X connect 3 0 1 1;
#X connect 4 0 8 0;
#X connect 5 0 6 0;
#X connect 7 0 0 2;
#X connect 7 0 1 2;
#X connect 8 0 5 0;
#X restore 55 67 pd bandanalysis;
#N canvas 350 116 462 312 bandprocessing 0;
#X obj 144 82 bp~;
#X obj 143 119 bp~;
#X obj 126 22 inlet~;
#X obj 184 22 inlet;
#X obj 145 165 outlet~;
#X obj 204 52 r q;
#X connect 0 0 1 0;
#X connect 1 0 4 0;
#X connect 2 0 0 0;
#X connect 3 0 0 1;
#X connect 3 0 1 1;
#X connect 5 0 0 2;
#X connect 5 0 1 2;
#X restore 184 83 pd bandprocessing;
#X obj 141 175 throw~ sum;
#X obj 139 143 *~;
#X obj 72 118 dbtorms~;
#X obj 55 43 r~ soundfile;
#X obj 183 59 r~ synth;
#X obj 161 36 mtof;
#X obj 161 13 inlet;
#X connect 0 0 4 0;
#X connect 1 0 3 1;
#X connect 3 0 2 0;
#X connect 4 0 3 0;
#X connect 5 0 0 0;
#X connect 6 0 1 0;
#X connect 7 0 0 1;
#X connect 7 0 1 1;
#X connect 8 0 7 0;
#X restore 236 512 pd bandvocoder;
#X obj 236 474 loadbang;
#N canvas 0 22 466 316 bandvocoder 0;
#N canvas 0 22 470 320 bandanalysis 0;
#X obj 198 130 bp~;
#X obj 197 168 bp~;
#X obj 155 92 inlet~;
#X obj 217 74 inlet;
#X obj 199 192 env~ 1024;
#X obj 198 245 line~;
#X obj 197 272 outlet~;
#X obj 234 109 r q;
#X msg 198 220 \$1 23;
#X connect 0 0 1 0;
#X connect 1 0 4 0;
#X connect 2 0 0 0;
#X connect 3 0 0 1;
#X connect 3 0 1 1;
#X connect 4 0 8 0;
#X connect 5 0 6 0;
#X connect 7 0 0 2;
#X connect 7 0 1 2;
#X connect 8 0 5 0;
#X restore 55 67 pd bandanalysis;
#N canvas 350 116 462 312 bandprocessing 0;
#X obj 144 82 bp~;
#X obj 143 119 bp~;
#X obj 126 22 inlet~;
#X obj 184 22 inlet;
#X obj 145 165 outlet~;
#X obj 204 52 r q;
#X connect 0 0 1 0;
#X connect 1 0 4 0;
#X connect 2 0 0 0;
#X connect 3 0 0 1;
#X connect 3 0 1 1;
#X connect 5 0 0 2;
#X connect 5 0 1 2;
#X restore 184 83 pd bandprocessing;
#X obj 141 175 throw~ sum;
#X obj 139 143 *~;
#X obj 72 118 dbtorms~;
#X obj 55 43 r~ soundfile;
#X obj 183 59 r~ synth;
#X obj 161 36 mtof;
#X obj 161 13 inlet;
#X connect 0 0 4 0;
#X connect 1 0 3 1;
#X connect 3 0 2 0;
#X connect 4 0 3 0;
#X connect 5 0 0 0;
#X connect 6 0 1 0;
#X connect 7 0 0 1;
#X connect 7 0 1 1;
#X connect 8 0 7 0;
#X restore 340 512 pd bandvocoder;
#X obj 340 474 loadbang;
#N canvas 0 22 466 316 bandvocoder 0;
#N canvas 0 22 470 320 bandanalysis 0;
#X obj 198 130 bp~;
#X obj 197 168 bp~;
#X obj 155 92 inlet~;
#X obj 217 74 inlet;
#X obj 199 192 env~ 1024;
#X obj 198 245 line~;
#X obj 197 272 outlet~;
#X obj 234 109 r q;
#X msg 198 220 \$1 23;
#X connect 0 0 1 0;
#X connect 1 0 4 0;
#X connect 2 0 0 0;
#X connect 3 0 0 1;
#X connect 3 0 1 1;
#X connect 4 0 8 0;
#X connect 5 0 6 0;
#X connect 7 0 0 2;
#X connect 7 0 1 2;
#X connect 8 0 5 0;
#X restore 55 67 pd bandanalysis;
#N canvas 350 116 462 312 bandprocessing 0;
#X obj 144 82 bp~;
#X obj 143 119 bp~;
#X obj 126 22 inlet~;
#X obj 184 22 inlet;
#X obj 145 165 outlet~;
#X obj 204 52 r q;
#X connect 0 0 1 0;
#X connect 1 0 4 0;
#X connect 2 0 0 0;
#X connect 3 0 0 1;
#X connect 3 0 1 1;
#X connect 5 0 0 2;
#X connect 5 0 1 2;
#X restore 184 83 pd bandprocessing;
#X obj 141 175 throw~ sum;
#X obj 139 143 *~;
#X obj 72 118 dbtorms~;
#X obj 55 43 r~ soundfile;
#X obj 183 59 r~ synth;
#X obj 161 36 mtof;
#X obj 161 13 inlet;
#X connect 0 0 4 0;
#X connect 1 0 3 1;
#X connect 3 0 2 0;
#X connect 4 0 3 0;
#X connect 5 0 0 0;
#X connect 6 0 1 0;
#X connect 7 0 0 1;
#X connect 7 0 1 1;
#X connect 8 0 7 0;
#X restore 443 512 pd bandvocoder;
#X obj 443 474 loadbang;
#N canvas 0 22 466 316 bandvocoder 0;
#N canvas 0 22 470 320 bandanalysis 0;
#X obj 198 130 bp~;
#X obj 197 168 bp~;
#X obj 155 92 inlet~;
#X obj 217 74 inlet;
#X obj 199 192 env~ 1024;
#X obj 198 245 line~;
#X obj 197 272 outlet~;
#X obj 234 109 r q;
#X msg 198 220 \$1 23;
#X connect 0 0 1 0;
#X connect 1 0 4 0;
#X connect 2 0 0 0;
#X connect 3 0 0 1;
#X connect 3 0 1 1;
#X connect 4 0 8 0;
#X connect 5 0 6 0;
#X connect 7 0 0 2;
#X connect 7 0 1 2;
#X connect 8 0 5 0;
#X restore 55 67 pd bandanalysis;
#N canvas 350 116 462 312 bandprocessing 0;
#X obj 144 82 bp~;
#X obj 143 119 bp~;
#X obj 126 22 inlet~;
#X obj 184 22 inlet;
#X obj 145 165 outlet~;
#X obj 204 52 r q;
#X connect 0 0 1 0;
#X connect 1 0 4 0;
#X connect 2 0 0 0;
#X connect 3 0 0 1;
#X connect 3 0 1 1;
#X connect 5 0 0 2;
#X connect 5 0 1 2;
#X restore 184 83 pd bandprocessing;
#X obj 141 175 throw~ sum;
#X obj 139 143 *~;
#X obj 72 118 dbtorms~;
#X obj 55 43 r~ soundfile;
#X obj 183 59 r~ synth;
#X obj 161 36 mtof;
#X obj 161 13 inlet;
#X connect 0 0 4 0;
#X connect 1 0 3 1;
#X connect 3 0 2 0;
#X connect 4 0 3 0;
#X connect 5 0 0 0;
#X connect 6 0 1 0;
#X connect 7 0 0 1;
#X connect 7 0 1 1;
#X connect 8 0 7 0;
#X restore 547 512 pd bandvocoder;
#X obj 547 474 loadbang;
#X msg 238 255 36;
#X msg 237 315 48;
#X msg 236 375 60;
#X msg 237 433 72;
#X msg 236 493 84;
#X msg 343 195 27;
#X msg 446 195 30;
#X msg 550 195 33;
#X msg 342 255 39;
#X msg 445 255 42;
#X msg 549 255 45;
#X msg 341 315 51;
#X msg 444 315 54;
#X msg 548 315 57;
#X msg 340 375 63;
#X msg 443 375 66;
#X msg 547 375 69;
#X msg 341 433 75;
#X msg 444 433 78;
#X msg 548 433 81;
#X obj 46 537 *~;
#X floatatom 43 447 5 0 0 2 vocoder_q vocoder_q q;
#X floatatom 134 510 5 0 0 2 out_gain out_gain -;
#X obj 648 103 phasor~;
#X obj 648 82 mtof;
#X msg 50 274 \; ramp_note 30 \; vocoder_q 50 \; out_gain 200;
#X text 31 635 channel vocoder cross synthesis with high q filters
;
#X obj 773 98 noise~;
#X msg 340 493 87;
#X msg 443 493 90;
#X msg 547 493 93;
#X obj 747 141 *~;
#X obj 725 98 - 1;
#X obj 726 118 * -1;
#X obj 710 75 tgl 15 0 empty empty empty 17 7 0 10 -262144 -1 -1 1
1;
#X obj 691 140 *~;
#N canvas 0 22 466 316 bandvocoder 0;
#N canvas 0 22 470 320 bandanalysis 0;
#X obj 198 130 bp~;
#X obj 197 168 bp~;
#X obj 155 92 inlet~;
#X obj 217 74 inlet;
#X obj 199 192 env~ 1024;
#X obj 198 245 line~;
#X obj 197 272 outlet~;
#X obj 234 109 r q;
#X msg 198 220 \$1 23;
#X connect 0 0 1 0;
#X connect 1 0 4 0;
#X connect 2 0 0 0;
#X connect 3 0 0 1;
#X connect 3 0 1 1;
#X connect 4 0 8 0;
#X connect 5 0 6 0;
#X connect 7 0 0 2;
#X connect 7 0 1 2;
#X connect 8 0 5 0;
#X restore 55 67 pd bandanalysis;
#N canvas 350 116 462 312 bandprocessing 0;
#X obj 144 82 bp~;
#X obj 143 119 bp~;
#X obj 126 22 inlet~;
#X obj 184 22 inlet;
#X obj 145 165 outlet~;
#X obj 204 52 r q;
#X connect 0 0 1 0;
#X connect 1 0 4 0;
#X connect 2 0 0 0;
#X connect 3 0 0 1;
#X connect 3 0 1 1;
#X connect 5 0 0 2;
#X connect 5 0 1 2;
#X restore 184 83 pd bandprocessing;
#X obj 141 175 throw~ sum;
#X obj 139 143 *~;
#X obj 72 118 dbtorms~;
#X obj 55 43 r~ soundfile;
#X obj 183 59 r~ synth;
#X obj 161 36 mtof;
#X obj 161 13 inlet;
#X connect 0 0 4 0;
#X connect 1 0 3 1;
#X connect 3 0 2 0;
#X connect 4 0 3 0;
#X connect 5 0 0 0;
#X connect 6 0 1 0;
#X connect 7 0 0 1;
#X connect 7 0 1 1;
#X connect 8 0 7 0;
#X restore 235 576 pd bandvocoder;
#X obj 235 538 loadbang;
#N canvas 0 22 466 316 bandvocoder 0;
#N canvas 0 22 470 320 bandanalysis 0;
#X obj 198 130 bp~;
#X obj 197 168 bp~;
#X obj 155 92 inlet~;
#X obj 217 74 inlet;
#X obj 199 192 env~ 1024;
#X obj 198 245 line~;
#X obj 197 272 outlet~;
#X obj 234 109 r q;
#X msg 198 220 \$1 23;
#X connect 0 0 1 0;
#X connect 1 0 4 0;
#X connect 2 0 0 0;
#X connect 3 0 0 1;
#X connect 3 0 1 1;
#X connect 4 0 8 0;
#X connect 5 0 6 0;
#X connect 7 0 0 2;
#X connect 7 0 1 2;
#X connect 8 0 5 0;
#X restore 55 67 pd bandanalysis;
#N canvas 350 116 462 312 bandprocessing 0;
#X obj 144 82 bp~;
#X obj 143 119 bp~;
#X obj 126 22 inlet~;
#X obj 184 22 inlet;
#X obj 145 165 outlet~;
#X obj 204 52 r q;
#X connect 0 0 1 0;
#X connect 1 0 4 0;
#X connect 2 0 0 0;
#X connect 3 0 0 1;
#X connect 3 0 1 1;
#X connect 5 0 0 2;
#X connect 5 0 1 2;
#X restore 184 83 pd bandprocessing;
#X obj 141 175 throw~ sum;
#X obj 139 143 *~;
#X obj 72 118 dbtorms~;
#X obj 55 43 r~ soundfile;
#X obj 183 59 r~ synth;
#X obj 161 36 mtof;
#X obj 161 13 inlet;
#X connect 0 0 4 0;
#X connect 1 0 3 1;
#X connect 3 0 2 0;
#X connect 4 0 3 0;
#X connect 5 0 0 0;
#X connect 6 0 1 0;
#X connect 7 0 0 1;
#X connect 7 0 1 1;
#X connect 8 0 7 0;
#X restore 339 576 pd bandvocoder;
#X obj 339 538 loadbang;
#N canvas 0 22 466 316 bandvocoder 0;
#N canvas 0 22 470 320 bandanalysis 0;
#X obj 198 130 bp~;
#X obj 197 168 bp~;
#X obj 155 92 inlet~;
#X obj 217 74 inlet;
#X obj 199 192 env~ 1024;
#X obj 198 245 line~;
#X obj 197 272 outlet~;
#X obj 234 109 r q;
#X msg 198 220 \$1 23;
#X connect 0 0 1 0;
#X connect 1 0 4 0;
#X connect 2 0 0 0;
#X connect 3 0 0 1;
#X connect 3 0 1 1;
#X connect 4 0 8 0;
#X connect 5 0 6 0;
#X connect 7 0 0 2;
#X connect 7 0 1 2;
#X connect 8 0 5 0;
#X restore 55 67 pd bandanalysis;
#N canvas 350 116 462 312 bandprocessing 0;
#X obj 144 82 bp~;
#X obj 143 119 bp~;
#X obj 126 22 inlet~;
#X obj 184 22 inlet;
#X obj 145 165 outlet~;
#X obj 204 52 r q;
#X connect 0 0 1 0;
#X connect 1 0 4 0;
#X connect 2 0 0 0;
#X connect 3 0 0 1;
#X connect 3 0 1 1;
#X connect 5 0 0 2;
#X connect 5 0 1 2;
#X restore 184 83 pd bandprocessing;
#X obj 141 175 throw~ sum;
#X obj 139 143 *~;
#X obj 72 118 dbtorms~;
#X obj 55 43 r~ soundfile;
#X obj 183 59 r~ synth;
#X obj 161 36 mtof;
#X obj 161 13 inlet;
#X connect 0 0 4 0;
#X connect 1 0 3 1;
#X connect 3 0 2 0;
#X connect 4 0 3 0;
#X connect 5 0 0 0;
#X connect 6 0 1 0;
#X connect 7 0 0 1;
#X connect 7 0 1 1;
#X connect 8 0 7 0;
#X restore 442 576 pd bandvocoder;
#X obj 442 538 loadbang;
#N canvas 0 22 466 316 bandvocoder 0;
#N canvas 0 22 470 320 bandanalysis 0;
#X obj 198 130 bp~;
#X obj 197 168 bp~;
#X obj 155 92 inlet~;
#X obj 217 74 inlet;
#X obj 199 192 env~ 1024;
#X obj 198 245 line~;
#X obj 197 272 outlet~;
#X obj 234 109 r q;
#X msg 198 220 \$1 23;
#X connect 0 0 1 0;
#X connect 1 0 4 0;
#X connect 2 0 0 0;
#X connect 3 0 0 1;
#X connect 3 0 1 1;
#X connect 4 0 8 0;
#X connect 5 0 6 0;
#X connect 7 0 0 2;
#X connect 7 0 1 2;
#X connect 8 0 5 0;
#X restore 55 67 pd bandanalysis;
#N canvas 350 116 462 312 bandprocessing 0;
#X obj 144 82 bp~;
#X obj 143 119 bp~;
#X obj 126 22 inlet~;
#X obj 184 22 inlet;
#X obj 145 165 outlet~;
#X obj 204 52 r q;
#X connect 0 0 1 0;
#X connect 1 0 4 0;
#X connect 2 0 0 0;
#X connect 3 0 0 1;
#X connect 3 0 1 1;
#X connect 5 0 0 2;
#X connect 5 0 1 2;
#X restore 184 83 pd bandprocessing;
#X obj 141 175 throw~ sum;
#X obj 139 143 *~;
#X obj 72 118 dbtorms~;
#X obj 55 43 r~ soundfile;
#X obj 183 59 r~ synth;
#X obj 161 36 mtof;
#X obj 161 13 inlet;
#X connect 0 0 4 0;
#X connect 1 0 3 1;
#X connect 3 0 2 0;
#X connect 4 0 3 0;
#X connect 5 0 0 0;
#X connect 6 0 1 0;
#X connect 7 0 0 1;
#X connect 7 0 1 1;
#X connect 8 0 7 0;
#X restore 546 576 pd bandvocoder;
#X obj 546 538 loadbang;
#X msg 235 557 96;
#X msg 339 557 99;
#X msg 442 557 102;
#X msg 546 557 105;
#X obj 110 81 s~ soundfile;
#X text 595 629 author: http://vimeo.com/37680757;
#X obj 50 249 loadbang;
#X obj 46 586 outlet~;
#X obj 110 29 inlet~;
#X obj 647 45 inlet;
#X msg 710 51 1;
#X obj 709 29 loadbang;
#X connect 0 0 71 0;
#X connect 3 0 1 0;
#X connect 4 0 3 0;
#X connect 6 0 56 0;
#X connect 8 0 57 0;
#X connect 10 0 58 0;
#X connect 12 0 51 0;
#X connect 14 0 59 0;
#X connect 16 0 60 0;
#X connect 18 0 61 0;
#X connect 20 0 52 0;
#X connect 22 0 62 0;
#X connect 24 0 63 0;
#X connect 26 0 64 0;
#X connect 28 0 53 0;
#X connect 30 0 65 0;
#X connect 32 0 66 0;
#X connect 34 0 67 0;
#X connect 36 0 54 0;
#X connect 38 0 68 0;
#X connect 40 0 69 0;
#X connect 42 0 70 0;
#X connect 44 0 55 0;
#X connect 46 0 79 0;
#X connect 48 0 80 0;
#X connect 50 0 81 0;
#X connect 51 0 11 0;
#X connect 52 0 19 0;
#X connect 53 0 27 0;
#X connect 54 0 35 0;
#X connect 55 0 43 0;
#X connect 56 0 5 0;
#X connect 57 0 7 0;
#X connect 58 0 9 0;
#X connect 59 0 13 0;
#X connect 60 0 15 0;
#X connect 61 0 17 0;
#X connect 62 0 21 0;
#X connect 63 0 23 0;
#X connect 64 0 25 0;
#X connect 65 0 29 0;
#X connect 66 0 31 0;
#X connect 67 0 33 0;
#X connect 68 0 37 0;
#X connect 69 0 39 0;
#X connect 70 0 41 0;
#X connect 71 0 102 0;
#X connect 73 0 71 1;
#X connect 74 0 86 0;
#X connect 75 0 74 0;
#X connect 78 0 82 1;
#X connect 79 0 45 0;
#X connect 80 0 47 0;
#X connect 81 0 49 0;
#X connect 82 0 2 0;
#X connect 83 0 84 0;
#X connect 84 0 82 0;
#X connect 85 0 83 0;
#X connect 85 0 86 1;
#X connect 86 0 2 0;
#X connect 88 0 95 0;
#X connect 90 0 96 0;
#X connect 92 0 97 0;
#X connect 94 0 98 0;
#X connect 95 0 87 0;
#X connect 96 0 89 0;
#X connect 97 0 91 0;
#X connect 98 0 93 0;
#X connect 101 0 76 0;
#X connect 103 0 99 0;
#X connect 104 0 75 0;
#X connect 105 0 85 0;
#X connect 106 0 105 0;
