#N canvas 569 31 822 676 10;
#X floatatom -157 296 5 0 24 0 - - -;
#X floatatom 29 446 5 0 0 0 - - -;
#X obj -51 395 muse 30 2 3 5 7 9 10;
#X text 210 189 lydian-dominant (jazzy);
#X text 217 212 harmonic minor;
#X text 213 236 chromatic blues;
#X text 241 257 whole-tones scale;
#X text 235 278 diminished scale;
#X text 259 300 pentatonic;
#X text 185 121 pentatonic blues;
#X text 206 169 middle-east-like minor;
#X text 198 148 major;
#X msg 6 122 2 3 4 7 8 9 12 14 15 16 19;
#X msg 42 236 2 3 4 5 6 7 9 10 11 12 14;
#X msg 12 148 2 4 5 7 9 11 12 14 16 17 19;
#X msg 17 169 1 4 5 7 8 11 12 13 16 17 19;
#X msg 25 191 2 4 6 7 9 10 12 14 16 18 19;
#X msg 33 215 2 3 5 7 8 11 12 14 15 17 19;
#X msg 49 258 0 2 2 4 4 6 6 8 8 10 10;
#X msg 57 280 2 3 5 6 8 9 11 12 14 15 17;
#X msg 66 303 2 4 7 9 12 14 16 19 21 24 26;
#X obj -169 157 bng 15 250 50 0 empty empty empty 17 7 0 10 -262144
-1 -1;
#X obj -141 158 loadbang;
#X msg -139 182 7;
#X obj 31 528 outlet;
#X text 81 530 outputs a midi message;
#X obj 12 52 hradio 10 1 0 9 empty empty scale_selector 0 -8 0 9 -262144
-1 -1 0;
#X obj 13 76 select 0 1 2 3 4 5 6 7 8;
#X floatatom -34 67 5 0 0 0 - - -;
#X obj 13 19 bng 15 250 50 0 empty empty bang! 20 7 0 9 -262144 -1
-1;
#X msg -63 3 k \$1;
#X floatatom 66 19 3 0 0 1 key - sm-key;
#X obj 11 -38 inlet;
#X obj 69 -56 loadbang;
#X msg 70 -25 30;
#X obj -65 -52 r sm-key;
#X floatatom -64 -25 5 0 0 0 - - -;
#X msg -46 30 0;
#X obj 273 9 inlet;
#X obj -134 211 r sm-send-pos;
#X obj 278 53 s sm-send-pos;
#X floatatom 366 49 5 0 0 0 - - -;
#X obj -164 246 drunk 25 3;
#X obj 193 -112 loadbang;
#X obj 169 -81 random 10;
#X obj 128 -102 bng 15 250 50 0 empty empty empty 17 7 0 10 -262144
-1 -1;
#X obj 166 -37 + 30;
#X text 269 -105 randomziming scale and key;
#X obj 236 -80 random 10;
#X connect 0 0 2 0;
#X connect 1 0 24 0;
#X connect 2 1 1 0;
#X connect 12 0 2 0;
#X connect 13 0 2 0;
#X connect 14 0 2 0;
#X connect 15 0 2 0;
#X connect 16 0 2 0;
#X connect 17 0 2 0;
#X connect 18 0 2 0;
#X connect 19 0 2 0;
#X connect 20 0 2 0;
#X connect 21 0 42 0;
#X connect 22 0 23 0;
#X connect 23 0 42 0;
#X connect 26 0 27 0;
#X connect 26 0 28 0;
#X connect 27 0 12 0;
#X connect 27 1 14 0;
#X connect 27 2 15 0;
#X connect 27 3 16 0;
#X connect 27 4 17 0;
#X connect 27 5 13 0;
#X connect 27 6 18 0;
#X connect 27 7 19 0;
#X connect 27 8 20 0;
#X connect 29 0 21 0;
#X connect 30 0 2 0;
#X connect 30 0 37 0;
#X connect 32 0 29 0;
#X connect 33 0 34 0;
#X connect 34 0 31 0;
#X connect 35 0 36 0;
#X connect 36 0 30 0;
#X connect 37 0 26 0;
#X connect 38 0 40 0;
#X connect 38 0 41 0;
#X connect 39 0 42 0;
#X connect 42 0 0 0;
#X connect 43 0 44 0;
#X connect 43 0 48 0;
#X connect 44 0 46 0;
#X connect 45 0 44 0;
#X connect 45 0 48 0;
#X connect 46 0 31 0;
#X connect 48 0 26 0;
#X coords 0 -1 1 1 115 70 1 0 0;
