#N canvas -38 23 827 689 10;
#X obj 172 159 soundfiler;
#X floatatom 234 200 0 0 0 0 - - -;
#N canvas 0 22 450 300 (subpatch) 0;
#X array sf-array2 3.37935e+06 float 0;
#X coords 0 1 3.37935e+06 -1 130 70 1;
#X restore 466 349 graph;
#X obj 172 82 openpanel;
#X obj 170 46 bng 15 250 50 0 empty empty empty 17 7 0 10 -262144 -1
-1;
#X obj 237 231 s sampleSize;
#X obj 179 255 expr 44100 / $f1;
#X obj 186 435 phasor~;
#X obj 186 478 *~;
#X obj 256 439 r sampleSize;
#X obj 184 511 tabread4~ sf-array2;
#X msg 178 119 read -resize \$1 sf-array2;
#X obj 182 543 s~ voice;
#X obj 667 319 r~ voice;
#X obj 656 378 dac~;
#X floatatom 209 336 5 0 0 0 - - -;
#X text 249 336 readrate;
#X floatatom 119 368 10 0 0.05 0 - - -;
#X obj 209 359 s readrate;
#X obj 107 331 r readrate;
#X msg 389 97 play;
#X obj 391 139 s original-spped;
#X obj 207 297 r original-spped;
#X msg 393 175 stop;
#X msg 393 200 0;
#X obj 392 220 s readrate;
#X obj 392 119 bng 15 250 50 0 empty empty empty 17 7 0 10 -262144
-1 -1;
#X obj 389 294 hsl 128 15 0 1 0 0 empty empty empty -2 -8 0 10 -262144
-1 -1 6100 1;
#X obj 231 399 r position;
#X obj 390 317 s position;
#X text 62 601 a more advanced wave player with speed \, play/pause
\, and position control;
#N canvas 273 23 807 838 fiddle 1;
#X floatatom 186 -5641 0 0 0 0 - - -;
#X obj 101 -5681 fiddle~ 1024 1 20 3;
#X text 186 -5619 amplitude;
#X obj 96 -5747 inlet~;
#X msg 181 -5430 0;
#X obj 177 -5400 s readrate;
#X obj 184 -5507 select 1;
#X obj 184 -5535 change;
#X text 223 -5584 here's the threshhold for the pause;
#X obj 274 -5091 spigot;
#X obj 311 -5116 tgl 15 0 empty empty empty 17 7 0 10 -262144 -1 -1
0 1;
#X obj 195 -5474 s speech-pause;
#X obj 258 -5498 bng 15 250 50 0 empty empty empty 17 7 0 10 -262144
-1 -1;
#N canvas 375 102 598 362 time-interval-control 0;
#X obj 124 -5063 t b b;
#X obj 131 -5034 delay 2000;
#X obj 126 -4953 tgl 15 0 empty empty empty 17 7 0 10 -262144 -1 -1
0 1;
#X msg 95 -5033 0;
#X msg 139 -5012 1;
#X obj 135 -5127 *;
#X obj 62 -5095 print;
#X msg 130 -5164 1;
#X obj 135 -5097 select 1;
#X obj 130 -4924 outlet;
#X obj 131 -5191 inlet;
#X text 188 -5191 receives a speech pause;
#X text 23 -4892 updates the current state: if it is possible to keep
receiving speech pauses or not;
#X obj 204 -5071 inlet;
#X obj 170 -4985 loadbang;
#X msg 170 -4964 1;
#X text 225 -4983 initialization;
#X text 207 -5036 sets minimal time in between pauses (default: 2 sec)
;
#X connect 0 0 3 0;
#X connect 0 1 1 0;
#X connect 1 0 4 0;
#X connect 2 0 5 1;
#X connect 2 0 9 0;
#X connect 3 0 2 0;
#X connect 4 0 2 0;
#X connect 5 0 6 0;
#X connect 5 0 8 0;
#X connect 7 0 5 0;
#X connect 8 0 0 0;
#X connect 10 0 7 0;
#X connect 13 0 1 1;
#X connect 14 0 15 0;
#X connect 15 0 2 0;
#X restore 312 -5147 pd time-interval-control;
#X obj 313 -5175 r speech-pause;
#X text 418 -5118 second inlet defines the size of the interval;
#X text 536 -5097 default value is 2 seconds;
#X obj 186 -5578 < 50;
#X text 293 -5209 not currently used;
#X connect 0 0 17 0;
#X connect 1 3 0 0;
#X connect 3 0 1 0;
#X connect 4 0 5 0;
#X connect 6 0 11 0;
#X connect 6 0 4 0;
#X connect 7 0 6 0;
#X connect 10 0 9 1;
#X connect 12 0 11 0;
#X connect 13 0 10 0;
#X connect 14 0 13 0;
#X connect 17 0 7 0;
#X restore 504 509 pd fiddle;
#X obj 508 465 r~ voice;
#X obj 390 247 bng 15 250 50 0 empty empty empty 17 7 0 10 -262144
-1 -1;
#X obj 379 36 tgl 15 0 empty empty empty 17 7 0 10 -262144 -1 -1 1
1;
#X obj 379 62 metro 50;
#X text 455 33 togles and disables sound;
#X obj 377 10 r test;
#X msg 396 269 0.55;
#X connect 0 0 1 0;
#X connect 0 0 6 0;
#X connect 1 0 5 0;
#X connect 3 0 11 0;
#X connect 4 0 3 0;
#X connect 6 0 7 0;
#X connect 6 0 15 0;
#X connect 7 0 8 0;
#X connect 8 0 10 0;
#X connect 9 0 8 1;
#X connect 10 0 12 0;
#X connect 11 0 0 0;
#X connect 13 0 14 0;
#X connect 13 0 14 1;
#X connect 15 0 18 0;
#X connect 17 0 7 0;
#X connect 19 0 17 0;
#X connect 20 0 26 0;
#X connect 22 0 15 0;
#X connect 23 0 24 0;
#X connect 24 0 25 0;
#X connect 26 0 21 0;
#X connect 27 0 29 0;
#X connect 28 0 7 1;
#X connect 32 0 31 0;
#X connect 33 0 38 0;
#X connect 34 0 35 0;
#X connect 35 0 20 0;
#X connect 37 0 34 0;
#X connect 38 0 29 0;
